Involve-SemiBold.ufo
<glyph name="exclam" format="2">
	<unicode hex="0021"/>
	<advance width="312"/>
	<outline>
		<contour>
			<point x="99.667" y="191" type="line"/>
			<point x="213" y="191" type="line"/>
			<point x="213" y="739" type="line"/>
			<point x="99.667" y="739" type="line"/>
		</contour>
		<contour>
			<point x="99.667" y="0" type="line"/>
			<point x="213" y="0" type="line"/>
			<point x="213" y="127.333" type="line"/>
			<point x="99.667" y="127.333" type="line"/>
		</contour>
	</outline>
</glyph>
<glyph name="quotedbl" format="2">
	<unicode hex="0022"/>
	<advance width="328"/>
	<outline>
		<contour>
			<point x="193.667" y="513" type="line"/>
			<point x="261" y="513" type="line"/>
			<point x="261" y="739" type="line"/>
			<point x="193.667" y="739" type="line"/>
		</contour>
		<contour>
			<point x="67.333" y="513" type="line"/>
			<point x="134.667" y="513" type="line"/>
			<point x="134.667" y="739" type="line"/>
			<point x="67.333" y="739" type="line"/>
		</contour>
	</outline>
</glyph>
<glyph name="numbersign" format="2">
	<unicode hex="0023"/>
	<advance width="558"/>
	<outline>
		<contour>
			<point x="85.667" y="0" type="line"/>
			<point x="168" y="0" type="line"/>
			<point x="203.667" y="234.333" type="line"/>
			<point x="316.333" y="234.333" type="line"/>
			<point x="280.667" y="0" type="line"/>
			<point x="362.667" y="0" type="line"/>
			<point x="398.333" y="234.333" type="line"/>
			<point x="511.333" y="234.333" type="line"/>
			<point x="511.333" y="321.333" type="line"/>
			<point x="411" y="321.333" type="line"/>
			<point x="428.333" y="432.333" type="line"/>
			<point x="533.667" y="432.333" type="line"/>
			<point x="533.667" y="518.667" type="line"/>
			<point x="441.333" y="518.667" type="line"/>
			<point x="474.333" y="739" type="line"/>
			<point x="392" y="739" type="line"/>
			<point x="359.333" y="518.667" type="line"/>
			<point x="247" y="518.667" type="line"/>
			<point x="280" y="739" type="line"/>
			<point x="198.667" y="739" type="line"/>
			<point x="165.333" y="518.667" type="line"/>
			<point x="47" y="518.667" type="line"/>
			<point x="47" y="432.333" type="line"/>
			<point x="152.333" y="432.333" type="line"/>
			<point x="134.667" y="321.333" type="line"/>
			<point x="24.333" y="321.333" type="line"/>
			<point x="24.333" y="234.333" type="line"/>
			<point x="122" y="234.333" type="line"/>
		</contour>
		<contour>
			<point x="216.333" y="321.333" type="line"/>
			<point x="234.667" y="432.333" type="line"/>
			<point x="346.333" y="432.333" type="line"/>
			<point x="328.667" y="321.333" type="line"/>
		</contour>
	</outline>
</glyph>
<glyph name="dollar" format="2">
	<unicode hex="0024"/>
	<advance width="558"/>
	<outline>
		<contour>
			<point x="230.333" y="-76" type="line"/>
			<point x="337" y="-76" type="line"/>
			<point x="337" y="40.333" type="line"/>
			<point x="431.779" y="60.941"/>
			<point x="491" y="138.42"/>
			<point x="491" y="242.667" type="curve" smooth="yes"/>
			<point x="491" y="347.297"/>
			<point x="447.953" y="398.434"/>
			<point x="324" y="442" type="curve" smooth="yes"/>
			<point x="231.816" y="474.438"/>
			<point x="207.333" y="496.722"/>
			<point x="207.333" y="548" type="curve" smooth="yes"/>
			<point x="207.333" y="597.599"/>
			<point x="237.936" y="630.333"/>
			<point x="284.333" y="630.333" type="curve" smooth="yes"/>
			<point x="329.936" y="630.333"/>
			<point x="359.659" y="601.071"/>
			<point x="366.333" y="549.667" type="curve"/>
			<point x="473.667" y="549.667" type="line"/>
			<point x="470.327" y="639.496"/>
			<point x="414.871" y="711.025"/>
			<point x="337" y="724.667" type="curve"/>
			<point x="337" y="840.667" type="line"/>
			<point x="230.333" y="840.667" type="line"/>
			<point x="230.333" y="724.667" type="line"/>
			<point x="145.857" y="706.638"/>
			<point x="94" y="638.191"/>
			<point x="94" y="544.667" type="curve" smooth="yes"/>
			<point x="94" y="452.577"/>
			<point x="140.592" y="392.273"/>
			<point x="236.667" y="361.667" type="curve" smooth="yes"/>
			<point x="338.631" y="328.868"/>
			<point x="377.667" y="292.221"/>
			<point x="377.667" y="229.261" type="curve" smooth="yes"/>
			<point x="377.667" y="175.91"/>
			<point x="337.162" y="138.667"/>
			<point x="279" y="138.667" type="curve" smooth="yes"/>
			<point x="220.436" y="138.667"/>
			<point x="182.319" y="177.917"/>
			<point x="178.667" y="242" type="curve"/>
			<point x="66" y="242" type="line"/>
			<point x="66" y="136.52"/>
			<point x="122.543" y="67.066"/>
			<point x="230.333" y="40.333" type="curve"/>
		</contour>
	</outline>
</glyph>
<glyph name="ampersand" format="2">
	<unicode hex="0026"/>
	<advance width="706"/>
	<outline>
		<contour>
			<point x="41.667" y="219.667" type="curve" smooth="yes"/>
			<point x="41.667" y="87.94"/>
			<point x="145.061" y="-13"/>
			<point x="280" y="-13" type="curve" smooth="yes"/>
			<point x="365.619" y="-13"/>
			<point x="418.519" y="21.66"/>
			<point x="479.667" y="116.333" type="curve"/>
			<point x="606.667" y="-13" type="line"/>
			<point x="687" y="61.333" type="line"/>
			<point x="536.667" y="216" type="line"/>
			<point x="667.333" y="449" type="line"/>
			<point x="540.667" y="449" type="line"/>
			<point x="456.667" y="300.333" type="line"/>
			<point x="365.333" y="396.333" type="line"/>
			<point x="447.205" y="445.04"/>
			<point x="490.667" y="488.551"/>
			<point x="490.667" y="574.333" type="curve" smooth="yes"/>
			<point x="490.667" y="676.246"/>
			<point x="411.075" y="752"/>
			<point x="304" y="752" type="curve" smooth="yes"/>
			<point x="201.409" y="752"/>
			<point x="121.667" y="674.742"/>
			<point x="121.667" y="575.333" type="curve" smooth="yes"/>
			<point x="121.667" y="522.871"/>
			<point x="137.488" y="490.199"/>
			<point x="190.333" y="433" type="curve"/>
			<point x="85.61" y="374.499"/>
			<point x="41.667" y="311.361"/>
		</contour>
		<contour>
			<point x="292" y="475.333" type="curve"/>
			<point x="246.946" y="518.049"/>
			<point x="231" y="543.796"/>
			<point x="231" y="574" type="curve" smooth="yes"/>
			<point x="231" y="615.222"/>
			<point x="263.565" y="646.333"/>
			<point x="306.667" y="646.333" type="curve" smooth="yes"/>
			<point x="350.955" y="646.333"/>
			<point x="382.667" y="616.041"/>
			<point x="382.667" y="573.667" type="curve" smooth="yes"/>
			<point x="382.667" y="532.034"/>
			<point x="357.556" y="505.105"/>
		</contour>
		<contour>
			<point x="154.667" y="211.667" type="curve" smooth="yes"/>
			<point x="154.667" y="267.969"/>
			<point x="185.298" y="304.319"/>
			<point x="264" y="341.333" type="curve"/>
			<point x="400" y="200.667" type="line"/>
			<point x="358.423" y="123.59"/>
			<point x="326.362" y="97.333"/>
			<point x="273" y="97.333" type="curve" smooth="yes"/>
			<point x="205.351" y="97.333"/>
			<point x="154.667" y="146.314"/>
		</contour>
	</outline>
</glyph>
<glyph name="parenleft" format="2">
	<unicode hex="0028"/>
	<advance width="361"/>
	<outline>
		<contour>
			<point x="319" y="-14.667" type="line"/>
			<point x="222.589" y="46.417"/>
			<point x="157.667" y="174.622"/>
			<point x="157.667" y="303" type="curve" smooth="yes"/>
			<point x="157.667" y="433.141"/>
			<point x="217.115" y="550.213"/>
			<point x="319" y="622" type="curve"/>
			<point x="319" y="739" type="line"/>
			<point x="151.066" y="671.191"/>
			<point x="43" y="500.619"/>
			<point x="43" y="303" type="curve" smooth="yes"/>
			<point x="43" y="107.543"/>
			<point x="160.639" y="-78.287"/>
			<point x="319" y="-133" type="curve"/>
		</contour>
	</outline>
</glyph>
<glyph name="parenright" format="2">
	<unicode hex="0029"/>
	<advance width="361"/>
	<outline>
		<contour>
			<point x="42" y="-133" type="line"/>
			<point x="209.838" y="-65.224"/>
			<point x="318" y="105.496"/>
			<point x="318" y="303" type="curve" smooth="yes"/>
			<point x="318" y="498.918"/>
			<point x="200.745" y="684.15"/>
			<point x="42" y="739" type="curve"/>
			<point x="42" y="620.667" type="line"/>
			<point x="138.416" y="559.58"/>
			<point x="203.333" y="431.511"/>
			<point x="203.333" y="303.333" type="curve" smooth="yes"/>
			<point x="203.333" y="172.987"/>
			<point x="143.474" y="55.175"/>
			<point x="42" y="-15.667" type="curve"/>
		</contour>
	</outline>
</glyph>
<glyph name="asterisk" format="2">
	<unicode hex="002A"/>
	<advance width="414"/>
	<outline>
		<contour>
			<point x="104" y="480" type="line"/>
			<point x="162.667" y="450" type="line"/>
			<point x="209" y="539" type="line"/>
			<point x="258" y="450" type="line"/>
			<point x="311.667" y="484.333" type="line"/>
			<point x="258" y="567.667" type="line"/>
			<point x="356.667" y="563.667" type="line"/>
			<point x="356.667" y="629" type="line"/>
			<point x="257.667" y="624" type="line"/>
			<point x="312.667" y="710" type="line"/>
			<point x="257.667" y="743.333" type="line"/>
			<point x="209.667" y="655.333" type="line"/>
			<point x="162.667" y="742.667" type="line"/>
			<point x="104.333" y="712" type="line"/>
			<point x="158.333" y="624" type="line"/>
			<point x="57.333" y="628.333" type="line"/>
			<point x="57.333" y="563.667" type="line"/>
			<point x="157.667" y="569" type="line"/>
		</contour>
	</outline>
</glyph>
<glyph name="plus" format="2">
	<unicode hex="002B"/>
	<advance width="602"/>
	<outline>
		<contour>
			<point x="248.333" y="94.333" type="line"/>
			<point x="354" y="94.333" type="line"/>
			<point x="354" y="297" type="line"/>
			<point x="553" y="297" type="line"/>
			<point x="553" y="400.333" type="line"/>
			<point x="354" y="400.333" type="line"/>
			<point x="354" y="602.333" type="line"/>
			<point x="248.333" y="602.333" type="line"/>
			<point x="248.333" y="400.333" type="line"/>
			<point x="49" y="400.333" type="line"/>
			<point x="49" y="297" type="line"/>
			<point x="248.333" y="297" type="line"/>
		</contour>
	</outline>
</glyph>
<glyph name="comma" format="2">
	<unicode hex="002C"/>
	<advance width="234"/>
	<outline>
		<contour>
			<point x="63.6667" y="0" type="line"/>
			<point x="112.597" y="0" type="line"/>
			<point x="112.597" y="-20.885" type="line" smooth="yes"/>
			<point x="112.597" y="-51.479"/>
			<point x="93.4247" y="-70.681"/>
			<point x="56.6667" y="-75.973" type="curve"/>
			<point x="56.6667" y="-135.333" type="line"/>
			<point x="129.08" y="-135.333"/>
			<point x="177" y="-85.726"/>
			<point x="177" y="-11.336" type="curve" smooth="yes"/>
			<point x="177" y="127.333" type="line"/>
			<point x="63.6667" y="127.333" type="line"/>
		</contour>
	</outline>
</glyph>
<glyph name="slash" format="2">
	<unicode hex="002F"/>
	<advance width="452"/>
	<outline>
		<contour>
			<point x="21.333" y="-128" type="line"/>
			<point x="106.333" y="-128" type="line"/>
			<point x="418.333" y="739" type="line"/>
			<point x="332.333" y="739" type="line"/>
		</contour>
	</outline>
</glyph>
<glyph name="zero" format="2">
	<unicode hex="0030"/>
	<advance width="558"/>
	<outline>
		<contour>
			<point x="34" y="254.333" type="line" smooth="yes"/>
			<point x="34" y="85.163"/>
			<point x="127.298" y="-13"/>
			<point x="287.667" y="-13" type="curve" smooth="yes"/>
			<point x="442.4" y="-13"/>
			<point x="529" y="82.785"/>
			<point x="529" y="254.333" type="curve" smooth="yes"/>
			<point x="529" y="496.333" type="line" smooth="yes"/>
			<point x="529" y="654.625"/>
			<point x="434.621" y="752"/>
			<point x="281.667" y="752" type="curve" smooth="yes"/>
			<point x="127.005" y="752"/>
			<point x="34" y="654.385"/>
			<point x="34" y="491.667" type="curve" smooth="yes"/>
		</contour>
		<contour>
			<point x="147" y="261" type="curve" smooth="yes"/>
			<point x="147" y="486" type="line" smooth="yes"/>
			<point x="147" y="590.718"/>
			<point x="195.351" y="648.333"/>
			<point x="282.667" y="648.333" type="curve" smooth="yes"/>
			<point x="369.982" y="648.333"/>
			<point x="416" y="592.429"/>
			<point x="416" y="486" type="curve" smooth="yes"/>
			<point x="416" y="259" type="line" smooth="yes"/>
			<point x="416" y="144.735"/>
			<point x="373.56" y="90.667"/>
			<point x="284" y="90.667" type="curve" smooth="yes"/>
			<point x="193.551" y="90.667"/>
			<point x="147" y="148.482"/>
		</contour>
	</outline>
	<anchor name="Anchor-0" x="279" y="805"/>
</glyph>
<glyph name="two" format="2">
	<unicode hex="0032"/>
	<advance width="558"/>
	<outline>
		<contour>
			<point x="38.333" y="0" type="line"/>
			<point x="513.333" y="0" type="line"/>
			<point x="513.333" y="105.667" type="line"/>
			<point x="196.333" y="105.667" type="line"/>
			<point x="376" y="272.667" type="line" smooth="yes"/>
			<point x="482.784" y="371.304"/>
			<point x="516.667" y="430.167"/>
			<point x="516.667" y="517" type="curve" smooth="yes"/>
			<point x="516.667" y="652.037"/>
			<point x="415.3" y="752"/>
			<point x="278.333" y="752" type="curve" smooth="yes"/>
			<point x="130.346" y="752"/>
			<point x="37" y="650.399"/>
			<point x="37" y="489.333" type="curve"/>
			<point x="148.667" y="489.333" type="line"/>
			<point x="148.667" y="586.753"/>
			<point x="198.931" y="648.333"/>
			<point x="278.667" y="648.333" type="curve" smooth="yes"/>
			<point x="350.378" y="648.333"/>
			<point x="403.333" y="593.629"/>
			<point x="403.333" y="519.667" type="curve" smooth="yes"/>
			<point x="403.333" y="465.068"/>
			<point x="380.369" y="426.497"/>
			<point x="300" y="349.667" type="curve" smooth="yes"/>
			<point x="38.333" y="100.333" type="line"/>
		</contour>
	</outline>
	<anchor name="Anchor-0" x="279" y="805"/>
</glyph>
<glyph name="three" format="2">
	<unicode hex="0033"/>
	<advance width="558"/>
	<outline>
		<contour>
			<point x="25.667" y="226.333" type="line"/>
			<point x="32.955" y="83.891"/>
			<point x="134.277" y="-13"/>
			<point x="275.667" y="-13" type="curve" smooth="yes"/>
			<point x="414.105" y="-13"/>
			<point x="518" y="91.775"/>
			<point x="518" y="231.333" type="curve" smooth="yes"/>
			<point x="518" y="323.152"/>
			<point x="478.524" y="387.741"/>
			<point x="399.667" y="425" type="curve"/>
			<point x="445.624" y="457.637"/>
			<point x="466.333" y="498.613"/>
			<point x="466.333" y="557" type="curve" smooth="yes"/>
			<point x="466.333" y="669.765"/>
			<point x="384.235" y="752"/>
			<point x="271.667" y="752" type="curve" smooth="yes"/>
			<point x="160.042" y="752"/>
			<point x="86.295" y="678.745"/>
			<point x="78.667" y="560.333" type="curve"/>
			<point x="193" y="560.333" type="line"/>
			<point x="197.358" y="618.89"/>
			<point x="223.847" y="648.333"/>
			<point x="272.333" y="648.333" type="curve" smooth="yes"/>
			<point x="319.633" y="648.333"/>
			<point x="353" y="613.034"/>
			<point x="353" y="563" type="curve" smooth="yes"/>
			<point x="353" y="508.659"/>
			<point x="314.25" y="474.116"/>
			<point x="251.011" y="474.116" type="curve" smooth="yes"/>
			<point x="223" y="474.116" type="line"/>
			<point x="223" y="366.615" type="line"/>
			<point x="243.656" y="366.615" type="line" smooth="yes"/>
			<point x="343.991" y="366.615"/>
			<point x="404.667" y="314.398"/>
			<point x="404.667" y="228" type="curve" smooth="yes"/>
			<point x="404.667" y="149.25"/>
			<point x="348.92" y="90.667"/>
			<point x="274" y="90.667" type="curve" smooth="yes"/>
			<point x="199.104" y="90.667"/>
			<point x="148.148" y="141.92"/>
			<point x="139.333" y="226.333" type="curve"/>
		</contour>
	</outline>
	<anchor name="Anchor-0" x="279" y="805"/>
</glyph>
<glyph name="four" format="2">
	<unicode hex="0034"/>
	<advance width="558"/>
	<outline>
		<contour>
			<point x="10.667" y="119" type="line"/>
			<point x="348" y="119" type="line"/>
			<point x="348" y="0" type="line"/>
			<point x="461" y="0" type="line"/>
			<point x="461" y="119" type="line"/>
			<point x="535.667" y="119" type="line"/>
			<point x="535.667" y="220.667" type="line"/>
			<point x="461" y="220.667" type="line"/>
			<point x="461" y="739" type="line"/>
			<point x="357.333" y="739" type="line"/>
			<point x="10.667" y="213.333" type="line"/>
		</contour>
		<contour>
			<point x="129" y="220.667" type="line"/>
			<point x="348" y="555.667" type="line"/>
			<point x="348" y="220.667" type="line"/>
		</contour>
	</outline>
	<anchor name="Anchor-0" x="279" y="805"/>
</glyph>
<glyph name="five" format="2">
	<unicode hex="0035"/>
	<advance width="558"/>
	<outline>
		<contour>
			<point x="22.667" y="224.667" type="line"/>
			<point x="34.593" y="85.395"/>
			<point x="140.769" y="-13"/>
			<point x="278.667" y="-13" type="curve" smooth="yes"/>
			<point x="421.081" y="-13"/>
			<point x="528.667" y="98.751"/>
			<point x="528.667" y="246.667" type="curve" smooth="yes"/>
			<point x="528.667" y="391.755"/>
			<point x="426.919" y="500.333"/>
			<point x="291" y="500.333" type="curve" smooth="yes"/>
			<point x="253.254" y="500.333"/>
			<point x="225.245" y="493.451"/>
			<point x="185.333" y="474.667" type="curve"/>
			<point x="213.333" y="633.333" type="line"/>
			<point x="460.667" y="633.333" type="line"/>
			<point x="460.667" y="739" type="line"/>
			<point x="127" y="739" type="line"/>
			<point x="59" y="360.333" type="line"/>
			<point x="156.667" y="331.667" type="line"/>
			<point x="193.531" y="377.498"/>
			<point x="228.825" y="396.667"/>
			<point x="276.333" y="396.667" type="curve" smooth="yes"/>
			<point x="355.662" y="396.667"/>
			<point x="415.333" y="331.703"/>
			<point x="415.333" y="245.333" type="curve" smooth="yes"/>
			<point x="415.333" y="155.833"/>
			<point x="356.182" y="90.667"/>
			<point x="275" y="90.667" type="curve" smooth="yes"/>
			<point x="201.353" y="90.667"/>
			<point x="149.073" y="140.931"/>
			<point x="135.333" y="224.667" type="curve"/>
		</contour>
	</outline>
	<anchor name="Anchor-0" x="279" y="805"/>
</glyph>
<glyph name="six" format="2">
	<unicode hex="0036"/>
	<advance width="558"/>
	<outline>
		<contour>
			<point x="292" y="739" type="line"/>
			<point x="102.333" y="455" type="line" smooth="yes"/>
			<point x="42.86" y="366.02"/>
			<point x="24.333" y="315.203"/>
			<point x="24.333" y="242.667" type="curve" smooth="yes"/>
			<point x="24.333" y="95.743"/>
			<point x="133.922" y="-13"/>
			<point x="282" y="-13" type="curve" smooth="yes"/>
			<point x="428.737" y="-13"/>
			<point x="533.667" y="97.074"/>
			<point x="533.667" y="251" type="curve" smooth="yes"/>
			<point x="533.667" y="388.796"/>
			<point x="441.844" y="491.667"/>
			<point x="319" y="491.667" type="curve" smooth="yes"/>
			<point x="292.079" y="491.667"/>
			<point x="276.102" y="488.435"/>
			<point x="250.333" y="478" type="curve"/>
			<point x="426.333" y="739" type="line"/>
		</contour>
		<contour>
			<point x="282.333" y="90.667" type="curve" smooth="yes"/>
			<point x="198.23" y="90.667"/>
			<point x="137.667" y="153.765"/>
			<point x="137.667" y="241.333" type="curve" smooth="yes"/>
			<point x="137.667" y="328.03"/>
			<point x="196.692" y="392"/>
			<point x="276.667" y="392" type="curve" smooth="yes"/>
			<point x="361.67" y="392"/>
			<point x="420.333" y="330.343"/>
			<point x="420.333" y="241" type="curve" smooth="yes"/>
			<point x="420.333" y="152.713"/>
			<point x="363.375" y="90.667"/>
		</contour>
	</outline>
	<anchor name="Anchor-0" x="279" y="805"/>
</glyph>
<glyph name="eight" format="2">
	<unicode hex="0038"/>
	<advance width="558"/>
	<outline>
		<contour>
			<point x="36.667" y="225.667" type="curve" smooth="yes"/>
			<point x="36.667" y="90.186"/>
			<point x="142.151" y="-13"/>
			<point x="280.667" y="-13" type="curve" smooth="yes"/>
			<point x="419.097" y="-13"/>
			<point x="521.333" y="89.097"/>
			<point x="521.333" y="227.333" type="curve" smooth="yes"/>
			<point x="521.333" y="313.345"/>
			<point x="486.991" y="369.699"/>
			<point x="409.667" y="411.667" type="curve"/>
			<point x="458.097" y="443.475"/>
			<point x="480.333" y="488.316"/>
			<point x="480.333" y="554.333" type="curve" smooth="yes"/>
			<point x="480.333" y="668.419"/>
			<point x="395.915" y="752"/>
			<point x="280.667" y="752" type="curve" smooth="yes"/>
			<point x="167.929" y="752"/>
			<point x="79.667" y="664.598"/>
			<point x="79.667" y="553" type="curve" smooth="yes"/>
			<point x="79.667" y="493.764"/>
			<point x="98.642" y="455.685"/>
			<point x="149" y="411.667" type="curve"/>
			<point x="74.018" y="371.849"/>
			<point x="36.667" y="310.102"/>
		</contour>
		<contour>
			<point x="281.333" y="460.667" type="curve" smooth="yes"/>
			<point x="229.296" y="460.667"/>
			<point x="189" y="501.714"/>
			<point x="189" y="554.667" type="curve" smooth="yes"/>
			<point x="189" y="607.856"/>
			<point x="227.848" y="648.333"/>
			<point x="279" y="648.333" type="curve" smooth="yes"/>
			<point x="332.497" y="648.333"/>
			<point x="371" y="609.501"/>
			<point x="371" y="555.667" type="curve" smooth="yes"/>
			<point x="371" y="502.003"/>
			<point x="332.001" y="460.667"/>
		</contour>
		<contour>
			<point x="150" y="221" type="curve" smooth="yes"/>
			<point x="150" y="295.364"/>
			<point x="205.362" y="352.333"/>
			<point x="277.667" y="352.333" type="curve" smooth="yes"/>
			<point x="352.706" y="352.333"/>
			<point x="408" y="297.29"/>
			<point x="408" y="222.667" type="curve" smooth="yes"/>
			<point x="408" y="146.572"/>
			<point x="354.228" y="90.667"/>
			<point x="281" y="90.667" type="curve" smooth="yes"/>
			<point x="206.301" y="90.667"/>
			<point x="150" y="146.7"/>
		</contour>
	</outline>
	<anchor name="Anchor-0" x="279" y="805"/>
</glyph>
<glyph name="nine" format="2">
	<unicode hex="0039"/>
	<advance width="558"/>
	<outline>
		<contour>
			<point x="131" y="0" type="line"/>
			<point x="265.333" y="0" type="line"/>
			<point x="455" y="284" type="line" smooth="yes"/>
			<point x="514.303" y="372.724"/>
			<point x="533" y="423.846"/>
			<point x="533" y="495.667" type="curve" smooth="yes"/>
			<point x="533" y="642.782"/>
			<point x="423.217" y="752"/>
			<point x="275.333" y="752" type="curve" smooth="yes"/>
			<point x="129.32" y="752"/>
			<point x="25" y="641.986"/>
			<point x="25" y="488" type="curve" smooth="yes"/>
			<point x="25" y="351.036"/>
			<point x="117.923" y="246"/>
			<point x="239" y="246" type="curve" smooth="yes"/>
			<point x="264.254" y="246"/>
			<point x="280.162" y="249.506"/>
			<point x="307.667" y="261" type="curve"/>
		</contour>
		<contour>
			<point x="279.333" y="347" type="curve" smooth="yes"/>
			<point x="196.833" y="347"/>
			<point x="138.333" y="409.512"/>
			<point x="138.333" y="497.667" type="curve" smooth="yes"/>
			<point x="138.333" y="585.399"/>
			<point x="194.726" y="648.333"/>
			<point x="273.333" y="648.333" type="curve" smooth="yes"/>
			<point x="359.238" y="648.333"/>
			<point x="419.667" y="586.098"/>
			<point x="419.667" y="497.667" type="curve" smooth="yes"/>
			<point x="419.667" y="410.527"/>
			<point x="360.489" y="347"/>
		</contour>
	</outline>
	<anchor name="Anchor-0" x="279" y="805"/>
</glyph>
<glyph name="semicolon" format="2">
	<unicode hex="003B"/>
	<advance width="280"/>
	<outline>
		<contour>
			<point x="91" y="0" type="line"/>
			<point x="140.263" y="0" type="line"/>
			<point x="140.263" y="-18.885" type="line" smooth="yes"/>
			<point x="140.263" y="-51.407"/>
			<point x="121.527" y="-70.661"/>
			<point x="84" y="-75.973" type="curve"/>
			<point x="84" y="-135.333" type="line"/>
			<point x="155.907" y="-135.333"/>
			<point x="204.333" y="-85.22"/>
			<point x="204.333" y="-11.336" type="curve" smooth="yes"/>
			<point x="204.333" y="127.333" type="line"/>
			<point x="91" y="127.333" type="line"/>
		</contour>
		<contour>
			<point x="91" y="373" type="line"/>
			<point x="204.333" y="373" type="line"/>
			<point x="204.333" y="503.667" type="line"/>
			<point x="91" y="503.667" type="line"/>
		</contour>
	</outline>
</glyph>
<glyph name="equal" format="2">
	<unicode hex="003D"/>
	<advance width="602"/>
	<outline>
		<contour>
			<point x="49" y="390.667" type="line"/>
			<point x="553" y="390.667" type="line"/>
			<point x="553" y="494" type="line"/>
			<point x="49" y="494" type="line"/>
		</contour>
		<contour>
			<point x="49" y="194.667" type="line"/>
			<point x="553" y="194.667" type="line"/>
			<point x="553" y="298" type="line"/>
			<point x="49" y="298" type="line"/>
		</contour>
	</outline>
</glyph>
<glyph name="greater" format="2">
	<unicode hex="003E"/>
	<advance width="602"/>
	<outline>
		<contour>
			<point x="47.333" y="34.333" type="line"/>
			<point x="556.333" y="261.667" type="line"/>
			<point x="556.333" y="348.667" type="line"/>
			<point x="47.333" y="576.333" type="line"/>
			<point x="47.333" y="472.333" type="line"/>
			<point x="409.333" y="304.667" type="line"/>
			<point x="47.333" y="137.667" type="line"/>
		</contour>
	</outline>
</glyph>
<glyph name="question" format="2">
	<unicode hex="003F"/>
	<advance width="543"/>
	<outline>
		<contour>
			<point x="322.333" y="189" type="line"/>
			<point x="322.654" y="265.836"/>
			<point x="337.377" y="295.279"/>
			<point x="399.667" y="351" type="curve" smooth="yes"/>
			<point x="473.385" y="416.753"/>
			<point x="497.667" y="460.428"/>
			<point x="497.667" y="527" type="curve" smooth="yes"/>
			<point x="497.667" y="656.395"/>
			<point x="401.942" y="752"/>
			<point x="272.333" y="752" type="curve" smooth="yes"/>
			<point x="138.549" y="752"/>
			<point x="50.852" y="662.026"/>
			<point x="42.333" y="516" type="curve"/>
			<point x="154.333" y="516" type="line"/>
			<point x="163.714" y="600.951"/>
			<point x="201.3" y="641.667"/>
			<point x="270.333" y="641.667" type="curve" smooth="yes"/>
			<point x="336.441" y="641.667"/>
			<point x="384.333" y="594.895"/>
			<point x="384.333" y="530.333" type="curve" smooth="yes"/>
			<point x="384.333" y="492.849"/>
			<point x="367.818" y="462.961"/>
			<point x="326.333" y="427" type="curve" smooth="yes"/>
			<point x="235.131" y="349.988"/>
			<point x="210.667" y="300.012"/>
			<point x="210.333" y="189" type="curve"/>
		</contour>
		<contour>
			<point x="209.667" y="0" type="line"/>
			<point x="323" y="0" type="line"/>
			<point x="323" y="127.333" type="line"/>
			<point x="209.667" y="127.333" type="line"/>
		</contour>
	</outline>
</glyph>
<glyph name="at" format="2">
	<unicode hex="0040"/>
	<advance width="859"/>
	<outline>
		<contour>
			<point x="631" y="117.333" type="line"/>
			<point x="580.028" y="73.314"/>
			<point x="523.357" y="52.333"/>
			<point x="453.667" y="52.333" type="curve" smooth="yes"/>
			<point x="265.155" y="52.333"/>
			<point x="125.667" y="188.64"/>
			<point x="125.667" y="372.667" type="curve" smooth="yes"/>
			<point x="125.667" y="555.943"/>
			<point x="264.607" y="696.333"/>
			<point x="446" y="696.333" type="curve" smooth="yes"/>
			<point x="613.855" y="696.333"/>
			<point x="732.333" y="582.144"/>
			<point x="732.333" y="420" type="curve" smooth="yes"/>
			<point x="732.333" y="322.978"/>
			<point x="675.016" y="237.659"/>
			<point x="610.582" y="237.659" type="curve" smooth="yes"/>
			<point x="590.17" y="237.659"/>
			<point x="578.378" y="247.897"/>
			<point x="578.378" y="265.659" type="curve" smooth="yes"/>
			<point x="578.378" y="281.909"/>
			<point x="580.103" y="297.31"/>
			<point x="586.735" y="321.333" type="curve"/>
			<point x="640.667" y="573.333" type="line"/>
			<point x="550.333" y="573.333" type="line"/>
			<point x="540" y="520.667" type="line"/>
			<point x="511.085" y="565.144"/>
			<point x="478.712" y="582.333"/>
			<point x="423" y="582.333" type="curve" smooth="yes"/>
			<point x="304.561" y="582.333"/>
			<point x="207" y="466.595"/>
			<point x="207" y="326.667" type="curve" smooth="yes"/>
			<point x="207" y="220.254"/>
			<point x="268.734" y="150.667"/>
			<point x="363" y="150.667" type="curve" smooth="yes"/>
			<point x="415.359" y="150.667"/>
			<point x="460.287" y="171.008"/>
			<point x="488.94" y="207.536" type="curve"/>
			<point x="502.95" y="169.861"/>
			<point x="541.58" y="147.942"/>
			<point x="592.68" y="147.942" type="curve" smooth="yes"/>
			<point x="729.493" y="147.942"/>
			<point x="826" y="257.912"/>
			<point x="826" y="410.765" type="curve" smooth="yes"/>
			<point x="826" y="634.903"/>
			<point x="673.206" y="784.419"/>
			<point x="445.017" y="784.419" type="curve" smooth="yes"/>
			<point x="210.608" y="784.419"/>
			<point x="32.667" y="607.141"/>
			<point x="32.667" y="373.691" type="curve" smooth="yes"/>
			<point x="32.667" y="137.644"/>
			<point x="210.611" y="-35.419"/>
			<point x="453.542" y="-35.419" type="curve" smooth="yes"/>
			<point x="550.4" y="-35.419"/>
			<point x="633.953" y="-5.667"/>
			<point x="689.345" y="47.786" type="curve"/>
		</contour>
		<contour>
			<point x="390.333" y="240.667" type="curve" smooth="yes"/>
			<point x="341.675" y="240.667"/>
			<point x="311" y="276.992"/>
			<point x="311" y="334.667" type="curve" smooth="yes"/>
			<point x="311" y="414.98"/>
			<point x="370.645" y="489.667"/>
			<point x="435.667" y="489.667" type="curve" smooth="yes"/>
			<point x="484.026" y="489.667"/>
			<point x="512.667" y="457.636"/>
			<point x="512.667" y="403.333" type="curve" smooth="yes"/>
			<point x="512.667" y="319.971"/>
			<point x="454.259" y="240.667"/>
		</contour>
	</outline>
</glyph>
<glyph name="B" format="2">
	<unicode hex="0042"/>
	<advance width="583"/>
	<outline>
		<contour>
			<point x="72.667" y="0" type="line"/>
			<point x="265" y="0" type="line" smooth="yes"/>
			<point x="450.505" y="0"/>
			<point x="548.667" y="75.323"/>
			<point x="548.667" y="217.333" type="curve" smooth="yes"/>
			<point x="548.667" y="309.744"/>
			<point x="511.695" y="363.633"/>
			<point x="423.333" y="400" type="curve"/>
			<point x="481.775" y="431.384"/>
			<point x="505.333" y="472.77"/>
			<point x="505.333" y="543.667" type="curve" smooth="yes"/>
			<point x="505.333" y="676.62"/>
			<point x="417.976" y="739"/>
			<point x="231.667" y="739" type="curve" smooth="yes"/>
			<point x="72.667" y="739" type="line"/>
		</contour>
		<contour>
			<point x="188.667" y="109.667" type="line"/>
			<point x="188.667" y="331.333" type="line"/>
			<point x="307.638" y="331.333" type="line" smooth="yes"/>
			<point x="384.136" y="331.333"/>
			<point x="431.667" y="287.991"/>
			<point x="431.667" y="218.667" type="curve" smooth="yes"/>
			<point x="431.667" y="142.36"/>
			<point x="382.478" y="109.667"/>
			<point x="267.667" y="109.667" type="curve" smooth="yes"/>
		</contour>
		<contour>
			<point x="188.667" y="443" type="line"/>
			<point x="188.667" y="627.333" type="line"/>
			<point x="255.667" y="627.333" type="line" smooth="yes"/>
			<point x="349.112" y="627.333"/>
			<point x="389" y="599.742"/>
			<point x="389" y="535.333" type="curve" smooth="yes"/>
			<point x="389" y="475.039"/>
			<point x="356.314" y="443"/>
			<point x="294.304" y="443" type="curve" smooth="yes"/>
		</contour>
	</outline>
	<anchor name="Anchor-0" x="275.667" y="805"/>
</glyph>
<glyph name="C" format="2">
	<unicode hex="0043"/>
	<advance width="806"/>
	<outline>
		<contour>
			<point x="632.667" y="202" type="line"/>
			<point x="567.703" y="128.122"/>
			<point x="507.283" y="97.667"/>
			<point x="425" y="97.667" type="curve" smooth="yes"/>
			<point x="276.673" y="97.667"/>
			<point x="155.667" y="220.321"/>
			<point x="155.667" y="370.667" type="curve" smooth="yes"/>
			<point x="155.667" y="524.896"/>
			<point x="270.528" y="641.333"/>
			<point x="422.667" y="641.333" type="curve" smooth="yes"/>
			<point x="517.237" y="641.333"/>
			<point x="583.998" y="607.647"/>
			<point x="636.667" y="533.667" type="curve"/>
			<point x="766.333" y="533.667" type="line"/>
			<point x="704.623" y="670.571"/>
			<point x="575.27" y="752"/>
			<point x="419.667" y="752" type="curve" smooth="yes"/>
			<point x="207.025" y="752"/>
			<point x="38.667" y="583.358"/>
			<point x="38.667" y="370.333" type="curve" smooth="yes"/>
			<point x="38.667" y="155.666"/>
			<point x="209.668" y="-13"/>
			<point x="427.333" y="-13" type="curve" smooth="yes"/>
			<point x="578.685" y="-13"/>
			<point x="704.001" y="66.348"/>
			<point x="767.333" y="202" type="curve"/>
		</contour>
	</outline>
	<anchor name="Anchor-0" x="422.333" y="805"/>
</glyph>
<glyph name="D" format="2">
	<unicode hex="0044"/>
	<advance width="714"/>
	<outline>
		<contour>
			<point x="72.667" y="0" type="line"/>
			<point x="253.667" y="0" type="line" smooth="yes"/>
			<point x="362.493" y="0"/>
			<point x="431.139" y="12.297"/>
			<point x="491.333" y="42.333" type="curve" smooth="yes"/>
			<point x="608.267" y="100.448"/>
			<point x="675.333" y="219.021"/>
			<point x="675.333" y="367.667" type="curve" smooth="yes"/>
			<point x="675.333" y="503.959"/>
			<point x="620.237" y="614.567"/>
			<point x="520" y="679.333" type="curve" smooth="yes"/>
			<point x="456.241" y="720.512"/>
			<point x="370.475" y="739"/>
			<point x="243.333" y="739" type="curve" smooth="yes"/>
			<point x="72.667" y="739" type="line"/>
		</contour>
		<contour>
			<point x="188.667" y="109.667" type="line"/>
			<point x="188.667" y="629.333" type="line"/>
			<point x="241" y="629.333" type="line" smooth="yes"/>
			<point x="334.752" y="629.333"/>
			<point x="387.249" y="620.319"/>
			<point x="432.667" y="596.667" type="curve" smooth="yes"/>
			<point x="511.332" y="555.835"/>
			<point x="558.333" y="470.566"/>
			<point x="558.333" y="368.667" type="curve" smooth="yes"/>
			<point x="558.333" y="277.33"/>
			<point x="518.777" y="196.969"/>
			<point x="453.667" y="155.333" type="curve" smooth="yes"/>
			<point x="405.842" y="123.412"/>
			<point x="341.73" y="109.667"/>
			<point x="243" y="109.667" type="curve" smooth="yes"/>
		</contour>
	</outline>
	<anchor name="Anchor-0" x="337.333" y="805"/>
</glyph>
<glyph name="E" format="2">
	<unicode hex="0045"/>
	<advance width="528"/>
	<outline>
		<contour>
			<point x="72.667" y="0" type="line"/>
			<point x="472" y="0" type="line"/>
			<point x="472" y="109.667" type="line"/>
			<point x="188.667" y="109.667" type="line"/>
			<point x="188.667" y="315.333" type="line"/>
			<point x="461" y="315.333" type="line"/>
			<point x="461" y="425" type="line"/>
			<point x="188.667" y="425" type="line"/>
			<point x="188.667" y="629.333" type="line"/>
			<point x="472" y="629.333" type="line"/>
			<point x="472" y="739" type="line"/>
			<point x="72.667" y="739" type="line"/>
		</contour>
	</outline>
	<anchor name="Anchor-0" x="272" y="805"/>
</glyph>
<glyph name="F" format="2">
	<unicode hex="0046"/>
	<advance width="492"/>
	<outline>
		<contour>
			<point x="72.667" y="0" type="line"/>
			<point x="188.667" y="0" type="line"/>
			<point x="188.667" y="314.667" type="line"/>
			<point x="437.333" y="314.667" type="line"/>
			<point x="437.333" y="424.333" type="line"/>
			<point x="188.667" y="424.333" type="line"/>
			<point x="188.667" y="629.333" type="line"/>
			<point x="448.333" y="629.333" type="line"/>
			<point x="448.333" y="739" type="line"/>
			<point x="72.667" y="739" type="line"/>
		</contour>
	</outline>
	<anchor name="Anchor-0" x="259.333" y="805"/>
</glyph>
<glyph name="G" format="2">
	<unicode hex="0047"/>
	<advance width="862"/>
	<outline>
		<contour>
			<point x="337" y="257.333" type="line"/>
			<point x="678.667" y="257.333" type="line"/>
			<point x="641.864" y="160.608"/>
			<point x="546.301" y="97.667"/>
			<point x="434.333" y="97.667" type="curve" smooth="yes"/>
			<point x="277.096" y="97.667"/>
			<point x="155.667" y="215.897"/>
			<point x="155.667" y="369" type="curve" smooth="yes"/>
			<point x="155.667" y="524.729"/>
			<point x="272.58" y="641.333"/>
			<point x="428.667" y="641.333" type="curve" smooth="yes"/>
			<point x="524.261" y="641.333"/>
			<point x="603.466" y="601.137"/>
			<point x="651" y="528.667" type="curve"/>
			<point x="786" y="528.667" type="line"/>
			<point x="737.797" y="659.636"/>
			<point x="590.107" y="752"/>
			<point x="428.667" y="752" type="curve" smooth="yes"/>
			<point x="210.479" y="752"/>
			<point x="38.667" y="584.15"/>
			<point x="38.667" y="371" type="curve" smooth="yes"/>
			<point x="38.667" y="154.082"/>
			<point x="213.581" y="-13"/>
			<point x="440.667" y="-13" type="curve" smooth="yes"/>
			<point x="658.517" y="-13"/>
			<point x="822.452" y="147.569"/>
			<point x="826.333" y="365" type="curve"/>
			<point x="337" y="365" type="line"/>
		</contour>
	</outline>
	<anchor name="Anchor-0" x="431.333" y="805"/>
</glyph>
<glyph name="J" format="2">
	<unicode hex="004A"/>
	<advance width="490"/>
	<outline>
		<contour>
			<point x="15.667" y="175" type="line"/>
			<point x="24.47" y="58.083"/>
			<point x="101.334" y="-13.333"/>
			<point x="218.333" y="-13.333" type="curve" smooth="yes"/>
			<point x="343.493" y="-13.333"/>
			<point x="417.333" y="72.469"/>
			<point x="417.333" y="218.333" type="curve" smooth="yes"/>
			<point x="417.333" y="739" type="line"/>
			<point x="301.333" y="739" type="line"/>
			<point x="301.333" y="221" type="line" smooth="yes"/>
			<point x="301.333" y="138.934"/>
			<point x="272.85" y="97.333"/>
			<point x="216.667" y="97.333" type="curve" smooth="yes"/>
			<point x="169.668" y="97.333"/>
			<point x="139.004" y="125.331"/>
			<point x="131.333" y="175" type="curve"/>
		</contour>
	</outline>
	<anchor name="Anchor-0" x="359" y="805"/>
</glyph>
<glyph name="K" format="2">
	<unicode hex="004B"/>
	<advance width="606"/>
	<outline>
		<contour>
			<point x="72.667" y="0" type="line"/>
			<point x="188.667" y="0" type="line"/>
			<point x="188.667" y="224.894" type="line"/>
			<point x="242.546" y="292.578" type="line"/>
			<point x="455.333" y="0" type="line"/>
			<point x="596.333" y="0" type="line"/>
			<point x="313.667" y="377" type="line"/>
			<point x="596.333" y="739" type="line"/>
			<point x="455.333" y="739" type="line"/>
			<point x="188.667" y="384.667" type="line"/>
			<point x="188.667" y="739" type="line"/>
			<point x="72.667" y="739" type="line"/>
		</contour>
	</outline>
	<anchor name="Anchor-0" x="319.333" y="805"/>
</glyph>
<glyph name="L" format="2">
	<unicode hex="004C"/>
	<advance width="457"/>
	<outline>
		<contour>
			<point x="72.667" y="0" type="line"/>
			<point x="441.333" y="0" type="line"/>
			<point x="441.333" y="109.667" type="line"/>
			<point x="188.667" y="109.667" type="line"/>
			<point x="188.667" y="739" type="line"/>
			<point x="72.667" y="739" type="line"/>
		</contour>
	</outline>
	<anchor name="Anchor-0" x="130.333" y="805"/>
</glyph>
<glyph name="N" format="2">
	<unicode hex="004E"/>
	<advance width="741"/>
	<outline>
		<contour>
			<point x="72.667" y="0" type="line"/>
			<point x="188.667" y="0" type="line"/>
			<point x="188.667" y="574.667" type="line"/>
			<point x="541.333" y="0" type="line"/>
			<point x="668" y="0" type="line"/>
			<point x="668" y="739" type="line"/>
			<point x="552" y="739" type="line"/>
			<point x="552" y="176" type="line"/>
			<point x="210" y="739" type="line"/>
			<point x="72.667" y="739" type="line"/>
		</contour>
	</outline>
	<anchor name="Anchor-0" x="370" y="805"/>
</glyph>
<glyph name="O" format="2">
	<unicode hex="004F"/>
	<advance width="851"/>
	<outline>
		<contour>
			<point x="38.667" y="369" type="curve" smooth="yes"/>
			<point x="38.667" y="156.956"/>
			<point x="212.039" y="-13"/>
			<point x="428.333" y="-13" type="curve" smooth="yes"/>
			<point x="643.024" y="-13"/>
			<point x="812.333" y="155.689"/>
			<point x="812.333" y="369.667" type="curve" smooth="yes"/>
			<point x="812.333" y="580.04"/>
			<point x="640.963" y="752"/>
			<point x="431.333" y="752" type="curve" smooth="yes"/>
			<point x="210.791" y="752"/>
			<point x="38.667" y="584.122"/>
		</contour>
		<contour>
			<point x="155.667" y="369.667" type="curve" smooth="yes"/>
			<point x="155.667" y="518.877"/>
			<point x="275.882" y="641.333"/>
			<point x="422.333" y="641.333" type="curve" smooth="yes"/>
			<point x="577.227" y="641.333"/>
			<point x="695.333" y="523.107"/>
			<point x="695.333" y="368" type="curve" smooth="yes"/>
			<point x="695.333" y="215.726"/>
			<point x="578.392" y="97.667"/>
			<point x="427.667" y="97.667" type="curve" smooth="yes"/>
			<point x="276.505" y="97.667"/>
			<point x="155.667" y="218.496"/>
		</contour>
	</outline>
	<anchor name="Anchor-0" x="425.333" y="805"/>
</glyph>
<glyph name="P" format="2">
	<unicode hex="0050"/>
	<advance width="579"/>
	<outline>
		<contour>
			<point x="72.667" y="0" type="line"/>
			<point x="188.667" y="0" type="line"/>
			<point x="188.667" y="287" type="line"/>
			<point x="265.333" y="287" type="line" smooth="yes"/>
			<point x="365.358" y="287"/>
			<point x="415.148" y="296.25"/>
			<point x="457" y="322.333" type="curve" smooth="yes"/>
			<point x="515.466" y="357.865"/>
			<point x="550.333" y="428.698"/>
			<point x="550.333" y="512.333" type="curve" smooth="yes"/>
			<point x="550.333" y="595.86"/>
			<point x="517.175" y="663.74"/>
			<point x="458.333" y="700.667" type="curve" smooth="yes"/>
			<point x="413.508" y="728.769"/>
			<point x="361.301" y="739"/>
			<point x="262.667" y="739" type="curve" smooth="yes"/>
			<point x="72.667" y="739" type="line"/>
		</contour>
		<contour>
			<point x="188.667" y="396.667" type="line"/>
			<point x="188.667" y="629.333" type="line"/>
			<point x="254.333" y="629.333" type="line" smooth="yes"/>
			<point x="306.509" y="629.333"/>
			<point x="336.883" y="626.499"/>
			<point x="363" y="619.333" type="curve" smooth="yes"/>
			<point x="407.249" y="606.359"/>
			<point x="433.333" y="566.108"/>
			<point x="433.333" y="510.667" type="curve" smooth="yes"/>
			<point x="433.333" y="463.101"/>
			<point x="409.825" y="425.925"/>
			<point x="371" y="411.667" type="curve"/>
			<point x="346.871" y="401.339"/>
			<point x="312.14" y="396.667"/>
			<point x="261" y="396.667" type="curve" smooth="yes"/>
		</contour>
	</outline>
	<anchor name="Anchor-0" x="288" y="805"/>
</glyph>
<glyph name="Q" format="2">
	<unicode hex="0051"/>
	<advance width="866"/>
	<outline>
		<contour>
			<point x="38.667" y="369.667" type="curve" smooth="yes"/>
			<point x="38.667" y="156.095"/>
			<point x="215.568" y="-13"/>
			<point x="439" y="-13" type="curve" smooth="yes"/>
			<point x="515.655" y="-13"/>
			<point x="592.663" y="8.996"/>
			<point x="649" y="47" type="curve"/>
			<point x="707.181" y="3.528"/>
			<point x="752.052" y="-13.067"/>
			<point x="811.46" y="-13.067" type="curve" smooth="yes"/>
			<point x="816.546" y="-13.067"/>
			<point x="823.721" y="-12.935"/>
			<point x="831.667" y="-12.002" type="curve"/>
			<point x="831.667" y="92" type="line"/>
			<point x="823.763" y="90.388"/>
			<point x="816.437" y="89.667"/>
			<point x="808" y="89.667" type="curve" smooth="yes"/>
			<point x="782.026" y="89.667"/>
			<point x="760.16" y="97.087"/>
			<point x="726.667" y="117" type="curve"/>
			<point x="793.727" y="182.052"/>
			<point x="827" y="264.939"/>
			<point x="827" y="367.667" type="curve" smooth="yes"/>
			<point x="827" y="588.178"/>
			<point x="659.486" y="752"/>
			<point x="434" y="752" type="curve" smooth="yes"/>
			<point x="210.316" y="752"/>
			<point x="38.667" y="585.983"/>
		</contour>
		<contour>
			<point x="198.333" y="223.333" type="curve"/>
			<point x="233.42" y="232.838"/>
			<point x="252.687" y="235.667"/>
			<point x="284.333" y="235.667" type="curve" smooth="yes"/>
			<point x="381.134" y="235.667"/>
			<point x="459.445" y="203.35"/>
			<point x="551.667" y="125.333" type="curve"/>
			<point x="514.947" y="105.128"/>
			<point x="485.021" y="97.667"/>
			<point x="438.333" y="97.667" type="curve" smooth="yes"/>
			<point x="337.165" y="97.667"/>
			<point x="253.589" y="141.805"/>
		</contour>
		<contour>
			<point x="160" y="315.667" type="curve"/>
			<point x="156.097" y="337.667"/>
			<point x="155" y="348.985"/>
			<point x="155" y="366.333" type="curve" smooth="yes"/>
			<point x="155" y="523.072"/>
			<point x="274.406" y="641.333"/>
			<point x="432.667" y="641.333" type="curve" smooth="yes"/>
			<point x="590.824" y="641.333"/>
			<point x="710" y="523.176"/>
			<point x="710" y="366.333" type="curve" smooth="yes"/>
			<point x="710" y="292.915"/>
			<point x="685.786" y="232.797"/>
			<point x="636.333" y="183.333" type="curve"/>
			<point x="528.202" y="283.724"/>
			<point x="413.577" y="333"/>
			<point x="288.667" y="333" type="curve" smooth="yes"/>
			<point x="239.782" y="333"/>
			<point x="202.382" y="327.994"/>
		</contour>
	</outline>
	<anchor name="Anchor-0" x="432.667" y="805"/>
</glyph>
<glyph name="R" format="2">
	<unicode hex="0052"/>
	<advance width="605"/>
	<outline>
		<contour>
			<point x="72.667" y="0" type="line"/>
			<point x="188.667" y="0" type="line"/>
			<point x="188.667" y="629.333" type="line"/>
			<point x="264" y="629.333" type="line" smooth="yes"/>
			<point x="395.388" y="629.333"/>
			<point x="451.333" y="590.617"/>
			<point x="451.333" y="499.667" type="curve" smooth="yes"/>
			<point x="451.333" y="410.444"/>
			<point x="392.104" y="369.028"/>
			<point x="265.19" y="369.028" type="curve" smooth="yes"/>
			<point x="166.595" y="369.028" type="line"/>
			<point x="426" y="0" type="line"/>
			<point x="569.333" y="0" type="line"/>
			<point x="367" y="274" type="line"/>
			<point x="499.927" y="300.793"/>
			<point x="568.333" y="378.158"/>
			<point x="568.333" y="502" type="curve" smooth="yes"/>
			<point x="568.333" y="658.968"/>
			<point x="469.69" y="739"/>
			<point x="275.667" y="739" type="curve" smooth="yes"/>
			<point x="72.667" y="739" type="line"/>
		</contour>
	</outline>
	<anchor name="Anchor-0" x="293.333" y="805"/>
</glyph>
<glyph name="S" format="2">
	<unicode hex="0053"/>
	<advance width="515"/>
	<outline>
		<contour>
			<point x="20" y="209.667" type="line"/>
			<point x="28.741" y="75.612"/>
			<point x="123.861" y="-13"/>
			<point x="259" y="-13" type="curve" smooth="yes"/>
			<point x="390.528" y="-13"/>
			<point x="490.667" y="86.861"/>
			<point x="490.667" y="218" type="curve" smooth="yes"/>
			<point x="490.667" y="328.139"/>
			<point x="432.925" y="392.512"/>
			<point x="293" y="437.667" type="curve" smooth="yes"/>
			<point x="193.221" y="469.928"/>
			<point x="163" y="495.845"/>
			<point x="163" y="548.333" type="curve" smooth="yes"/>
			<point x="163" y="602.732"/>
			<point x="201.735" y="641.333"/>
			<point x="256.333" y="641.333" type="curve" smooth="yes"/>
			<point x="312" y="641.333"/>
			<point x="348" y="605.333"/>
			<point x="352.333" y="545.333" type="curve"/>
			<point x="472.667" y="545.333" type="line"/>
			<point x="466.995" y="669.398"/>
			<point x="381.063" y="752"/>
			<point x="257.667" y="752" type="curve" smooth="yes"/>
			<point x="137.989" y="752"/>
			<point x="46" y="662.323"/>
			<point x="46" y="545.667" type="curve" smooth="yes"/>
			<point x="46" y="448.858"/>
			<point x="99.169" y="384.002"/>
			<point x="212" y="346" type="curve" smooth="yes"/>
			<point x="296.363" y="318.025"/>
			<point x="375" y="291.222"/>
			<point x="375" y="206.667" type="curve" smooth="yes"/>
			<point x="375" y="142.87"/>
			<point x="327.2" y="97.667"/>
			<point x="259.667" y="97.667" type="curve" smooth="yes"/>
			<point x="189.774" y="97.667"/>
			<point x="149.067" y="136.378"/>
			<point x="141.667" y="209.667" type="curve"/>
		</contour>
	</outline>
	<anchor name="Anchor-0" x="260.333" y="805"/>
</glyph>
<glyph name="U" format="2">
	<unicode hex="0055"/>
	<advance width="646"/>
	<outline>
		<contour>
			<point x="72.667" y="739" type="line"/>
			<point x="72.667" y="273.333" type="line" smooth="yes"/>
			<point x="72.667" y="93.136"/>
			<point x="165.229" y="-13"/>
			<point x="322.333" y="-13" type="curve" smooth="yes"/>
			<point x="480.417" y="-13"/>
			<point x="573" y="92.736"/>
			<point x="573" y="273.333" type="curve" smooth="yes"/>
			<point x="573" y="739" type="line"/>
			<point x="457" y="739" type="line"/>
			<point x="457" y="273.333" type="line" smooth="yes"/>
			<point x="457" y="155.488"/>
			<point x="412.615" y="97.667"/>
			<point x="322.333" y="97.667" type="curve" smooth="yes"/>
			<point x="233.064" y="97.667"/>
			<point x="188.667" y="155.935"/>
			<point x="188.667" y="273.333" type="curve" smooth="yes"/>
			<point x="188.667" y="739" type="line"/>
		</contour>
	</outline>
	<anchor name="Anchor-0" x="322.333" y="805"/>
</glyph>
<glyph name="V" format="2">
	<unicode hex="0056"/>
	<advance width="697"/>
	<outline>
		<contour>
			<point x="299.333" y="0" type="line"/>
			<point x="398" y="0" type="line"/>
			<point x="690.667" y="739" type="line"/>
			<point x="568" y="739" type="line"/>
			<point x="348.333" y="148.667" type="line"/>
			<point x="129" y="739" type="line"/>
			<point x="6" y="739" type="line"/>
		</contour>
	</outline>
	<anchor name="Anchor-0" x="348.333" y="805"/>
</glyph>
<glyph name="W" format="2">
	<unicode hex="0057"/>
	<advance width="930"/>
	<outline>
		<contour>
			<point x="226.333" y="0" type="line"/>
			<point x="330.333" y="0" type="line"/>
			<point x="465.667" y="528" type="line"/>
			<point x="599.667" y="0" type="line"/>
			<point x="704" y="0" type="line"/>
			<point x="918.667" y="739" type="line"/>
			<point x="800" y="739" type="line"/>
			<point x="652" y="180.667" type="line"/>
			<point x="510.333" y="739" type="line"/>
			<point x="420.333" y="739" type="line"/>
			<point x="277.333" y="180.667" type="line"/>
			<point x="130" y="739" type="line"/>
			<point x="11.333" y="739" type="line"/>
		</contour>
	</outline>
	<anchor name="Anchor-0" x="464.667" y="805"/>
</glyph>
<glyph name="X" format="2">
	<unicode hex="0058"/>
	<advance width="660"/>
	<outline>
		<contour>
			<point x="7.333" y="0" type="line"/>
			<point x="145" y="0" type="line"/>
			<point x="329.667" y="275.333" type="line"/>
			<point x="517.333" y="0" type="line"/>
			<point x="652.333" y="0" type="line"/>
			<point x="397.667" y="371.333" type="line"/>
			<point x="647.333" y="739" type="line"/>
			<point x="512.667" y="739" type="line"/>
			<point x="329.667" y="468.333" type="line"/>
			<point x="149.667" y="739" type="line"/>
			<point x="12" y="739" type="line"/>
			<point x="260.333" y="371.333" type="line"/>
		</contour>
	</outline>
	<anchor name="Anchor-0" x="329.333" y="805"/>
</glyph>
<glyph name="Y" format="2">
	<unicode hex="0059"/>
	<advance width="622"/>
	<outline>
		<contour>
			<point x="252.667" y="0" type="line"/>
			<point x="368.667" y="0" type="line"/>
			<point x="368.667" y="264.333" type="line"/>
			<point x="616.667" y="739" type="line"/>
			<point x="491" y="739" type="line"/>
			<point x="310.667" y="374.333" type="line"/>
			<point x="131.333" y="739" type="line"/>
			<point x="5.333" y="739" type="line"/>
			<point x="252.667" y="264.333" type="line"/>
		</contour>
	</outline>
	<anchor name="Anchor-0" x="310.667" y="805"/>
</glyph>
<glyph name="Z" format="2">
	<unicode hex="005A"/>
	<advance width="508"/>
	<outline>
		<contour>
			<point x="25.667" y="0" type="line"/>
			<point x="486" y="0" type="line"/>
			<point x="486" y="109.667" type="line"/>
			<point x="163.667" y="109.667" type="line"/>
			<point x="469.667" y="634.667" type="line"/>
			<point x="469.667" y="739" type="line"/>
			<point x="39.333" y="739" type="line"/>
			<point x="39.333" y="629.333" type="line"/>
			<point x="333.333" y="629.333" type="line"/>
			<point x="25.667" y="99.667" type="line"/>
		</contour>
	</outline>
	<anchor name="Anchor-0" x="255.667" y="805"/>
</glyph>
<glyph name="bracketleft" format="2">
	<unicode hex="005B"/>
	<advance width="326"/>
	<outline>
		<contour>
			<point x="288.333" y="-10" type="line"/>
			<point x="215.871" y="20.454"/>
			<point x="189.333" y="68.393"/>
			<point x="189.333" y="168.333" type="curve" smooth="yes"/>
			<point x="189.333" y="428.667" type="line" smooth="yes"/>
			<point x="189.333" y="536.442"/>
			<point x="214.766" y="584.627"/>
			<point x="288.333" y="616" type="curve"/>
			<point x="288.333" y="739" type="line"/>
			<point x="147.983" y="700.178"/>
			<point x="76" y="602.561"/>
			<point x="76" y="451.333" type="curve" smooth="yes"/>
			<point x="76" y="179.333" type="line" smooth="yes"/>
			<point x="76" y="6.095"/>
			<point x="147.574" y="-99.158"/>
			<point x="288.333" y="-133" type="curve"/>
		</contour>
	</outline>
</glyph>
<glyph name="backslash" format="2">
	<unicode hex="005C"/>
	<advance width="522"/>
	<outline>
		<contour>
			<point x="368.667" y="0" type="line"/>
			<point x="454.667" y="0" type="line"/>
			<point x="134.667" y="739" type="line"/>
			<point x="48.667" y="739" type="line"/>
		</contour>
	</outline>
</glyph>
<glyph name="bracketright" format="2">
	<unicode hex="005D"/>
	<advance width="326"/>
	<outline>
		<contour>
			<point x="37.333" y="-133" type="line"/>
			<point x="179.124" y="-92.963"/>
			<point x="249.667" y="2.81"/>
			<point x="249.667" y="155" type="curve" smooth="yes"/>
			<point x="249.667" y="426.667" type="line" smooth="yes"/>
			<point x="249.667" y="600.346"/>
			<point x="178.474" y="705.051"/>
			<point x="37.333" y="739" type="curve"/>
			<point x="37.333" y="616" type="line"/>
			<point x="109.764" y="585.56"/>
			<point x="136.333" y="537.648"/>
			<point x="136.333" y="438" type="curve" smooth="yes"/>
			<point x="136.333" y="177.333" type="line" smooth="yes"/>
			<point x="136.333" y="69.725"/>
			<point x="111.039" y="21.768"/>
			<point x="37.333" y="-10" type="curve"/>
		</contour>
	</outline>
</glyph>
<glyph name="asciicircum" format="2">
	<unicode hex="005E"/>
	<advance width="602"/>
	<outline>
		<contour>
			<point x="30.911" y="268.971" type="line"/>
			<point x="142.333" y="268.667" type="line"/>
			<point x="301.333" y="612.667" type="line"/>
			<point x="459.667" y="268.667" type="line"/>
			<point x="571.869" y="268.667" type="line"/>
			<point x="356" y="739" type="line"/>
			<point x="246.333" y="739" type="line"/>
		</contour>
	</outline>
</glyph>
<glyph name="grave" format="2">
	<unicode hex="0060"/>
	<advance width="397"/>
	<outline>
		<contour>
			<point x="67.333" y="730.667" type="line"/>
			<point x="283.667" y="612" type="line"/>
			<point x="330" y="683.333" type="line"/>
			<point x="116" y="808.667" type="line"/>
		</contour>
	</outline>
</glyph>
<glyph name="a" format="2">
	<unicode hex="0061"/>
	<advance width="672"/>
	<outline>
		<contour>
			<point x="32.667" y="274" type="curve" smooth="yes"/>
			<point x="32.667" y="107.954"/>
			<point x="152.376" y="-13"/>
			<point x="316.667" y="-13" type="curve" smooth="yes"/>
			<point x="399.895" y="-13"/>
			<point x="454.825" y="13.501"/>
			<point x="509.333" y="80" type="curve"/>
			<point x="509.333" y="0" type="line"/>
			<point x="615.333" y="0" type="line"/>
			<point x="615.333" y="551.667" type="line"/>
			<point x="509.333" y="551.667" type="line"/>
			<point x="509.333" y="470" type="line"/>
			<point x="460.62" y="535.945"/>
			<point x="402.169" y="564.667"/>
			<point x="316.667" y="564.667" type="curve" smooth="yes"/>
			<point x="152.929" y="564.667"/>
			<point x="32.667" y="441.605"/>
		</contour>
		<contour>
			<point x="147" y="273" type="curve" smooth="yes"/>
			<point x="147" y="379.812"/>
			<point x="223.466" y="460.667"/>
			<point x="324.333" y="460.667" type="curve" smooth="yes"/>
			<point x="430.353" y="460.667"/>
			<point x="506.667" y="382.98"/>
			<point x="506.667" y="275" type="curve" smooth="yes"/>
			<point x="506.667" y="167.66"/>
			<point x="432.661" y="91"/>
			<point x="329" y="91" type="curve" smooth="yes"/>
			<point x="223.655" y="91"/>
			<point x="147" y="167.679"/>
		</contour>
	</outline>
	<anchor name="Anchor-0" x="348.333" y="627.667"/>
</glyph>
<glyph name="b" format="2">
	<unicode hex="0062"/>
	<advance width="671"/>
	<outline>
		<contour>
			<point x="57" y="0" type="line"/>
			<point x="163" y="0" type="line"/>
			<point x="163" y="78.667" type="line"/>
			<point x="216.235" y="15.439"/>
			<point x="277.524" y="-13"/>
			<point x="362.333" y="-13" type="curve" smooth="yes"/>
			<point x="521.511" y="-13"/>
			<point x="638.667" y="110.611"/>
			<point x="638.667" y="278.667" type="curve" smooth="yes"/>
			<point x="638.667" y="444.322"/>
			<point x="517.345" y="569.333"/>
			<point x="356.667" y="569.333" type="curve" smooth="yes"/>
			<point x="277.876" y="569.333"/>
			<point x="221.048" y="543.723"/>
			<point x="170.333" y="486.333" type="curve"/>
			<point x="170.333" y="739" type="line"/>
			<point x="57" y="739" type="line"/>
		</contour>
		<contour>
			<point x="345" y="91" type="curve" smooth="yes"/>
			<point x="240.924" y="91"/>
			<point x="163.333" y="170.403"/>
			<point x="163.333" y="277" type="curve" smooth="yes"/>
			<point x="163.333" y="385.438"/>
			<point x="238.766" y="465.333"/>
			<point x="341" y="465.333" type="curve" smooth="yes"/>
			<point x="448.388" y="465.333"/>
			<point x="524.333" y="387.615"/>
			<point x="524.333" y="277.667" type="curve" smooth="yes"/>
			<point x="524.333" y="168.684"/>
			<point x="449.669" y="91"/>
		</contour>
	</outline>
	<anchor name="Anchor-0" x="329" y="805"/>
</glyph>
<glyph name="c" format="2">
	<unicode hex="0063"/>
	<advance width="632"/>
	<outline>
		<contour>
			<point x="474" y="175" type="line"/>
			<point x="432.892" y="115.523"/>
			<point x="390.188" y="91"/>
			<point x="327.667" y="91" type="curve" smooth="yes"/>
			<point x="225.177" y="91"/>
			<point x="147" y="171.163"/>
			<point x="147" y="276.333" type="curve" smooth="yes"/>
			<point x="147" y="382.787"/>
			<point x="222.114" y="460.667"/>
			<point x="324.667" y="460.667" type="curve" smooth="yes"/>
			<point x="392.128" y="460.667"/>
			<point x="442.207" y="431.273"/>
			<point x="474" y="373" type="curve"/>
			<point x="601.667" y="373" type="line"/>
			<point x="557.668" y="493.014"/>
			<point x="454.177" y="564.667"/>
			<point x="325" y="564.667" type="curve" smooth="yes"/>
			<point x="161.048" y="564.667"/>
			<point x="32.667" y="438.046"/>
			<point x="32.667" y="276.333" type="curve" smooth="yes"/>
			<point x="32.667" y="114.881"/>
			<point x="163.78" y="-13"/>
			<point x="329.333" y="-13" type="curve" smooth="yes"/>
			<point x="455.34" y="-13"/>
			<point x="550.093" y="52.482"/>
			<point x="602" y="175" type="curve"/>
		</contour>
	</outline>
	<anchor name="Anchor-0" x="325" y="627.667"/>
</glyph>
<glyph name="d" format="2">
	<unicode hex="0064"/>
	<advance width="672"/>
	<outline>
		<contour>
			<point x="32.667" y="276" type="curve" smooth="yes"/>
			<point x="32.667" y="112.282"/>
			<point x="156.059" y="-13"/>
			<point x="317.333" y="-13" type="curve" smooth="yes"/>
			<point x="397.845" y="-13"/>
			<point x="453.91" y="14.527"/>
			<point x="508.667" y="81" type="curve"/>
			<point x="508.667" y="0" type="line"/>
			<point x="614.667" y="0" type="line"/>
			<point x="614.667" y="739" type="line"/>
			<point x="501.333" y="739" type="line"/>
			<point x="501.333" y="490" type="line"/>
			<point x="457.083" y="540.612"/>
			<point x="389.229" y="569.333"/>
			<point x="314.333" y="569.333" type="curve" smooth="yes"/>
			<point x="155.6" y="569.333"/>
			<point x="32.667" y="441.259"/>
		</contour>
		<contour>
			<point x="147" y="279.333" type="curve" smooth="yes"/>
			<point x="147" y="383.522"/>
			<point x="224.863" y="465.333"/>
			<point x="324" y="465.333" type="curve" smooth="yes"/>
			<point x="429.542" y="465.333"/>
			<point x="509" y="384.789"/>
			<point x="509" y="277.667" type="curve" smooth="yes"/>
			<point x="509" y="174.015"/>
			<point x="429.682" y="91"/>
			<point x="330.667" y="91" type="curve" smooth="yes"/>
			<point x="227.808" y="91"/>
			<point x="147" y="173.867"/>
		</contour>
	</outline>
	<anchor name="Anchor-0" x="334" y="805"/>
</glyph>
<glyph name="e" format="2">
	<unicode hex="0065"/>
	<advance width="639"/>
	<outline>
		<contour>
			<point x="471.333" y="169.333" type="line"/>
			<point x="438.314" y="117.69"/>
			<point x="390.676" y="91"/>
			<point x="326.333" y="91" type="curve" smooth="yes"/>
			<point x="236.388" y="91"/>
			<point x="166.069" y="147.326"/>
			<point x="153.333" y="228.333" type="curve"/>
			<point x="604" y="228.333" type="line"/>
			<point x="607.387" y="243.946"/>
			<point x="608.577" y="255.272"/>
			<point x="608.58" y="272.613" type="curve" smooth="yes"/>
			<point x="608.622" y="438.108"/>
			<point x="484.145" y="564.667"/>
			<point x="321.667" y="564.667" type="curve" smooth="yes"/>
			<point x="160.26" y="564.667"/>
			<point x="32.667" y="436.926"/>
			<point x="32.667" y="275.333" type="curve" smooth="yes"/>
			<point x="32.667" y="113.253"/>
			<point x="162.417" y="-13"/>
			<point x="329" y="-13" type="curve" smooth="yes"/>
			<point x="449.606" y="-13"/>
			<point x="558.048" y="61.674"/>
			<point x="593.667" y="169.333" type="curve"/>
		</contour>
		<contour>
			<point x="151.333" y="328.667" type="line"/>
			<point x="171.946" y="411.512"/>
			<point x="235.484" y="460.667"/>
			<point x="323" y="460.667" type="curve" smooth="yes"/>
			<point x="412.967" y="460.667"/>
			<point x="475.995" y="412.354"/>
			<point x="495.667" y="328.667" type="curve"/>
		</contour>
	</outline>
	<anchor name="Anchor-0" x="325.667" y="627.667"/>
</glyph>
<glyph name="f" format="2">
	<unicode hex="0066"/>
	<advance width="301"/>
	<outline>
		<contour>
			<point x="79" y="0" type="line"/>
			<point x="192.333" y="0" type="line"/>
			<point x="192.333" y="448.667" type="line"/>
			<point x="287.667" y="448.667" type="line"/>
			<point x="287.667" y="545" type="line"/>
			<point x="192.333" y="545" type="line"/>
			<point x="193.003" y="608.883"/>
			<point x="215.836" y="631.314"/>
			<point x="280.237" y="631.314" type="curve" smooth="yes"/>
			<point x="293" y="631.314" type="line"/>
			<point x="293" y="737.667" type="line"/>
			<point x="278.85" y="739.312"/>
			<point x="270.147" y="739.464"/>
			<point x="260.894" y="739.456" type="curve" smooth="yes"/>
			<point x="149.846" y="739.361"/>
			<point x="87.367" y="672.559"/>
			<point x="79" y="545" type="curve"/>
			<point x="18.667" y="545" type="line"/>
			<point x="18.667" y="448.667" type="line"/>
			<point x="79" y="448.667" type="line"/>
		</contour>
	</outline>
	<anchor name="Anchor-0" x="174.667" y="805"/>
</glyph>
<glyph name="g" format="2">
	<unicode hex="0067"/>
	<advance width="666"/>
	<outline>
		<contour>
			<point x="45.333" y="-35.667" type="line"/>
			<point x="88.817" y="-152.713"/>
			<point x="190.789" y="-219"/>
			<point x="327" y="-219" type="curve" smooth="yes"/>
			<point x="514.261" y="-219"/>
			<point x="609.333" y="-110.691"/>
			<point x="609.333" y="102.667" type="curve" smooth="yes"/>
			<point x="609.333" y="551.667" type="line"/>
			<point x="500" y="551.667" type="line"/>
			<point x="500" y="472.667" type="line"/>
			<point x="453.741" y="535.231"/>
			<point x="392.131" y="564.667"/>
			<point x="307.667" y="564.667" type="curve" smooth="yes"/>
			<point x="149.776" y="564.667"/>
			<point x="32.667" y="442.448"/>
			<point x="32.667" y="277.667" type="curve" smooth="yes"/>
			<point x="32.667" y="110.334"/>
			<point x="150.005" y="-13"/>
			<point x="309" y="-13" type="curve" smooth="yes"/>
			<point x="393.611" y="-13"/>
			<point x="450.707" y="16.688"/>
			<point x="499.953" y="85.667" type="curve"/>
			<point x="499.953" y="61.383" type="line" smooth="yes"/>
			<point x="499.953" y="-54.89"/>
			<point x="439.794" y="-118.333"/>
			<point x="329.667" y="-118.333" type="curve" smooth="yes"/>
			<point x="257.129" y="-118.333"/>
			<point x="213.507" y="-95.743"/>
			<point x="170" y="-35.667" type="curve"/>
		</contour>
		<contour>
			<point x="321" y="91" type="curve" smooth="yes"/>
			<point x="217.672" y="91"/>
			<point x="147" y="165.994"/>
			<point x="147" y="275.667" type="curve" smooth="yes"/>
			<point x="147" y="384.225"/>
			<point x="216.902" y="460.667"/>
			<point x="316" y="460.667" type="curve" smooth="yes"/>
			<point x="421.932" y="460.667"/>
			<point x="496" y="385.41"/>
			<point x="496" y="277.667" type="curve" smooth="yes"/>
			<point x="496" y="167.218"/>
			<point x="424.559" y="91"/>
		</contour>
	</outline>
	<anchor name="Anchor-0" x="341.667" y="627.667"/>
</glyph>
<glyph name="h" format="2">
	<unicode hex="0068"/>
	<advance width="601"/>
	<outline>
		<contour>
			<point x="57" y="0" type="line"/>
			<point x="170.333" y="0" type="line"/>
			<point x="170.333" y="287.333" type="line" smooth="yes"/>
			<point x="170.333" y="402.259"/>
			<point x="215.692" y="460.667"/>
			<point x="304" y="460.667" type="curve" smooth="yes"/>
			<point x="391.907" y="460.667"/>
			<point x="432.333" y="406.735"/>
			<point x="432.333" y="286.667" type="curve" smooth="yes"/>
			<point x="432.333" y="0" type="line"/>
			<point x="545.667" y="0" type="line"/>
			<point x="545.667" y="306.667" type="line" smooth="yes"/>
			<point x="545.667" y="476.651"/>
			<point x="468.95" y="565.333"/>
			<point x="322" y="565.333" type="curve" smooth="yes"/>
			<point x="258.759" y="565.333"/>
			<point x="209.405" y="544.721"/>
			<point x="170.333" y="502.667" type="curve"/>
			<point x="170.333" y="739" type="line"/>
			<point x="57" y="739" type="line"/>
		</contour>
	</outline>
	<anchor name="Anchor-0" x="292" y="805"/>
</glyph>
<glyph name="j" format="2">
	<unicode hex="006A"/>
	<advance width="238"/>
	<outline>
		<contour>
			<point x="-6.333" y="-187.333" type="line"/>
			<point x="42.667" y="-186.659"/>
			<point x="83.378" y="-172.184"/>
			<point x="116.333" y="-144" type="curve" smooth="yes"/>
			<point x="162.771" y="-105.257"/>
			<point x="180.667" y="-54.465"/>
			<point x="180.667" y="37.333" type="curve" smooth="yes"/>
			<point x="180.667" y="551.667" type="line"/>
			<point x="67.333" y="551.667" type="line"/>
			<point x="67.333" y="39.333" type="line" smooth="yes"/>
			<point x="67.333" y="-50.74"/>
			<point x="54.622" y="-70.01"/>
			<point x="-6.333" y="-77.667" type="curve"/>
		</contour>
		<contour>
			<point x="67.333" y="613.667" type="line"/>
			<point x="180.667" y="613.667" type="line"/>
			<point x="180.667" y="739" type="line"/>
			<point x="67.333" y="739" type="line"/>
		</contour>
	</outline>
	<anchor name="Anchor-0" x="123.667" y="805"/>
</glyph>
<glyph name="k" format="2">
	<unicode hex="006B"/>
	<advance width="539"/>
	<outline>
		<contour>
			<point x="57" y="0" type="line"/>
			<point x="170.333" y="0" type="line"/>
			<point x="170.333" y="100.414" type="line"/>
			<point x="238.898" y="190.356" type="line"/>
			<point x="385.667" y="0" type="line"/>
			<point x="535.667" y="0" type="line"/>
			<point x="306.667" y="279.333" type="line"/>
			<point x="509.667" y="551.667" type="line"/>
			<point x="373.333" y="551.667" type="line"/>
			<point x="170.333" y="267" type="line"/>
			<point x="170.333" y="739" type="line"/>
			<point x="57" y="739" type="line"/>
		</contour>
	</outline>
	<anchor name="Anchor-0" x="262.667" y="805"/>
</glyph>
<glyph name="m" format="2">
	<unicode hex="006D"/>
	<advance width="937"/>
	<outline>
		<contour>
			<point x="57" y="0" type="line"/>
			<point x="170.333" y="0" type="line"/>
			<point x="170.333" y="288.333" type="line" smooth="yes"/>
			<point x="170.333" y="406.229"/>
			<point x="209.466" y="460.667"/>
			<point x="292" y="460.667" type="curve" smooth="yes"/>
			<point x="372.903" y="460.667"/>
			<point x="412.667" y="410.948"/>
			<point x="412.667" y="309" type="curve" smooth="yes"/>
			<point x="412.667" y="0" type="line"/>
			<point x="526" y="0" type="line"/>
			<point x="526" y="287.667" type="line" smooth="yes"/>
			<point x="526" y="404.101"/>
			<point x="567.137" y="460.667"/>
			<point x="650.667" y="460.667" type="curve" smooth="yes"/>
			<point x="729.26" y="460.667"/>
			<point x="768.333" y="410.209"/>
			<point x="768.333" y="308.333" type="curve" smooth="yes"/>
			<point x="768.333" y="0" type="line"/>
			<point x="881.667" y="0" type="line"/>
			<point x="881.667" y="321.667" type="line" smooth="yes"/>
			<point x="881.667" y="479.909"/>
			<point x="804.222" y="564.667"/>
			<point x="659.667" y="564.667" type="curve" smooth="yes"/>
			<point x="579.271" y="564.667"/>
			<point x="523.781" y="536.343"/>
			<point x="478.667" y="472.333" type="curve"/>
			<point x="439.114" y="537.483"/>
			<point x="389.564" y="564.667"/>
			<point x="310.333" y="564.667" type="curve" smooth="yes"/>
			<point x="244.051" y="564.667"/>
			<point x="203.367" y="545.711"/>
			<point x="163" y="496" type="curve"/>
			<point x="163" y="551.667" type="line"/>
			<point x="57" y="551.667" type="line"/>
		</contour>
	</outline>
	<anchor name="Anchor-0" x="469" y="627.667"/>
</glyph>
<glyph name="n" format="2">
	<unicode hex="006E"/>
	<advance width="602"/>
	<outline>
		<contour>
			<point x="57" y="0" type="line"/>
			<point x="170.333" y="0" type="line"/>
			<point x="170.333" y="274.333" type="line" smooth="yes"/>
			<point x="170.333" y="401.437"/>
			<point x="213.855" y="460.667"/>
			<point x="306" y="460.667" type="curve" smooth="yes"/>
			<point x="393.466" y="460.667"/>
			<point x="433" y="404.038"/>
			<point x="433" y="276.333" type="curve" smooth="yes"/>
			<point x="433" y="0" type="line"/>
			<point x="546.333" y="0" type="line"/>
			<point x="546.333" y="293.667" type="line" smooth="yes"/>
			<point x="546.333" y="476.804"/>
			<point x="474.822" y="564.667"/>
			<point x="326.333" y="564.667" type="curve" smooth="yes"/>
			<point x="259.277" y="564.667"/>
			<point x="211.402" y="543.369"/>
			<point x="163.667" y="492.667" type="curve"/>
			<point x="163.667" y="551.667" type="line"/>
			<point x="57" y="551.667" type="line"/>
		</contour>
	</outline>
	<anchor name="Anchor-0" x="301.667" y="627.667"/>
</glyph>
<glyph name="p" format="2">
	<unicode hex="0070"/>
	<advance width="669"/>
	<outline>
		<contour>
			<point x="57" y="-187.333" type="line"/>
			<point x="170.333" y="-187.333" type="line"/>
			<point x="170.333" y="66" type="line"/>
			<point x="220.636" y="12.417"/>
			<point x="279.378" y="-13"/>
			<point x="354.667" y="-13" type="curve" smooth="yes"/>
			<point x="515.665" y="-13"/>
			<point x="636" y="110.989"/>
			<point x="636" y="277" type="curve" smooth="yes"/>
			<point x="636" y="442.558"/>
			<point x="517.109" y="564.667"/>
			<point x="356" y="564.667" type="curve" smooth="yes"/>
			<point x="274.224" y="564.667"/>
			<point x="206.758" y="534.029"/>
			<point x="163" y="477" type="curve"/>
			<point x="163" y="551.667" type="line"/>
			<point x="57" y="551.667" type="line"/>
		</contour>
		<contour>
			<point x="344.333" y="91" type="curve" smooth="yes"/>
			<point x="241.994" y="91"/>
			<point x="163.333" y="170.674"/>
			<point x="163.333" y="274.333" type="curve" smooth="yes"/>
			<point x="163.333" y="379.709"/>
			<point x="240.394" y="460.667"/>
			<point x="340.667" y="460.667" type="curve" smooth="yes"/>
			<point x="445.466" y="460.667"/>
			<point x="521.667" y="382.214"/>
			<point x="521.667" y="274.333" type="curve" smooth="yes"/>
			<point x="521.667" y="170.643"/>
			<point x="444.645" y="91"/>
		</contour>
	</outline>
	<anchor name="Anchor-0" x="330.333" y="627.667"/>
</glyph>
<glyph name="q" format="2">
	<unicode hex="0071"/>
	<advance width="669"/>
	<outline>
		<contour>
			<point x="499" y="-187.333" type="line"/>
			<point x="612.333" y="-187.333" type="line"/>
			<point x="612.333" y="551.667" type="line"/>
			<point x="506.333" y="551.667" type="line"/>
			<point x="506.333" y="473" type="line"/>
			<point x="461.589" y="535.091"/>
			<point x="399.871" y="564.667"/>
			<point x="314.667" y="564.667" type="curve" smooth="yes"/>
			<point x="156.249" y="564.667"/>
			<point x="32.667" y="438.583"/>
			<point x="32.667" y="277" type="curve" smooth="yes"/>
			<point x="32.667" y="113.136"/>
			<point x="156.197" y="-13"/>
			<point x="316.667" y="-13" type="curve" smooth="yes"/>
			<point x="392.169" y="-13"/>
			<point x="453.552" y="13.899"/>
			<point x="499" y="66.667" type="curve"/>
		</contour>
		<contour>
			<point x="327.667" y="91" type="curve" smooth="yes"/>
			<point x="224.028" y="91"/>
			<point x="147" y="169.303"/>
			<point x="147" y="274.667" type="curve" smooth="yes"/>
			<point x="147" y="379.758"/>
			<point x="224.421" y="460.667"/>
			<point x="325" y="460.667" type="curve" smooth="yes"/>
			<point x="429.78" y="460.667"/>
			<point x="506" y="382.23"/>
			<point x="506" y="274.333" type="curve" smooth="yes"/>
			<point x="506" y="169.57"/>
			<point x="429.557" y="91"/>
		</contour>
	</outline>
	<anchor name="Anchor-0" x="345.333" y="627.667"/>
</glyph>
<glyph name="r" format="2">
	<unicode hex="0072"/>
	<advance width="320"/>
	<outline>
		<contour>
			<point x="57" y="0" type="line"/>
			<point x="170.333" y="0" type="line"/>
			<point x="170.333" y="311.667" type="line" smooth="yes"/>
			<point x="170.333" y="403.638"/>
			<point x="214.223" y="451.661"/>
			<point x="301.333" y="455" type="curve"/>
			<point x="301.333" y="564.667" type="line"/>
			<point x="229.262" y="563.324"/>
			<point x="196.795" y="545.476"/>
			<point x="163" y="489.667" type="curve"/>
			<point x="163" y="551.667" type="line"/>
			<point x="57" y="551.667" type="line"/>
		</contour>
	</outline>
	<anchor name="Anchor-0" x="174.667" y="627.667"/>
</glyph>
<glyph name="s" format="2">
	<unicode hex="0073"/>
	<advance width="421"/>
	<outline>
		<contour>
			<point x="16" y="171" type="line"/>
			<point x="23.988" y="56.095"/>
			<point x="96.78" y="-13"/>
			<point x="210" y="-13" type="curve" smooth="yes"/>
			<point x="316.889" y="-13"/>
			<point x="397.667" y="65.552"/>
			<point x="397.667" y="169.667" type="curve" smooth="yes"/>
			<point x="397.667" y="247.986"/>
			<point x="354.863" y="295.247"/>
			<point x="252.639" y="328.4" type="curve" smooth="yes"/>
			<point x="206.334" y="343.961"/>
			<point x="149.667" y="362.891"/>
			<point x="149.667" y="405.647" type="curve" smooth="yes"/>
			<point x="149.667" y="437.485"/>
			<point x="175.081" y="460.667"/>
			<point x="210" y="460.667" type="curve" smooth="yes"/>
			<point x="244.758" y="460.667"/>
			<point x="266.02" y="441.24"/>
			<point x="271.334" y="404.667" type="curve"/>
			<point x="383" y="404.667" type="line"/>
			<point x="379.098" y="499.273"/>
			<point x="308.524" y="564.667"/>
			<point x="210.334" y="564.667" type="curve" smooth="yes"/>
			<point x="110.396" y="564.667"/>
			<point x="36" y="494.769"/>
			<point x="36" y="400.667" type="curve" smooth="yes"/>
			<point x="36" y="322.867"/>
			<point x="76.473" y="279.785"/>
			<point x="186" y="241" type="curve" smooth="yes"/>
			<point x="236.735" y="222.523"/>
			<point x="284" y="206.74"/>
			<point x="284" y="158.667" type="curve" smooth="yes"/>
			<point x="284" y="119.373"/>
			<point x="254.359" y="91"/>
			<point x="213.334" y="91" type="curve" smooth="yes"/>
			<point x="166.684" y="91"/>
			<point x="139.676" y="116.978"/>
			<point x="129.667" y="171" type="curve"/>
		</contour>
	</outline>
	<anchor name="Anchor-0" x="211.333" y="627.667"/>
</glyph>
<glyph name="t" format="2">
	<unicode hex="0074"/>
	<advance width="315"/>
	<outline>
		<contour>
			<point x="95.333" y="0" type="line"/>
			<point x="208.667" y="0" type="line"/>
			<point x="208.667" y="448.667" type="line"/>
			<point x="303" y="448.667" type="line"/>
			<point x="303" y="551.667" type="line"/>
			<point x="208.667" y="551.667" type="line"/>
			<point x="208.667" y="739" type="line"/>
			<point x="95.333" y="739" type="line"/>
			<point x="95.333" y="551.667" type="line"/>
			<point x="12.667" y="551.667" type="line"/>
			<point x="12.667" y="448.667" type="line"/>
			<point x="95.333" y="448.667" type="line"/>
		</contour>
	</outline>
	<anchor name="Anchor-0" x="152.667" y="805"/>
</glyph>
<glyph name="u" format="2">
	<unicode hex="0075"/>
	<advance width="602"/>
	<outline>
		<contour>
			<point x="438.333" y="0" type="line"/>
			<point x="545" y="0" type="line"/>
			<point x="545" y="551.667" type="line"/>
			<point x="431.667" y="551.667" type="line"/>
			<point x="431.667" y="284" type="line" smooth="yes"/>
			<point x="431.667" y="149.619"/>
			<point x="389.147" y="91"/>
			<point x="293.333" y="91" type="curve" smooth="yes"/>
			<point x="207.431" y="91"/>
			<point x="169" y="146.599"/>
			<point x="169" y="272.667" type="curve" smooth="yes"/>
			<point x="169" y="551.667" type="line"/>
			<point x="55.667" y="551.667" type="line"/>
			<point x="55.667" y="255.333" type="line" smooth="yes"/>
			<point x="55.667" y="78.526"/>
			<point x="130.052" y="-13"/>
			<point x="273.667" y="-13" type="curve" smooth="yes"/>
			<point x="346.702" y="-13"/>
			<point x="392.02" y="8.361"/>
			<point x="438.333" y="63.667" type="curve"/>
		</contour>
	</outline>
	<anchor name="Anchor-0" x="300" y="627.667"/>
</glyph>
<glyph name="v" format="2">
	<unicode hex="0076"/>
	<advance width="557"/>
	<outline>
		<contour>
			<point x="230" y="0" type="line"/>
			<point x="326.667" y="0" type="line"/>
			<point x="552" y="551.667" type="line"/>
			<point x="427" y="551.667" type="line"/>
			<point x="277.667" y="153.667" type="line"/>
			<point x="128.333" y="551.667" type="line"/>
			<point x="4.667" y="551.667" type="line"/>
		</contour>
	</outline>
	<anchor name="Anchor-0" x="278.333" y="627.667"/>
</glyph>
<glyph name="w" format="2">
	<unicode hex="0077"/>
	<advance width="798"/>
	<outline>
		<contour>
			<point x="206" y="0" type="line"/>
			<point x="287.333" y="0" type="line"/>
			<point x="398" y="360.333" type="line"/>
			<point x="507.667" y="0" type="line"/>
			<point x="589.333" y="0" type="line"/>
			<point x="793.333" y="551.667" type="line"/>
			<point x="674.667" y="551.667" type="line"/>
			<point x="548" y="173.667" type="line"/>
			<point x="444.333" y="529.333" type="line"/>
			<point x="353.333" y="529.333" type="line"/>
			<point x="248.333" y="173.667" type="line"/>
			<point x="124.333" y="551.667" type="line"/>
			<point x="4.333" y="551.667" type="line"/>
		</contour>
	</outline>
	<anchor name="Anchor-0" x="398.333" y="627.667"/>
</glyph>
<glyph name="x" format="2">
	<unicode hex="0078"/>
	<advance width="532"/>
	<outline>
		<contour>
			<point x="4.667" y="0" type="line"/>
			<point x="139.333" y="0" type="line"/>
			<point x="266" y="199.667" type="line"/>
			<point x="392.333" y="0" type="line"/>
			<point x="527.333" y="0" type="line"/>
			<point x="332.333" y="283.667" type="line"/>
			<point x="508.667" y="551.667" type="line"/>
			<point x="380.333" y="551.667" type="line"/>
			<point x="266" y="370" type="line"/>
			<point x="150" y="551.667" type="line"/>
			<point x="22" y="551.667" type="line"/>
			<point x="198.667" y="283.667" type="line"/>
		</contour>
	</outline>
	<anchor name="Anchor-0" x="266" y="627.667"/>
</glyph>
<glyph name="y" format="2">
	<unicode hex="0079"/>
	<advance width="557"/>
	<outline>
		<contour>
			<point x="112" y="-187.333" type="line"/>
			<point x="233.667" y="-187.333" type="line"/>
			<point x="552.333" y="551.667" type="line"/>
			<point x="424" y="551.667" type="line"/>
			<point x="273" y="167" type="line"/>
			<point x="133.333" y="551.667" type="line"/>
			<point x="5" y="551.667" type="line"/>
			<point x="211" y="40.667" type="line"/>
		</contour>
	</outline>
	<anchor name="Anchor-0" x="277.667" y="627.667"/>
</glyph>
<glyph name="z" format="2">
	<unicode hex="007A"/>
	<advance width="463"/>
	<outline>
		<contour>
			<point x="23.333" y="0" type="line"/>
			<point x="439.667" y="0" type="line"/>
			<point x="439.667" y="101.667" type="line"/>
			<point x="158.333" y="101.667" type="line"/>
			<point x="420.667" y="451.333" type="line"/>
			<point x="420.667" y="551.667" type="line"/>
			<point x="45.333" y="551.667" type="line"/>
			<point x="45.333" y="450" type="line"/>
			<point x="286.667" y="450" type="line"/>
			<point x="23.333" y="101.667" type="line"/>
		</contour>
	</outline>
	<anchor name="Anchor-0" x="231.333" y="627.667"/>
</glyph>
<glyph name="braceleft" format="2">
	<unicode hex="007B"/>
	<advance width="340"/>
	<outline>
		<contour>
			<point x="300.667" y="-51.667" type="line"/>
			<point x="233.139" y="-47.682"/>
			<point x="222" y="-35.441"/>
			<point x="222" y="40" type="curve" smooth="yes"/>
			<point x="222" y="178.667" type="line" smooth="yes"/>
			<point x="222" y="254.691"/>
			<point x="200.646" y="285.965"/>
			<point x="136" y="305.333" type="curve"/>
			<point x="203.027" y="326.999"/>
			<point x="222" y="354.808"/>
			<point x="222" y="433" type="curve" smooth="yes"/>
			<point x="222" y="571.667" type="line" smooth="yes"/>
			<point x="222" y="645.758"/>
			<point x="234.622" y="659.349"/>
			<point x="300.667" y="663.333" type="curve"/>
			<point x="300.667" y="739" type="line"/>
			<point x="175.334" y="739"/>
			<point x="126.333" y="700.376"/>
			<point x="126.333" y="600.667" type="curve" smooth="yes"/>
			<point x="126.333" y="439.333" type="line" smooth="yes"/>
			<point x="126.333" y="378.378"/>
			<point x="104.729" y="352.631"/>
			<point x="46" y="344.333" type="curve"/>
			<point x="46" y="267.333" type="line"/>
			<point x="104.905" y="258.67"/>
			<point x="126.333" y="233.122"/>
			<point x="126.333" y="172.333" type="curve" smooth="yes"/>
			<point x="126.333" y="11" type="line" smooth="yes"/>
			<point x="126.333" y="-88.965"/>
			<point x="175.048" y="-127.333"/>
			<point x="300.667" y="-127.333" type="curve"/>
		</contour>
	</outline>
</glyph>
<glyph name="asciitilde" format="2">
	<unicode hex="007E"/>
	<advance width="602"/>
	<outline>
		<contour>
			<point x="105" y="212.667" type="line"/>
			<point x="132.699" y="258.672"/>
			<point x="159.533" y="296.667"/>
			<point x="196.667" y="296.667" type="curve" smooth="yes"/>
			<point x="212.288" y="296.667"/>
			<point x="222.476" y="293.665"/>
			<point x="263.667" y="277" type="curve" smooth="yes"/>
			<point x="318" y="255" type="line" smooth="yes"/>
			<point x="357.259" y="238.655"/>
			<point x="388.283" y="230.333"/>
			<point x="409.667" y="230.333" type="curve" smooth="yes"/>
			<point x="462.447" y="230.333"/>
			<point x="506.786" y="265.984"/>
			<point x="553" y="345.667" type="curve"/>
			<point x="495.667" y="410.667" type="line"/>
			<point x="468.186" y="360.941"/>
			<point x="439.168" y="334"/>
			<point x="412.667" y="334" type="curve" smooth="yes"/>
			<point x="394.74" y="334"/>
			<point x="383.905" y="337.919"/>
			<point x="338.667" y="356.333" type="curve" smooth="yes"/>
			<point x="272.333" y="383.333" type="line" smooth="yes"/>
			<point x="245.318" y="394.346"/>
			<point x="218.107" y="400.333"/>
			<point x="195.333" y="400.333" type="curve" smooth="yes"/>
			<point x="126.046" y="400.333"/>
			<point x="87.701" y="345.8"/>
			<point x="49" y="278.333" type="curve"/>
		</contour>
	</outline>
</glyph>
<glyph name="exclamdown" format="2">
	<unicode hex="00A1"/>
	<advance width="312"/>
	<outline>
		<contour>
			<point x="99.667" y="-187.333" type="line"/>
			<point x="213" y="-187.333" type="line"/>
			<point x="213" y="361.333" type="line"/>
			<point x="99.667" y="361.333" type="line"/>
		</contour>
		<contour>
			<point x="99.667" y="424.333" type="line"/>
			<point x="213" y="424.333" type="line"/>
			<point x="213" y="551.667" type="line"/>
			<point x="99.667" y="551.667" type="line"/>
		</contour>
	</outline>
</glyph>
<glyph name="cent" format="2">
	<unicode hex="00A2"/>
	<advance width="558"/>
	<outline>
		<contour>
			<point x="235" y="46.667" type="line"/>
			<point x="340.333" y="46.667" type="line"/>
			<point x="340.333" y="149" type="line"/>
			<point x="420.482" y="166.691"/>
			<point x="480.053" y="219.808"/>
			<point x="511.667" y="303.333" type="curve"/>
			<point x="387.333" y="303.333" type="line"/>
			<point x="355.75" y="267.425"/>
			<point x="325.121" y="252.333"/>
			<point x="284" y="252.333" type="curve" smooth="yes"/>
			<point x="212.139" y="252.333"/>
			<point x="157.667" y="307.53"/>
			<point x="157.667" y="380.333" type="curve" smooth="yes"/>
			<point x="157.667" y="453.821"/>
			<point x="210.479" y="508.333"/>
			<point x="281.667" y="508.333" type="curve" smooth="yes"/>
			<point x="327.141" y="508.333"/>
			<point x="367.565" y="486.82"/>
			<point x="391.333" y="449.667" type="curve"/>
			<point x="513.667" y="449.667" type="line"/>
			<point x="491.875" y="532.182"/>
			<point x="425.801" y="594.12"/>
			<point x="340.333" y="612" type="curve"/>
			<point x="340.333" y="712.333" type="line"/>
			<point x="235" y="712.333" type="line"/>
			<point x="235" y="612" type="line"/>
			<point x="118.841" y="588.416"/>
			<point x="44.333" y="498.492"/>
			<point x="44.333" y="381.333" type="curve" smooth="yes"/>
			<point x="44.333" y="263.072"/>
			<point x="122.499" y="168.058"/>
			<point x="235" y="149" type="curve"/>
		</contour>
	</outline>
</glyph>
<glyph name="sterling" format="2">
	<unicode hex="00A3"/>
	<advance width="582"/>
	<outline>
		<contour>
			<point x="47" y="0" type="line"/>
			<point x="315.333" y="0" type="line" smooth="yes"/>
			<point x="476.723" y="0"/>
			<point x="572.667" y="81.65"/>
			<point x="572.667" y="219" type="curve" smooth="yes"/>
			<point x="572.667" y="236.981"/>
			<point x="570.283" y="249.474"/>
			<point x="562.667" y="272" type="curve"/>
			<point x="450.667" y="272" type="line"/>
			<point x="457.301" y="248.794"/>
			<point x="459.333" y="236.372"/>
			<point x="459.333" y="219.667" type="curve" smooth="yes"/>
			<point x="459.333" y="148.147"/>
			<point x="411.762" y="105.701"/>
			<point x="331.478" y="105.701" type="curve" smooth="yes"/>
			<point x="308.333" y="105.701" type="line"/>
			<point x="320.823" y="137.629"/>
			<point x="326.667" y="166.999"/>
			<point x="326.667" y="194.667" type="curve" smooth="yes"/>
			<point x="326.667" y="237.778"/>
			<point x="313.271" y="274.492"/>
			<point x="281.333" y="322.333" type="curve"/>
			<point x="424.333" y="322.333" type="line"/>
			<point x="424.333" y="428" type="line"/>
			<point x="191.667" y="428" type="line"/>
			<point x="171.76" y="456.086"/>
			<point x="164.333" y="478.286"/>
			<point x="164.333" y="511.667" type="curve" smooth="yes"/>
			<point x="164.333" y="590.231"/>
			<point x="217.574" y="648.333"/>
			<point x="289.667" y="648.333" type="curve" smooth="yes"/>
			<point x="352.669" y="648.333"/>
			<point x="398.424" y="608.956"/>
			<point x="414.333" y="541" type="curve"/>
			<point x="527.333" y="541" type="line"/>
			<point x="515.324" y="666.441"/>
			<point x="418.558" y="752"/>
			<point x="288.667" y="752" type="curve" smooth="yes"/>
			<point x="153.76" y="752"/>
			<point x="51" y="649.425"/>
			<point x="51" y="514.667" type="curve" smooth="yes"/>
			<point x="51" y="482.82"/>
			<point x="55.95" y="459.769"/>
			<point x="69.667" y="428" type="curve"/>
			<point x="6" y="428" type="line"/>
			<point x="6" y="322.333" type="line"/>
			<point x="142.667" y="322.333" type="line"/>
			<point x="196.282" y="273.042"/>
			<point x="213.333" y="241.366"/>
			<point x="213.333" y="192.333" type="curve" smooth="yes"/>
			<point x="213.333" y="159.844"/>
			<point x="204.277" y="131.096"/>
			<point x="186" y="105.667" type="curve"/>
			<point x="47" y="105.667" type="line"/>
		</contour>
	</outline>
</glyph>
<glyph name="currency" format="2">
	<unicode hex="00A4"/>
	<advance width="558"/>
	<outline>
		<contour>
			<point x="98.667" y="118" type="line"/>
			<point x="142" y="160" type="line"/>
			<point x="186.675" y="131.662"/>
			<point x="230.342" y="118.667"/>
			<point x="279.333" y="118.667" type="curve" smooth="yes"/>
			<point x="328.078" y="118.667"/>
			<point x="370.435" y="131.204"/>
			<point x="417.333" y="160" type="curve"/>
			<point x="460.333" y="118" type="line"/>
			<point x="529.667" y="189" type="line"/>
			<point x="487.667" y="231.667" type="line"/>
			<point x="517.36" y="274.584"/>
			<point x="528.667" y="311.424"/>
			<point x="528.667" y="366" type="curve" smooth="yes"/>
			<point x="528.667" y="419.754"/>
			<point x="518.617" y="454.112"/>
			<point x="488.667" y="503.333" type="curve"/>
			<point x="530.333" y="546" type="line"/>
			<point x="461" y="618.333" type="line"/>
			<point x="416.667" y="575.667" type="line"/>
			<point x="373.707" y="602.464"/>
			<point x="329.737" y="615"/>
			<point x="278.667" y="615" type="curve" smooth="yes"/>
			<point x="228.906" y="615"/>
			<point x="189.562" y="603.479"/>
			<point x="143.667" y="575.333" type="curve"/>
			<point x="99.333" y="618.667" type="line"/>
			<point x="27.667" y="547.333" type="line"/>
			<point x="70.333" y="503.333" type="line"/>
			<point x="39.544" y="449.805"/>
			<point x="30.667" y="419.908"/>
			<point x="30.667" y="367.667" type="curve" smooth="yes"/>
			<point x="30.667" y="315.572"/>
			<point x="39.853" y="284.295"/>
			<point x="70" y="232.333" type="curve"/>
			<point x="28.333" y="190" type="line"/>
		</contour>
		<contour>
			<point x="134.333" y="368" type="curve" smooth="yes"/>
			<point x="134.333" y="447.737"/>
			<point x="198.741" y="511.667"/>
			<point x="279" y="511.667" type="curve" smooth="yes"/>
			<point x="362.057" y="511.667"/>
			<point x="423.667" y="449.611"/>
			<point x="423.667" y="366" type="curve" smooth="yes"/>
			<point x="423.667" y="285.829"/>
			<point x="360.495" y="222.667"/>
			<point x="280.333" y="222.667" type="curve" smooth="yes"/>
			<point x="198.643" y="222.667"/>
			<point x="134.333" y="286.69"/>
		</contour>
	</outline>
</glyph>
<glyph name="yen" format="2">
	<unicode hex="00A5"/>
	<advance width="558"/>
	<outline>
		<contour>
			<point x="26.667" y="203.667" type="line"/>
			<point x="227.333" y="203.667" type="line"/>
			<point x="227.333" y="0" type="line"/>
			<point x="340.333" y="0" type="line"/>
			<point x="340.333" y="203.667" type="line"/>
			<point x="540.333" y="203.667" type="line"/>
			<point x="540.333" y="284.667" type="line"/>
			<point x="349" y="284.667" type="line"/>
			<point x="403" y="385.333" type="line"/>
			<point x="542.667" y="385.333" type="line"/>
			<point x="542.667" y="466.333" type="line"/>
			<point x="447" y="466.333" type="line"/>
			<point x="591" y="739" type="line"/>
			<point x="463" y="739" type="line"/>
			<point x="283.667" y="374.333" type="line"/>
			<point x="103.333" y="739" type="line"/>
			<point x="-21.333" y="739" type="line"/>
			<point x="122" y="466.333" type="line"/>
			<point x="24.333" y="466.333" type="line"/>
			<point x="24.333" y="385.333" type="line"/>
			<point x="164.667" y="385.333" type="line"/>
			<point x="218.333" y="284.667" type="line"/>
			<point x="26.667" y="284.667" type="line"/>
		</contour>
	</outline>
</glyph>
<glyph name="section" format="2">
	<unicode hex="00A7"/>
	<advance width="578"/>
	<outline>
		<contour>
			<point x="72" y="58" type="line"/>
			<point x="80.812" y="-70.234"/>
			<point x="166.777" y="-151.667"/>
			<point x="293.667" y="-151.667" type="curve" smooth="yes"/>
			<point x="413.554" y="-151.667"/>
			<point x="499.667" y="-74.435"/>
			<point x="499.667" y="33" type="curve" smooth="yes"/>
			<point x="499.667" y="79.428"/>
			<point x="485.099" y="113.573"/>
			<point x="450.333" y="148.667" type="curve"/>
			<point x="498.672" y="185.004"/>
			<point x="525.667" y="236.007"/>
			<point x="525.667" y="291" type="curve" smooth="yes"/>
			<point x="525.667" y="350.505"/>
			<point x="491.199" y="402.056"/>
			<point x="431.333" y="431" type="curve" smooth="yes"/>
			<point x="269.333" y="509.667" type="line" smooth="yes"/>
			<point x="229.848" y="528.846"/>
			<point x="209" y="554.719"/>
			<point x="209" y="584.333" type="curve" smooth="yes"/>
			<point x="209" y="623.111"/>
			<point x="240.351" y="648.333"/>
			<point x="289" y="648.333" type="curve" smooth="yes"/>
			<point x="342.85" y="648.333"/>
			<point x="371.7" y="626.167"/>
			<point x="381.333" y="577.333" type="curve"/>
			<point x="489" y="577.333" type="line"/>
			<point x="475.958" y="689.009"/>
			<point x="404.996" y="752"/>
			<point x="293" y="752" type="curve" smooth="yes"/>
			<point x="180.747" y="752"/>
			<point x="101.667" y="683.729"/>
			<point x="101.667" y="587" type="curve" smooth="yes"/>
			<point x="101.667" y="549.419"/>
			<point x="110.59" y="522.388"/>
			<point x="133" y="492.333" type="curve"/>
			<point x="76.908" y="451.268"/>
			<point x="52.333" y="406.235"/>
			<point x="52.333" y="344.333" type="curve" smooth="yes"/>
			<point x="52.333" y="276.184"/>
			<point x="83.35" y="230.399"/>
			<point x="156" y="193.667" type="curve" smooth="yes"/>
			<point x="312.333" y="114.333" type="line" smooth="yes"/>
			<point x="374.264" y="82.996"/>
			<point x="392.333" y="64.164"/>
			<point x="392.333" y="31.667" type="curve" smooth="yes"/>
			<point x="392.333" y="-14.08"/>
			<point x="350.663" y="-48"/>
			<point x="294.333" y="-48" type="curve" smooth="yes"/>
			<point x="226.184" y="-48"/>
			<point x="186.005" y="-9.315"/>
			<point x="184" y="58" type="curve"/>
		</contour>
		<contour>
			<point x="377.667" y="204" type="curve"/>
			<point x="211" y="286.667" type="line" smooth="yes"/>
			<point x="170.336" y="306.907"/>
			<point x="153" y="326.736"/>
			<point x="153" y="352.667" type="curve" smooth="yes"/>
			<point x="153" y="379.763"/>
			<point x="167.352" y="403.755"/>
			<point x="198" y="426.667" type="curve"/>
			<point x="360" y="347.667" type="line" smooth="yes"/>
			<point x="405.056" y="325.604"/>
			<point x="420.333" y="307.502"/>
			<point x="420.333" y="278.667" type="curve" smooth="yes"/>
			<point x="420.333" y="251.298"/>
			<point x="403.963" y="222.642"/>
		</contour>
	</outline>
</glyph>
<glyph name="dieresis" format="2">
	<unicode hex="00A8"/>
	<advance width="437"/>
	<outline>
		<contour>
			<point x="67.333" y="627.667" type="line"/>
			<point x="180.667" y="627.667" type="line"/>
			<point x="180.667" y="758.333" type="line"/>
			<point x="67.333" y="758.333" type="line"/>
		</contour>
		<contour>
			<point x="256.333" y="627.667" type="line"/>
			<point x="369.667" y="627.667" type="line"/>
			<point x="369.667" y="758.333" type="line"/>
			<point x="256.333" y="758.333" type="line"/>
		</contour>
	</outline>
</glyph>
<glyph name="copyright" format="2">
	<unicode hex="00A9"/>
	<advance width="776"/>
	<outline>
		<contour>
			<point x="176.333" y="372" type="curve" smooth="yes"/>
			<point x="176.333" y="250.936"/>
			<point x="273.399" y="154"/>
			<point x="394.667" y="154" type="curve" smooth="yes"/>
			<point x="489.534" y="154"/>
			<point x="569.376" y="211.529"/>
			<point x="598.667" y="300.333" type="curve"/>
			<point x="499.667" y="300.333" type="line"/>
			<point x="474.362" y="256.99"/>
			<point x="438.349" y="234.667"/>
			<point x="393.667" y="234.667" type="curve" smooth="yes"/>
			<point x="323.223" y="234.667"/>
			<point x="266.667" y="296.085"/>
			<point x="266.667" y="372.667" type="curve" smooth="yes"/>
			<point x="266.667" y="449.109"/>
			<point x="322.455" y="508.667"/>
			<point x="394" y="508.667" type="curve" smooth="yes"/>
			<point x="439.925" y="508.667"/>
			<point x="478.933" y="483.394"/>
			<point x="501" y="440.333" type="curve"/>
			<point x="599.667" y="440.333" type="line"/>
			<point x="574.989" y="527.277"/>
			<point x="490.395" y="589.333"/>
			<point x="394.333" y="589.333" type="curve" smooth="yes"/>
			<point x="272.144" y="589.333"/>
			<point x="176.333" y="493.81"/>
		</contour>
		<contour>
			<point x="3.667" y="369" type="curve" smooth="yes"/>
			<point x="3.667" y="158.069"/>
			<point x="175.93" y="-13"/>
			<point x="388.333" y="-13" type="curve" smooth="yes"/>
			<point x="600.219" y="-13"/>
			<point x="772.333" y="158.217"/>
			<point x="772.333" y="369" type="curve" smooth="yes"/>
			<point x="772.333" y="578.912"/>
			<point x="600.753" y="752"/>
			<point x="392.667" y="752" type="curve" smooth="yes"/>
			<point x="175.157" y="752"/>
			<point x="3.667" y="583.155"/>
		</contour>
		<contour>
			<point x="75.667" y="369.667" type="curve" smooth="yes"/>
			<point x="75.667" y="541.2"/>
			<point x="215.534" y="683.333"/>
			<point x="384.333" y="683.333" type="curve" smooth="yes"/>
			<point x="561.132" y="683.333"/>
			<point x="700.333" y="544.867"/>
			<point x="700.333" y="369" type="curve" smooth="yes"/>
			<point x="700.333" y="197.368"/>
			<point x="560.032" y="57.667"/>
			<point x="387.667" y="57.667" type="curve" smooth="yes"/>
			<point x="215.667" y="57.667"/>
			<point x="75.667" y="197.666"/>
		</contour>
	</outline>
</glyph>
<glyph name="ordfeminine" format="2">
	<unicode hex="00AA"/>
	<advance width="378"/>
	<outline>
		<contour>
			<point x="277.667" y="443.333" type="line"/>
			<point x="337.667" y="443.333" type="line"/>
			<point x="337.667" y="739" type="line"/>
			<point x="277.667" y="739" type="line"/>
			<point x="277.667" y="698" type="line"/>
			<point x="254.208" y="730.394"/>
			<point x="218.987" y="748.333"/>
			<point x="179" y="748.333" type="curve" smooth="yes"/>
			<point x="96.14" y="748.333"/>
			<point x="30.333" y="679.453"/>
			<point x="30.333" y="592.667" type="curve" smooth="yes"/>
			<point x="30.333" y="504.418"/>
			<point x="94.594" y="434.333"/>
			<point x="175.333" y="434.333" type="curve" smooth="yes"/>
			<point x="217.048" y="434.333"/>
			<point x="251.033" y="451.374"/>
			<point x="277.667" y="485.667" type="curve"/>
		</contour>
		<contour>
			<point x="186" y="500" type="curve" smooth="yes"/>
			<point x="138.245" y="500"/>
			<point x="98.667" y="541.091"/>
			<point x="98.667" y="590.667" type="curve" smooth="yes"/>
			<point x="98.667" y="640.379"/>
			<point x="138.38" y="682.667"/>
			<point x="185" y="682.667" type="curve" smooth="yes"/>
			<point x="234.467" y="682.667"/>
			<point x="272.667" y="642.861"/>
			<point x="272.667" y="591.333" type="curve" smooth="yes"/>
			<point x="272.667" y="540.7"/>
			<point x="234.031" y="500"/>
		</contour>
		<contour>
			<point x="32.333" y="313" type="line"/>
			<point x="342.333" y="313" type="line"/>
			<point x="342.333" y="376.667" type="line"/>
			<point x="32.333" y="376.667" type="line"/>
		</contour>
	</outline>
</glyph>
<glyph name="guillemotleft" format="2">
	<unicode hex="00AB"/>
	<advance width="448"/>
	<outline>
		<contour>
			<point x="173.667" y="105" type="line"/>
			<point x="193.333" y="198" type="line"/>
			<point x="117.333" y="292.667" type="line"/>
			<point x="193.333" y="386.333" type="line"/>
			<point x="173.667" y="479" type="line"/>
			<point x="43.241" y="326.598" type="line"/>
			<point x="43.333" y="258.333" type="line"/>
		</contour>
		<contour>
			<point x="373.333" y="105" type="line"/>
			<point x="393" y="198" type="line"/>
			<point x="317" y="292.667" type="line"/>
			<point x="393" y="386.333" type="line"/>
			<point x="373.333" y="479" type="line"/>
			<point x="242.257" y="326.598" type="line"/>
			<point x="242.333" y="258.333" type="line"/>
		</contour>
	</outline>
</glyph>
<glyph name="logicalnot" format="2">
	<unicode hex="00AC"/>
	<advance width="602"/>
	<outline>
		<contour>
			<point x="46.333" y="360.333" type="line"/>
			<point x="450.333" y="360.333" type="line"/>
			<point x="450.333" y="170.667" type="line"/>
			<point x="550.333" y="170.667" type="line"/>
			<point x="550.333" y="460.667" type="line"/>
			<point x="46.333" y="460.667" type="line"/>
		</contour>
	</outline>
</glyph>
<glyph name="registered" format="2">
	<unicode hex="00AE"/>
	<advance width="776"/>
	<outline>
		<contour>
			<point x="250" y="163" type="line"/>
			<point x="337.667" y="163" type="line"/>
			<point x="337.667" y="319.667" type="line"/>
			<point x="450" y="163" type="line"/>
			<point x="556" y="163" type="line"/>
			<point x="441" y="310.333" type="line"/>
			<point x="509.997" y="321.333"/>
			<point x="550.667" y="369.996"/>
			<point x="550.667" y="440.667" type="curve" smooth="yes"/>
			<point x="550.667" y="532.995"/>
			<point x="492.837" y="581"/>
			<point x="381.333" y="581" type="curve" smooth="yes"/>
			<point x="250" y="581" type="line"/>
		</contour>
		<contour>
			<point x="337.667" y="369.667" type="line"/>
			<point x="337.667" y="499.667" type="line"/>
			<point x="385.333" y="499.667" type="line" smooth="yes"/>
			<point x="433.858" y="499.667"/>
			<point x="462.333" y="476.117"/>
			<point x="462.333" y="436" type="curve" smooth="yes"/>
			<point x="462.333" y="393.311"/>
			<point x="431.968" y="369.667"/>
			<point x="377" y="369.667" type="curve" smooth="yes"/>
		</contour>
		<contour>
			<point x="3.667" y="369" type="curve" smooth="yes"/>
			<point x="3.667" y="158.069"/>
			<point x="175.93" y="-13"/>
			<point x="388.333" y="-13" type="curve" smooth="yes"/>
			<point x="600.219" y="-13"/>
			<point x="772.333" y="158.217"/>
			<point x="772.333" y="369" type="curve" smooth="yes"/>
			<point x="772.333" y="578.912"/>
			<point x="600.753" y="752"/>
			<point x="392.667" y="752" type="curve" smooth="yes"/>
			<point x="175.157" y="752"/>
			<point x="3.667" y="583.155"/>
		</contour>
		<contour>
			<point x="75.667" y="369.667" type="curve" smooth="yes"/>
			<point x="75.667" y="541.2"/>
			<point x="215.534" y="683.333"/>
			<point x="384.333" y="683.333" type="curve" smooth="yes"/>
			<point x="561.132" y="683.333"/>
			<point x="700.333" y="544.867"/>
			<point x="700.333" y="369" type="curve" smooth="yes"/>
			<point x="700.333" y="197.368"/>
			<point x="560.032" y="57.667"/>
			<point x="387.667" y="57.667" type="curve" smooth="yes"/>
			<point x="215.667" y="57.667"/>
			<point x="75.667" y="197.666"/>
		</contour>
	</outline>
</glyph>
<glyph name="macron" format="2">
	<unicode hex="00AF"/>
	<advance width="432"/>
	<outline>
		<contour>
			<point x="67.333" y="646.333" type="line"/>
			<point x="364.333" y="646.333" type="line"/>
			<point x="364.333" y="734.333" type="line"/>
			<point x="67.333" y="734.333" type="line"/>
		</contour>
	</outline>
</glyph>
<glyph name="plusminus" format="2">
	<unicode hex="00B1"/>
	<advance width="602"/>
	<outline>
		<contour>
			<point x="49" y="325" type="line"/>
			<point x="248.333" y="325" type="line"/>
			<point x="248.333" y="158" type="line"/>
			<point x="354" y="158" type="line"/>
			<point x="354" y="325" type="line"/>
			<point x="553" y="325" type="line"/>
			<point x="553" y="428.333" type="line"/>
			<point x="354" y="428.333" type="line"/>
			<point x="354" y="630.333" type="line"/>
			<point x="248.333" y="630.333" type="line"/>
			<point x="248.333" y="428.333" type="line"/>
			<point x="49" y="428.333" type="line"/>
		</contour>
		<contour>
			<point x="49" y="0" type="line"/>
			<point x="553" y="0" type="line"/>
			<point x="553" y="103.333" type="line"/>
			<point x="49" y="103.333" type="line"/>
		</contour>
	</outline>
</glyph>
<glyph name="twosuperior" format="2">
	<unicode hex="00B2"/>
	<advance width="335"/>
	<outline>
		<contour>
			<point x="12.667" y="293.333" type="line"/>
			<point x="322" y="293.333" type="line"/>
			<point x="322" y="365" type="line"/>
			<point x="129" y="365" type="line"/>
			<point x="236" y="455.333" type="line" smooth="yes"/>
			<point x="296.323" y="505.828"/>
			<point x="324" y="552.218"/>
			<point x="324" y="602.667" type="curve" smooth="yes"/>
			<point x="324" y="684.655"/>
			<point x="257.347" y="747"/>
			<point x="169.667" y="747" type="curve" smooth="yes"/>
			<point x="71.858" y="747"/>
			<point x="12" y="684.487"/>
			<point x="12" y="582.333" type="curve"/>
			<point x="90" y="582.333" type="line"/>
			<point x="90.662" y="642.042"/>
			<point x="119.424" y="676"/>
			<point x="169.333" y="676" type="curve" smooth="yes"/>
			<point x="211.875" y="676"/>
			<point x="245" y="644.785"/>
			<point x="245" y="604.667" type="curve" smooth="yes"/>
			<point x="245" y="574.792"/>
			<point x="230.725" y="553.354"/>
			<point x="180.333" y="508.333" type="curve" smooth="yes"/>
			<point x="12.667" y="359.667" type="line"/>
		</contour>
	</outline>
</glyph>
<glyph name="threesuperior" format="2">
	<unicode hex="00B3"/>
	<advance width="335"/>
	<outline>
		<contour>
			<point x="6.333" y="436.333" type="line"/>
			<point x="11.37" y="345.14"/>
			<point x="75.561" y="285.333"/>
			<point x="168" y="285.333" type="curve" smooth="yes"/>
			<point x="257.631" y="285.333"/>
			<point x="326.333" y="350.301"/>
			<point x="326.333" y="435" type="curve" smooth="yes"/>
			<point x="326.333" y="486.241"/>
			<point x="302.727" y="526.324"/>
			<point x="259" y="549.333" type="curve"/>
			<point x="284.265" y="570.205"/>
			<point x="295.333" y="593.706"/>
			<point x="295.333" y="626" type="curve" smooth="yes"/>
			<point x="295.333" y="694.848"/>
			<point x="240.163" y="746.333"/>
			<point x="166.333" y="746.333" type="curve" smooth="yes"/>
			<point x="91.576" y="746.333"/>
			<point x="43.517" y="700.179"/>
			<point x="38.333" y="623.667" type="curve"/>
			<point x="118" y="623.667" type="line"/>
			<point x="121.369" y="659.493"/>
			<point x="136.404" y="676"/>
			<point x="166.667" y="676" type="curve" smooth="yes"/>
			<point x="195.323" y="676"/>
			<point x="216.333" y="656.674"/>
			<point x="216.333" y="630.333" type="curve" smooth="yes"/>
			<point x="216.333" y="597.917"/>
			<point x="191.786" y="582.359"/>
			<point x="139.458" y="582.359" type="curve" smooth="yes"/>
			<point x="127.333" y="582.359" type="line"/>
			<point x="127.333" y="509.667" type="line"/>
			<point x="143.553" y="509.667" type="line" smooth="yes"/>
			<point x="209.198" y="509.667"/>
			<point x="248" y="480.947"/>
			<point x="248" y="432.333" type="curve" smooth="yes"/>
			<point x="248" y="389.571"/>
			<point x="212.9" y="356.333"/>
			<point x="167.667" y="356.333" type="curve" smooth="yes"/>
			<point x="121.249" y="356.333"/>
			<point x="90.448" y="386.319"/>
			<point x="85.333" y="436.333" type="curve"/>
		</contour>
	</outline>
</glyph>
<glyph name="acute" format="2">
	<unicode hex="00B4"/>
	<advance width="396"/>
	<outline>
		<contour>
			<point x="112.667" y="612" type="line"/>
			<point x="328.333" y="730" type="line"/>
			<point x="281" y="810.667" type="line"/>
			<point x="67.333" y="682.667" type="line"/>
		</contour>
	</outline>
</glyph>
<glyph name="mu" format="2">
	<unicode hex="00B5"/>
	<advance width="603"/>
	<outline>
		<contour>
			<point x="57" y="-187.333" type="line"/>
			<point x="170.333" y="-187.333" type="line"/>
			<point x="170.333" y="63" type="line"/>
			<point x="205.071" y="11.218"/>
			<point x="247.129" y="-13"/>
			<point x="302.333" y="-13" type="curve" smooth="yes"/>
			<point x="361.914" y="-13"/>
			<point x="401.531" y="9.233"/>
			<point x="439.667" y="63.667" type="curve"/>
			<point x="439.667" y="0" type="line"/>
			<point x="546.333" y="0" type="line"/>
			<point x="546.333" y="551.667" type="line"/>
			<point x="433" y="551.667" type="line"/>
			<point x="433" y="284" type="line" smooth="yes"/>
			<point x="433" y="214.866"/>
			<point x="426.883" y="176.987"/>
			<point x="411.333" y="149" type="curve" smooth="yes"/>
			<point x="390.384" y="112.785"/>
			<point x="350.471" y="90.667"/>
			<point x="306" y="90.667" type="curve" smooth="yes"/>
			<point x="267.333" y="90.667"/>
			<point x="230.611" y="108.976"/>
			<point x="204" y="141.667" type="curve" smooth="yes"/>
			<point x="176.122" y="174.445"/>
			<point x="170.333" y="197.666"/>
			<point x="170.333" y="284" type="curve" smooth="yes"/>
			<point x="170.333" y="551.667" type="line"/>
			<point x="57" y="551.667" type="line"/>
		</contour>
	</outline>
</glyph>
<glyph name="paragraph" format="2">
	<unicode hex="00B6"/>
	<advance width="588"/>
	<outline>
		<contour>
			<point x="236.333" y="-129.667" type="line"/>
			<point x="328.667" y="-129.667" type="line"/>
			<point x="328.667" y="645.333" type="line"/>
			<point x="422.667" y="645.333" type="line"/>
			<point x="422.667" y="-129.667" type="line"/>
			<point x="515" y="-129.667" type="line"/>
			<point x="515" y="739" type="line"/>
			<point x="292.667" y="739" type="line" smooth="yes"/>
			<point x="221.518" y="739"/>
			<point x="169.913" y="729.627"/>
			<point x="134.333" y="710" type="curve" smooth="yes"/>
			<point x="72.982" y="677.181"/>
			<point x="37" y="613.724"/>
			<point x="37" y="538.333" type="curve" smooth="yes"/>
			<point x="37" y="422.785"/>
			<point x="115.891" y="343.655"/>
			<point x="236.333" y="338.333" type="curve"/>
		</contour>
	</outline>
</glyph>
<glyph name="periodcentered" format="2">
	<unicode hex="00B7"/>
	<advance width="280"/>
	<outline>
		<contour>
			<point x="83" y="276.333" type="line"/>
			<point x="196.333" y="276.333" type="line"/>
			<point x="196.333" y="407" type="line"/>
			<point x="83" y="407" type="line"/>
		</contour>
	</outline>
</glyph>
<glyph name="cedilla" format="2">
	<unicode hex="00B8"/>
	<advance width="324"/>
	<outline>
		<contour>
			<point x="67.333" y="-157.333" type="line"/>
			<point x="76.356" y="-206.45"/>
			<point x="114.116" y="-238.333"/>
			<point x="163.333" y="-238.333" type="curve" smooth="yes"/>
			<point x="218.652" y="-238.333"/>
			<point x="256.667" y="-198.685"/>
			<point x="256.667" y="-141" type="curve" smooth="yes"/>
			<point x="256.667" y="-88.44"/>
			<point x="218.793" y="-47"/>
			<point x="170.667" y="-47" type="curve" smooth="yes"/>
			<point x="161.637" y="-47"/>
			<point x="155.043" y="-48.594"/>
			<point x="140.333" y="-54.333" type="curve"/>
			<point x="160.667" y="0" type="line"/>
			<point x="114" y="0" type="line"/>
			<point x="78.333" y="-97.667" type="line"/>
			<point x="122.667" y="-120.667" type="line"/>
			<point x="136.92" y="-101.352"/>
			<point x="147.294" y="-94.667"/>
			<point x="163" y="-94.667" type="curve" smooth="yes"/>
			<point x="185.98" y="-94.667"/>
			<point x="203.667" y="-114.974"/>
			<point x="203.667" y="-141.333" type="curve" smooth="yes"/>
			<point x="203.667" y="-167.347"/>
			<point x="186.036" y="-187.333"/>
			<point x="163" y="-187.333" type="curve" smooth="yes"/>
			<point x="144.341" y="-187.333"/>
			<point x="130.821" y="-176.723"/>
			<point x="122.667" y="-155.667" type="curve"/>
		</contour>
	</outline>
</glyph>
<glyph name="onesuperior" format="2">
	<unicode hex="00B9"/>
	<advance width="335"/>
	<outline>
		<contour>
			<point x="151" y="293.333" type="line"/>
			<point x="229.667" y="293.333" type="line"/>
			<point x="229.667" y="739" type="line"/>
			<point x="86.667" y="739" type="line"/>
			<point x="86.667" y="667.333" type="line"/>
			<point x="151" y="667.333" type="line"/>
		</contour>
	</outline>
</glyph>
<glyph name="ordmasculine" format="2">
	<unicode hex="00BA"/>
	<advance width="368"/>
	<outline>
		<contour>
			<point x="184" y="442" type="curve" smooth="yes"/>
			<point x="268.554" y="442"/>
			<point x="337" y="510.888"/>
			<point x="337" y="596" type="curve" smooth="yes"/>
			<point x="337" y="679.2"/>
			<point x="268.467" y="748.333"/>
			<point x="186" y="748.333" type="curve" smooth="yes"/>
			<point x="99.57" y="748.333"/>
			<point x="30.667" y="680.906"/>
			<point x="30.667" y="596.333" type="curve" smooth="yes"/>
			<point x="30.667" y="511.39"/>
			<point x="99.609" y="442"/>
		</contour>
		<contour>
			<point x="184.333" y="507.667" type="curve" smooth="yes"/>
			<point x="134.473" y="507.667"/>
			<point x="97" y="545.86"/>
			<point x="97" y="596.667" type="curve" smooth="yes"/>
			<point x="97" y="645.245"/>
			<point x="135.581" y="685.333"/>
			<point x="182.333" y="685.333" type="curve" smooth="yes"/>
			<point x="231.312" y="685.333"/>
			<point x="270.667" y="645.688"/>
			<point x="270.667" y="596.333" type="curve" smooth="yes"/>
			<point x="270.667" y="546.006"/>
			<point x="233.338" y="507.667"/>
		</contour>
		<contour>
			<point x="30.667" y="313.667" type="line"/>
			<point x="337" y="313.667" type="line"/>
			<point x="337" y="377.333" type="line"/>
			<point x="30.667" y="377.333" type="line"/>
		</contour>
	</outline>
</glyph>
<glyph name="onequarter" format="2">
	<unicode hex="00BC"/>
	<advance width="837"/>
	<outline>
		<contour>
			<point x="132" y="293.333" type="line"/>
			<point x="210.667" y="293.333" type="line"/>
			<point x="210.667" y="739" type="line"/>
			<point x="67.667" y="739" type="line"/>
			<point x="67.667" y="667.333" type="line"/>
			<point x="132" y="667.333" type="line"/>
		</contour>
		<contour>
			<point x="188.333" y="0" type="line"/>
			<point x="269.667" y="0" type="line"/>
			<point x="587.667" y="739" type="line"/>
			<point x="506" y="739" type="line"/>
		</contour>
		<contour>
			<point x="465.333" y="70.333" type="line"/>
			<point x="671.667" y="70.333" type="line"/>
			<point x="671.667" y="0" type="line"/>
			<point x="750.333" y="0" type="line"/>
			<point x="750.333" y="70.333" type="line"/>
			<point x="796.333" y="70.333" type="line"/>
			<point x="796.333" y="139.333" type="line"/>
			<point x="750.333" y="139.333" type="line"/>
			<point x="750.333" y="445.667" type="line"/>
			<point x="679.333" y="445.667" type="line"/>
			<point x="465.333" y="131.667" type="line"/>
		</contour>
		<contour>
			<point x="551.667" y="139.333" type="line"/>
			<point x="671.667" y="317" type="line"/>
			<point x="671.667" y="139.333" type="line"/>
		</contour>
	</outline>
</glyph>
<glyph name="onehalf" format="2">
	<unicode hex="00BD"/>
	<advance width="837"/>
	<outline>
		<contour>
			<point x="127.667" y="293.333" type="line"/>
			<point x="206.333" y="293.333" type="line"/>
			<point x="206.333" y="739" type="line"/>
			<point x="63.333" y="739" type="line"/>
			<point x="63.333" y="667.333" type="line"/>
			<point x="127.667" y="667.333" type="line"/>
		</contour>
		<contour>
			<point x="170" y="0" type="line"/>
			<point x="251.333" y="0" type="line"/>
			<point x="569.333" y="739" type="line"/>
			<point x="487.667" y="739" type="line"/>
		</contour>
		<contour>
			<point x="482" y="0" type="line"/>
			<point x="791.333" y="0" type="line"/>
			<point x="791.333" y="71.667" type="line"/>
			<point x="598.333" y="71.667" type="line"/>
			<point x="705.333" y="162" type="line" smooth="yes"/>
			<point x="765.656" y="212.495"/>
			<point x="793.333" y="258.885"/>
			<point x="793.333" y="309.333" type="curve" smooth="yes"/>
			<point x="793.333" y="391.322"/>
			<point x="726.681" y="453.667"/>
			<point x="639" y="453.667" type="curve" smooth="yes"/>
			<point x="541.325" y="453.667"/>
			<point x="481.333" y="391.015"/>
			<point x="481.333" y="289" type="curve"/>
			<point x="559.333" y="289" type="line"/>
			<point x="559.995" y="348.698"/>
			<point x="588.766" y="382.667"/>
			<point x="638.667" y="382.667" type="curve" smooth="yes"/>
			<point x="681.208" y="382.667"/>
			<point x="714.333" y="351.452"/>
			<point x="714.333" y="311.333" type="curve" smooth="yes"/>
			<point x="714.333" y="282.026"/>
			<point x="698.915" y="258.968"/>
			<point x="649.667" y="215" type="curve" smooth="yes"/>
			<point x="482" y="66.333" type="line"/>
		</contour>
	</outline>
</glyph>
<glyph name="threequarters" format="2">
	<unicode hex="00BE"/>
	<advance width="837"/>
	<outline>
		<contour>
			<point x="8.333" y="436.333" type="line"/>
			<point x="12.5" y="346.108"/>
			<point x="77.622" y="285.333"/>
			<point x="170" y="285.333" type="curve" smooth="yes"/>
			<point x="259.631" y="285.333"/>
			<point x="328.333" y="350.301"/>
			<point x="328.333" y="435" type="curve" smooth="yes"/>
			<point x="328.333" y="486.241"/>
			<point x="304.727" y="526.324"/>
			<point x="261" y="549.333" type="curve"/>
			<point x="286.265" y="570.205"/>
			<point x="297.333" y="593.706"/>
			<point x="297.333" y="626" type="curve" smooth="yes"/>
			<point x="297.333" y="694.848"/>
			<point x="242.163" y="746.333"/>
			<point x="168.333" y="746.333" type="curve" smooth="yes"/>
			<point x="93.559" y="746.333"/>
			<point x="45.518" y="700.196"/>
			<point x="40.333" y="623.667" type="curve"/>
			<point x="120" y="623.667" type="line"/>
			<point x="123.369" y="659.493"/>
			<point x="138.404" y="676"/>
			<point x="168.667" y="676" type="curve" smooth="yes"/>
			<point x="197.323" y="676"/>
			<point x="218.333" y="656.674"/>
			<point x="218.333" y="630.333" type="curve" smooth="yes"/>
			<point x="218.333" y="597.803"/>
			<point x="193.643" y="582.222"/>
			<point x="140.702" y="582.222" type="curve" smooth="yes"/>
			<point x="129.333" y="582.222" type="line"/>
			<point x="129.333" y="509.649" type="line"/>
			<point x="148.758" y="509.649" type="line" smooth="yes"/>
			<point x="211.126" y="509.649"/>
			<point x="250" y="479.978"/>
			<point x="250" y="432.333" type="curve" smooth="yes"/>
			<point x="250" y="389.571"/>
			<point x="214.9" y="356.333"/>
			<point x="169.667" y="356.333" type="curve" smooth="yes"/>
			<point x="123.249" y="356.333"/>
			<point x="92.448" y="386.319"/>
			<point x="87.333" y="436.333" type="curve"/>
		</contour>
		<contour>
			<point x="247.667" y="0" type="line"/>
			<point x="329" y="0" type="line"/>
			<point x="647" y="739" type="line"/>
			<point x="565.333" y="739" type="line"/>
		</contour>
		<contour>
			<point x="495.333" y="70.333" type="line"/>
			<point x="701.667" y="70.333" type="line"/>
			<point x="701.667" y="0" type="line"/>
			<point x="780.333" y="0" type="line"/>
			<point x="780.333" y="70.333" type="line"/>
			<point x="826.333" y="70.333" type="line"/>
			<point x="826.333" y="139.333" type="line"/>
			<point x="780.333" y="139.333" type="line"/>
			<point x="780.333" y="445.667" type="line"/>
			<point x="709.333" y="445.667" type="line"/>
			<point x="495.333" y="131.667" type="line"/>
		</contour>
		<contour>
			<point x="581.667" y="139.333" type="line"/>
			<point x="701.667" y="317" type="line"/>
			<point x="701.667" y="139.333" type="line"/>
		</contour>
	</outline>
</glyph>
<glyph name="questiondown" format="2">
	<unicode hex="00BF"/>
	<advance width="543"/>
	<outline>
		<contour>
			<point x="388.667" y="35.667" type="line"/>
			<point x="380.822" y="-47.379"/>
			<point x="341.592" y="-90"/>
			<point x="273" y="-90" type="curve" smooth="yes"/>
			<point x="206.629" y="-90"/>
			<point x="158.667" y="-43.296"/>
			<point x="158.667" y="21.333" type="curve" smooth="yes"/>
			<point x="158.667" y="58.274"/>
			<point x="173.899" y="85.873"/>
			<point x="216.667" y="124.667" type="curve" smooth="yes"/>
			<point x="307.237" y="204.524"/>
			<point x="333" y="253.514"/>
			<point x="333" y="347.667" type="curve" smooth="yes"/>
			<point x="333" y="362.667" type="line"/>
			<point x="220.947" y="362.667" type="line"/>
			<point x="220.947" y="351.768" type="line" smooth="yes"/>
			<point x="220.947" y="286.339"/>
			<point x="204.662" y="255.494"/>
			<point x="143.333" y="200.667" type="curve" smooth="yes"/>
			<point x="69.992" y="135.325"/>
			<point x="45.333" y="90.987"/>
			<point x="45.333" y="24.667" type="curve" smooth="yes"/>
			<point x="45.333" y="-104.728"/>
			<point x="141.058" y="-200.333"/>
			<point x="270.667" y="-200.333" type="curve" smooth="yes"/>
			<point x="404.366" y="-200.333"/>
			<point x="491.508" y="-110.904"/>
			<point x="500.667" y="35.667" type="curve"/>
		</contour>
		<contour>
			<point x="220" y="424.333" type="line"/>
			<point x="333.333" y="424.333" type="line"/>
			<point x="333.333" y="551.667" type="line"/>
			<point x="220" y="551.667" type="line"/>
		</contour>
	</outline>
</glyph>
<glyph name="Agrave" format="2">
	<unicode hex="00C0"/>
	<advance width="740"/>
	<outline>
		<contour>
			<point x="8.333" y="0" type="line"/>
			<point x="135" y="0" type="line"/>
			<point x="225.667" y="210.333" type="line"/>
			<point x="515.667" y="210.333" type="line"/>
			<point x="604" y="0" type="line"/>
			<point x="731.667" y="0" type="line"/>
			<point x="419" y="739" type="line"/>
			<point x="319.333" y="739" type="line"/>
		</contour>
		<contour>
			<point x="268.333" y="320" type="line"/>
			<point x="369.333" y="582.333" type="line"/>
			<point x="469.333" y="320" type="line"/>
		</contour>
		<contour>
			<point x="205.333" y="908" type="line"/>
			<point x="421.667" y="789.333" type="line"/>
			<point x="468" y="860.667" type="line"/>
			<point x="254" y="986" type="line"/>
		</contour>
	</outline>
	<anchor name="Anchor-0" x="370" y="1005.67"/>
</glyph>
<glyph name="Atilde" format="2">
	<unicode hex="00C3"/>
	<advance width="740"/>
	<outline>
		<contour>
			<point x="8.333" y="0" type="line"/>
			<point x="135" y="0" type="line"/>
			<point x="225.667" y="210.333" type="line"/>
			<point x="515.667" y="210.333" type="line"/>
			<point x="604" y="0" type="line"/>
			<point x="731.667" y="0" type="line"/>
			<point x="419" y="739" type="line"/>
			<point x="319.333" y="739" type="line"/>
		</contour>
		<contour>
			<point x="268.333" y="320" type="line"/>
			<point x="369.333" y="582.333" type="line"/>
			<point x="469.333" y="320" type="line"/>
		</contour>
		<contour>
			<point x="259.667" y="812.333" type="line"/>
			<point x="290.514" y="834.183"/>
			<point x="302.136" y="839.667"/>
			<point x="326.333" y="839.667" type="curve" smooth="yes"/>
			<point x="340.873" y="839.667"/>
			<point x="351.63" y="837.143"/>
			<point x="375.667" y="828.333" type="curve" smooth="yes"/>
			<point x="406.009" y="816.502"/>
			<point x="422.569" y="812.333"/>
			<point x="437" y="812.333" type="curve" smooth="yes"/>
			<point x="471.099" y="812.333"/>
			<point x="503.168" y="830.441"/>
			<point x="530" y="865.333" type="curve"/>
			<point x="483" y="934.667" type="line"/>
			<point x="462.16" y="911.508"/>
			<point x="443.173" y="901.667"/>
			<point x="419.333" y="901.667" type="curve" smooth="yes"/>
			<point x="406.67" y="901.667"/>
			<point x="390.515" y="905.868"/>
			<point x="372" y="913.667" type="curve" smooth="yes"/>
			<point x="341.87" y="926.394"/>
			<point x="332.835" y="928.667"/>
			<point x="312.333" y="928.667" type="curve" smooth="yes"/>
			<point x="272.46" y="928.667"/>
			<point x="243.767" y="914.774"/>
			<point x="212.667" y="881" type="curve"/>
		</contour>
	</outline>
	<anchor name="Anchor-0" x="370" y="1005.67"/>
</glyph>
<glyph name="Aring" format="2">
	<unicode hex="00C5"/>
	<advance width="740"/>
	<outline>
		<contour>
			<point x="8.333" y="0" type="line"/>
			<point x="135" y="0" type="line"/>
			<point x="225.667" y="210.333" type="line"/>
			<point x="515.667" y="210.333" type="line"/>
			<point x="604" y="0" type="line"/>
			<point x="731.667" y="0" type="line"/>
			<point x="419" y="739" type="line"/>
			<point x="319.333" y="739" type="line"/>
		</contour>
		<contour>
			<point x="268.333" y="320" type="line"/>
			<point x="369.333" y="582.333" type="line"/>
			<point x="469.333" y="320" type="line"/>
		</contour>
		<contour>
			<point x="339.333" y="817.667" type="curve" smooth="yes"/>
			<point x="377.333" y="800.926"/>
			<point x="421.742" y="818"/>
			<point x="438.667" y="856" type="curve" smooth="yes"/>
			<point x="455.667" y="893.516"/>
			<point x="438.485" y="938.333"/>
			<point x="401.333" y="955.333" type="curve" smooth="yes"/>
			<point x="362.816" y="972.092"/>
			<point x="318.243" y="955.481"/>
			<point x="301.667" y="917.333" type="curve" smooth="yes"/>
			<point x="284.333" y="879.333"/>
			<point x="301.333" y="835"/>
		</contour>
		<contour>
			<point x="329" y="886.333" type="curve" smooth="yes"/>
			<point x="329" y="909.028"/>
			<point x="347.038" y="927.667"/>
			<point x="369" y="927.667" type="curve" smooth="yes"/>
			<point x="392.519" y="927.667"/>
			<point x="411" y="909.477"/>
			<point x="411" y="886.333" type="curve" smooth="yes"/>
			<point x="411" y="863.925"/>
			<point x="392.59" y="845.667"/>
			<point x="370" y="845.667" type="curve" smooth="yes"/>
			<point x="347.24" y="845.667"/>
			<point x="329" y="863.758"/>
		</contour>
	</outline>
	<anchor name="Anchor-0" x="370" y="1010.67"/>
</glyph>
<glyph name="AE" format="2">
	<unicode hex="00C6"/>
	<advance width="920"/>
	<outline>
		<contour>
			<point x="5" y="0" type="line"/>
			<point x="144.333" y="0" type="line"/>
			<point x="276.667" y="210.667" type="line"/>
			<point x="496.333" y="210.667" type="line"/>
			<point x="496.333" y="0" type="line"/>
			<point x="864" y="0" type="line"/>
			<point x="864" y="109.667" type="line"/>
			<point x="612.333" y="109.667" type="line"/>
			<point x="612.333" y="315.333" type="line"/>
			<point x="853" y="315.333" type="line"/>
			<point x="853" y="425" type="line"/>
			<point x="612.333" y="425" type="line"/>
			<point x="612.333" y="629.333" type="line"/>
			<point x="864" y="629.333" type="line"/>
			<point x="864" y="739" type="line"/>
			<point x="500" y="739" type="line"/>
		</contour>
		<contour>
			<point x="345" y="320.333" type="line"/>
			<point x="496.333" y="556.667" type="line"/>
			<point x="496.333" y="320.333" type="line"/>
		</contour>
	</outline>
	<anchor name="Anchor-0" x="492.667" y="805"/>
</glyph>
<glyph name="Ccedilla" format="2">
	<unicode hex="00C7"/>
	<advance width="806"/>
	<outline>
		<contour>
			<point x="319" y="-166" type="line"/>
			<point x="329.043" y="-215.508"/>
			<point x="367.171" y="-247.333"/>
			<point x="416.667" y="-247.333" type="curve" smooth="yes"/>
			<point x="472.776" y="-247.333"/>
			<point x="511.333" y="-207.554"/>
			<point x="511.333" y="-149.667" type="curve" smooth="yes"/>
			<point x="511.333" y="-96.138"/>
			<point x="473.49" y="-54.333"/>
			<point x="425" y="-54.333" type="curve" smooth="yes"/>
			<point x="415.714" y="-54.333"/>
			<point x="408.778" y="-55.917"/>
			<point x="394.333" y="-61.333" type="curve"/>
			<point x="413" y="-13" type="line"/>
			<point x="577.914" y="-13"/>
			<point x="702.439" y="62.558"/>
			<point x="767.333" y="202" type="curve"/>
			<point x="632.667" y="202" type="line"/>
			<point x="567.703" y="128.122"/>
			<point x="507.283" y="97.667"/>
			<point x="425" y="97.667" type="curve" smooth="yes"/>
			<point x="276.673" y="97.667"/>
			<point x="155.667" y="220.321"/>
			<point x="155.667" y="370.667" type="curve" smooth="yes"/>
			<point x="155.667" y="524.896"/>
			<point x="270.528" y="641.333"/>
			<point x="422.667" y="641.333" type="curve" smooth="yes"/>
			<point x="517.237" y="641.333"/>
			<point x="583.998" y="607.647"/>
			<point x="636.667" y="533.667" type="curve"/>
			<point x="766.333" y="533.667" type="line"/>
			<point x="704.623" y="670.571"/>
			<point x="575.27" y="752"/>
			<point x="419.667" y="752" type="curve" smooth="yes"/>
			<point x="207.025" y="752"/>
			<point x="38.667" y="583.358"/>
			<point x="38.667" y="370.333" type="curve" smooth="yes"/>
			<point x="38.667" y="179.382"/>
			<point x="176.202" y="20.086"/>
			<point x="366.667" y="-8.667" type="curve"/>
			<point x="330.667" y="-105.667" type="line"/>
			<point x="376" y="-129" type="line"/>
			<point x="389.771" y="-110.242"/>
			<point x="400.117" y="-103.667"/>
			<point x="416" y="-103.667" type="curve" smooth="yes"/>
			<point x="438.881" y="-103.667"/>
			<point x="456.667" y="-123.532"/>
			<point x="456.667" y="-149" type="curve" smooth="yes"/>
			<point x="456.667" y="-175.753"/>
			<point x="439.58" y="-195"/>
			<point x="415.667" y="-195" type="curve" smooth="yes"/>
			<point x="396.65" y="-195"/>
			<point x="384.01" y="-185.005"/>
			<point x="376" y="-163.667" type="curve"/>
		</contour>
	</outline>
	<anchor name="Anchor-0" x="422.333" y="805"/>
</glyph>
<glyph name="Egrave" format="2">
	<unicode hex="00C8"/>
	<advance width="528"/>
	<outline>
		<contour>
			<point x="72.667" y="0" type="line"/>
			<point x="472" y="0" type="line"/>
			<point x="472" y="109.667" type="line"/>
			<point x="188.667" y="109.667" type="line"/>
			<point x="188.667" y="315.333" type="line"/>
			<point x="461" y="315.333" type="line"/>
			<point x="461" y="425" type="line"/>
			<point x="188.667" y="425" type="line"/>
			<point x="188.667" y="629.333" type="line"/>
			<point x="472" y="629.333" type="line"/>
			<point x="472" y="739" type="line"/>
			<point x="72.667" y="739" type="line"/>
		</contour>
		<contour>
			<point x="103.333" y="908" type="line"/>
			<point x="319.667" y="789.333" type="line"/>
			<point x="366" y="860.667" type="line"/>
			<point x="152" y="986" type="line"/>
		</contour>
	</outline>
	<anchor name="Anchor-0" x="272" y="1005.67"/>
</glyph>
<glyph name="Eacute" format="2">
	<unicode hex="00C9"/>
	<advance width="528"/>
	<outline>
		<contour>
			<point x="72.667" y="0" type="line"/>
			<point x="472" y="0" type="line"/>
			<point x="472" y="109.667" type="line"/>
			<point x="188.667" y="109.667" type="line"/>
			<point x="188.667" y="315.333" type="line"/>
			<point x="461" y="315.333" type="line"/>
			<point x="461" y="425" type="line"/>
			<point x="188.667" y="425" type="line"/>
			<point x="188.667" y="629.333" type="line"/>
			<point x="472" y="629.333" type="line"/>
			<point x="472" y="739" type="line"/>
			<point x="72.667" y="739" type="line"/>
		</contour>
		<contour>
			<point x="229.333" y="789.333" type="line"/>
			<point x="445" y="907.333" type="line"/>
			<point x="397.667" y="988" type="line"/>
			<point x="184" y="860" type="line"/>
		</contour>
	</outline>
	<anchor name="Anchor-0" x="272" y="1005.67"/>
</glyph>
<glyph name="Ecircumflex" format="2">
	<unicode hex="00CA"/>
	<advance width="528"/>
	<outline>
		<contour>
			<point x="72.667" y="0" type="line"/>
			<point x="472" y="0" type="line"/>
			<point x="472" y="109.667" type="line"/>
			<point x="188.667" y="109.667" type="line"/>
			<point x="188.667" y="315.333" type="line"/>
			<point x="461" y="315.333" type="line"/>
			<point x="461" y="425" type="line"/>
			<point x="188.667" y="425" type="line"/>
			<point x="188.667" y="629.333" type="line"/>
			<point x="472" y="629.333" type="line"/>
			<point x="472" y="739" type="line"/>
			<point x="72.667" y="739" type="line"/>
		</contour>
		<contour>
			<point x="78.333" y="805" type="line"/>
			<point x="206.667" y="805" type="line"/>
			<point x="272" y="872.333" type="line"/>
			<point x="336" y="805" type="line"/>
			<point x="462.333" y="805" type="line"/>
			<point x="318" y="939" type="line"/>
			<point x="224.667" y="939" type="line"/>
		</contour>
	</outline>
	<anchor name="Anchor-0" x="272" y="1005.67"/>
</glyph>
<glyph name="Igrave" format="2">
	<unicode hex="00CC"/>
	<advance width="261"/>
	<outline>
		<contour>
			<point x="72.667" y="0" type="line"/>
			<point x="188.667" y="0" type="line"/>
			<point x="188.667" y="739" type="line"/>
			<point x="72.667" y="739" type="line"/>
		</contour>
		<contour>
			<point x="4" y="908" type="line"/>
			<point x="220.333" y="789.333" type="line"/>
			<point x="266.667" y="860.667" type="line"/>
			<point x="52.667" y="986" type="line"/>
		</contour>
	</outline>
	<anchor name="Anchor-0" x="130.333" y="1005.67"/>
</glyph>
<glyph name="Iacute" format="2">
	<unicode hex="00CD"/>
	<advance width="261"/>
	<outline>
		<contour>
			<point x="72.667" y="0" type="line"/>
			<point x="188.667" y="0" type="line"/>
			<point x="188.667" y="739" type="line"/>
			<point x="72.667" y="739" type="line"/>
		</contour>
		<contour>
			<point x="49.667" y="789.333" type="line"/>
			<point x="265.333" y="907.333" type="line"/>
			<point x="218" y="988" type="line"/>
			<point x="4.333" y="860" type="line"/>
		</contour>
	</outline>
	<anchor name="Anchor-0" x="130.333" y="1005.67"/>
</glyph>
<glyph name="Eth" format="2">
	<unicode hex="00D0"/>
	<advance width="759"/>
	<outline>
		<contour>
			<point x="118" y="0" type="line"/>
			<point x="299" y="0" type="line" smooth="yes"/>
			<point x="573.831" y="0"/>
			<point x="720.667" y="127.992"/>
			<point x="720.667" y="367.667" type="curve" smooth="yes"/>
			<point x="720.667" y="611.206"/>
			<point x="571.932" y="739"/>
			<point x="288.667" y="739" type="curve" smooth="yes"/>
			<point x="118" y="739" type="line"/>
			<point x="118" y="419.333" type="line"/>
			<point x="22" y="419.333" type="line"/>
			<point x="22" y="325.667" type="line"/>
			<point x="118" y="325.667" type="line"/>
		</contour>
		<contour>
			<point x="234" y="109.667" type="line"/>
			<point x="234" y="325.667" type="line"/>
			<point x="405" y="325.667" type="line"/>
			<point x="405" y="419.333" type="line"/>
			<point x="234" y="419.333" type="line"/>
			<point x="234" y="629.333" type="line"/>
			<point x="286.333" y="629.333" type="line" smooth="yes"/>
			<point x="498.373" y="629.333"/>
			<point x="603.667" y="542.87"/>
			<point x="603.667" y="368.667" type="curve" smooth="yes"/>
			<point x="603.667" y="196.232"/>
			<point x="498.259" y="109.667"/>
			<point x="288.333" y="109.667" type="curve" smooth="yes"/>
		</contour>
	</outline>
	<anchor name="Anchor-0" x="350" y="805"/>
</glyph>
<glyph name="Ntilde" format="2">
	<unicode hex="00D1"/>
	<advance width="741"/>
	<outline>
		<contour>
			<point x="72.667" y="0" type="line"/>
			<point x="188.667" y="0" type="line"/>
			<point x="188.667" y="574.667" type="line"/>
			<point x="541.333" y="0" type="line"/>
			<point x="668" y="0" type="line"/>
			<point x="668" y="739" type="line"/>
			<point x="552" y="739" type="line"/>
			<point x="552" y="176" type="line"/>
			<point x="210" y="739" type="line"/>
			<point x="72.667" y="739" type="line"/>
		</contour>
		<contour>
			<point x="265.667" y="812.333" type="line"/>
			<point x="297.363" y="834.628"/>
			<point x="308.152" y="839.667"/>
			<point x="332.333" y="839.667" type="curve" smooth="yes"/>
			<point x="346.162" y="839.667"/>
			<point x="356.892" y="837.15"/>
			<point x="381.667" y="828.333" type="curve" smooth="yes"/>
			<point x="411.654" y="817.403"/>
			<point x="429.581" y="812.333"/>
			<point x="445.388" y="812.333" type="curve" smooth="yes"/>
			<point x="478.853" y="812.333"/>
			<point x="508.804" y="829.85"/>
			<point x="536" y="865.333" type="curve"/>
			<point x="489" y="934.667" type="line"/>
			<point x="468.16" y="911.508"/>
			<point x="449.173" y="901.667"/>
			<point x="425.333" y="901.667" type="curve" smooth="yes"/>
			<point x="412.355" y="901.667"/>
			<point x="396.712" y="905.718"/>
			<point x="378" y="913.667" type="curve" smooth="yes"/>
			<point x="350.377" y="925.387"/>
			<point x="337.845" y="928.667"/>
			<point x="318.333" y="928.667" type="curve" smooth="yes"/>
			<point x="278.46" y="928.667"/>
			<point x="249.767" y="914.774"/>
			<point x="218.667" y="881" type="curve"/>
		</contour>
	</outline>
	<anchor name="Anchor-0" x="370" y="1005.67"/>
</glyph>
<glyph name="Ograve" format="2">
	<unicode hex="00D2"/>
	<advance width="851"/>
	<outline>
		<component base="O"/>
		<contour>
			<point x="283.333" y="908" type="line"/>
			<point x="499.667" y="789.333" type="line"/>
			<point x="546" y="860.667" type="line"/>
			<point x="332" y="986" type="line"/>
		</contour>
	</outline>
	<anchor name="Anchor-0" x="425.333" y="1005.67"/>
</glyph>
<glyph name="Oacute" format="2">
	<unicode hex="00D3"/>
	<advance width="851"/>
	<outline>
		<component base="O"/>
		<contour>
			<point x="351.333" y="789.333" type="line"/>
			<point x="567" y="907.333" type="line"/>
			<point x="519.667" y="988" type="line"/>
			<point x="306" y="860" type="line"/>
		</contour>
	</outline>
	<anchor name="Anchor-0" x="425.333" y="1005.67"/>
</glyph>
<glyph name="Ocircumflex" format="2">
	<unicode hex="00D4"/>
	<advance width="851"/>
	<outline>
		<component base="O"/>
		<contour>
			<point x="233.667" y="805" type="line"/>
			<point x="362" y="805" type="line"/>
			<point x="427.333" y="872.333" type="line"/>
			<point x="491.333" y="805" type="line"/>
			<point x="617.667" y="805" type="line"/>
			<point x="473.333" y="939" type="line"/>
			<point x="380" y="939" type="line"/>
		</contour>
	</outline>
	<anchor name="Anchor-0" x="425.333" y="1005.67"/>
</glyph>
<glyph name="Otilde" format="2">
	<unicode hex="00D5"/>
	<advance width="851"/>
	<outline>
		<component base="O"/>
		<contour>
			<point x="317.667" y="812.333" type="line"/>
			<point x="351.482" y="834.985"/>
			<point x="361.601" y="839.667"/>
			<point x="384.333" y="839.667" type="curve" smooth="yes"/>
			<point x="398.873" y="839.667"/>
			<point x="409.63" y="837.143"/>
			<point x="433.667" y="828.333" type="curve" smooth="yes"/>
			<point x="464.009" y="816.502"/>
			<point x="480.569" y="812.333"/>
			<point x="495" y="812.333" type="curve" smooth="yes"/>
			<point x="529.099" y="812.333"/>
			<point x="561.168" y="830.441"/>
			<point x="588" y="865.333" type="curve"/>
			<point x="541" y="934.667" type="line"/>
			<point x="520.16" y="911.508"/>
			<point x="501.173" y="901.667"/>
			<point x="477.333" y="901.667" type="curve" smooth="yes"/>
			<point x="464.67" y="901.667"/>
			<point x="448.515" y="905.868"/>
			<point x="430" y="913.667" type="curve" smooth="yes"/>
			<point x="399.87" y="926.394"/>
			<point x="390.835" y="928.667"/>
			<point x="370.333" y="928.667" type="curve" smooth="yes"/>
			<point x="330.46" y="928.667"/>
			<point x="301.767" y="914.774"/>
			<point x="270.667" y="881" type="curve"/>
		</contour>
	</outline>
	<anchor name="Anchor-0" x="425.333" y="1005.67"/>
</glyph>
<glyph name="Odieresis" format="2">
	<unicode hex="00D6"/>
	<advance width="851"/>
	<outline>
		<component base="O"/>
		<contour>
			<point x="274.667" y="805" type="line"/>
			<point x="388" y="805" type="line"/>
			<point x="388" y="935.667" type="line"/>
			<point x="274.667" y="935.667" type="line"/>
		</contour>
		<contour>
			<point x="463.667" y="805" type="line"/>
			<point x="577" y="805" type="line"/>
			<point x="577" y="935.667" type="line"/>
			<point x="463.667" y="935.667" type="line"/>
		</contour>
	</outline>
	<anchor name="Anchor-0" x="425.333" y="1005.67"/>
</glyph>
<glyph name="multiply" format="2">
	<unicode hex="00D7"/>
	<advance width="602"/>
	<outline>
		<contour>
			<point x="49" y="163.667" type="line"/>
			<point x="121" y="92" type="line"/>
			<point x="301" y="272" type="line"/>
			<point x="481" y="92" type="line"/>
			<point x="553" y="163.667" type="line"/>
			<point x="373" y="343.667" type="line"/>
			<point x="553" y="524" type="line"/>
			<point x="481" y="595.667" type="line"/>
			<point x="301" y="415.667" type="line"/>
			<point x="121" y="595.667" type="line"/>
			<point x="49" y="524" type="line"/>
			<point x="229" y="343.667" type="line"/>
		</contour>
	</outline>
</glyph>
<glyph name="Oslash" format="2">
	<unicode hex="00D8"/>
	<advance width="853"/>
	<outline>
		<contour>
			<point x="38.667" y="370" type="curve" smooth="yes"/>
			<point x="38.667" y="259.863"/>
			<point x="84.854" y="157.127"/>
			<point x="166.667" y="85.333" type="curve"/>
			<point x="96.333" y="-14" type="line"/>
			<point x="179" y="-71" type="line"/>
			<point x="250.333" y="29.333" type="line"/>
			<point x="305.807" y="1.293"/>
			<point x="366.47" y="-13"/>
			<point x="430.667" y="-13" type="curve" smooth="yes"/>
			<point x="646.238" y="-13"/>
			<point x="814" y="154.904"/>
			<point x="814" y="370.667" type="curve" smooth="yes"/>
			<point x="814" y="482.529"/>
			<point x="770.023" y="579.912"/>
			<point x="686" y="654" type="curve"/>
			<point x="757.333" y="755" type="line"/>
			<point x="676" y="813" type="line"/>
			<point x="603.333" y="710" type="line"/>
			<point x="549.28" y="737.628"/>
			<point x="489.068" y="752"/>
			<point x="425" y="752" type="curve" smooth="yes"/>
			<point x="209.627" y="752"/>
			<point x="38.667" y="582.957"/>
		</contour>
		<contour>
			<point x="155.667" y="368.667" type="curve" smooth="yes"/>
			<point x="155.667" y="521.697"/>
			<point x="273.697" y="641.333"/>
			<point x="424.667" y="641.333" type="curve" smooth="yes"/>
			<point x="465.851" y="641.333"/>
			<point x="503.857" y="633.15"/>
			<point x="539" y="617" type="curve"/>
			<point x="232.333" y="180" type="line"/>
			<point x="181.787" y="233.237"/>
			<point x="155.667" y="297.64"/>
		</contour>
		<contour>
			<point x="314.667" y="122.333" type="curve"/>
			<point x="621.333" y="560" type="line"/>
			<point x="672.165" y="505.125"/>
			<point x="697" y="442.069"/>
			<point x="697" y="368.333" type="curve" smooth="yes"/>
			<point x="697" y="214.978"/>
			<point x="580.98" y="97.667"/>
			<point x="429.333" y="97.667" type="curve" smooth="yes"/>
			<point x="388.86" y="97.667"/>
			<point x="355.548" y="104.803"/>
		</contour>
	</outline>
	<anchor name="Anchor-0" x="426" y="805"/>
</glyph>
<glyph name="Ugrave" format="2">
	<unicode hex="00D9"/>
	<advance width="646"/>
	<outline>
		<component base="U"/>
		<contour>
			<point x="153.667" y="908" type="line"/>
			<point x="370" y="789.333" type="line"/>
			<point x="416.333" y="860.667" type="line"/>
			<point x="202.333" y="986" type="line"/>
		</contour>
	</outline>
	<anchor name="Anchor-0" x="322.333" y="1005.67"/>
</glyph>
<glyph name="Uacute" format="2">
	<unicode hex="00DA"/>
	<advance width="646"/>
	<outline>
		<component base="U"/>
		<contour>
			<point x="275.667" y="789.333" type="line"/>
			<point x="491.333" y="907.333" type="line"/>
			<point x="444" y="988" type="line"/>
			<point x="230.333" y="860" type="line"/>
		</contour>
	</outline>
	<anchor name="Anchor-0" x="322.333" y="1005.67"/>
</glyph>
<glyph name="Ucircumflex" format="2">
	<unicode hex="00DB"/>
	<advance width="646"/>
	<outline>
		<component base="U"/>
		<contour>
			<point x="130.667" y="805" type="line"/>
			<point x="259" y="805" type="line"/>
			<point x="324.333" y="872.333" type="line"/>
			<point x="388.333" y="805" type="line"/>
			<point x="514.667" y="805" type="line"/>
			<point x="370.333" y="939" type="line"/>
			<point x="277" y="939" type="line"/>
		</contour>
	</outline>
	<anchor name="Anchor-0" x="322.333" y="1005.67"/>
</glyph>
<glyph name="Udieresis" format="2">
	<unicode hex="00DC"/>
	<advance width="646"/>
	<outline>
		<component base="U"/>
		<contour>
			<point x="171.667" y="805" type="line"/>
			<point x="285" y="805" type="line"/>
			<point x="285" y="935.667" type="line"/>
			<point x="171.667" y="935.667" type="line"/>
		</contour>
		<contour>
			<point x="360.667" y="805" type="line"/>
			<point x="474" y="805" type="line"/>
			<point x="474" y="935.667" type="line"/>
			<point x="360.667" y="935.667" type="line"/>
		</contour>
	</outline>
	<anchor name="Anchor-0" x="322.333" y="1005.67"/>
</glyph>
<glyph name="Yacute" format="2">
	<unicode hex="00DD"/>
	<advance width="622"/>
	<outline>
		<contour>
			<point x="252.667" y="0" type="line"/>
			<point x="368.667" y="0" type="line"/>
			<point x="368.667" y="264.333" type="line"/>
			<point x="616.667" y="739" type="line"/>
			<point x="491" y="739" type="line"/>
			<point x="310.667" y="374.333" type="line"/>
			<point x="131.333" y="739" type="line"/>
			<point x="5.333" y="739" type="line"/>
			<point x="252.667" y="264.333" type="line"/>
		</contour>
		<contour>
			<point x="264" y="789.333" type="line"/>
			<point x="479.667" y="907.333" type="line"/>
			<point x="432.333" y="988" type="line"/>
			<point x="218.667" y="860" type="line"/>
		</contour>
	</outline>
	<anchor name="Anchor-0" x="310.667" y="1005.67"/>
</glyph>
<glyph name="Thorn" format="2">
	<unicode hex="00DE"/>
	<advance width="581"/>
	<outline>
		<contour>
			<point x="72.667" y="0" type="line"/>
			<point x="188.667" y="0" type="line"/>
			<point x="188.667" y="154.667" type="line"/>
			<point x="265.333" y="154.667" type="line" smooth="yes"/>
			<point x="365.358" y="154.667"/>
			<point x="415.148" y="163.917"/>
			<point x="457" y="190" type="curve" smooth="yes"/>
			<point x="515.557" y="225.583"/>
			<point x="550.333" y="296.491"/>
			<point x="550.333" y="380.667" type="curve" smooth="yes"/>
			<point x="550.333" y="464.193"/>
			<point x="517.175" y="532.074"/>
			<point x="458.333" y="569" type="curve" smooth="yes"/>
			<point x="413.508" y="597.102"/>
			<point x="361.301" y="607.333"/>
			<point x="262.667" y="607.333" type="curve" smooth="yes"/>
			<point x="186.333" y="607.333" type="line"/>
			<point x="186.333" y="739" type="line"/>
			<point x="72.667" y="739" type="line"/>
		</contour>
		<contour>
			<point x="188.667" y="264.333" type="line"/>
			<point x="188.667" y="497.667" type="line"/>
			<point x="254.333" y="497.667" type="line" smooth="yes"/>
			<point x="306.509" y="497.667"/>
			<point x="336.883" y="494.832"/>
			<point x="363" y="487.667" type="curve" smooth="yes"/>
			<point x="407.249" y="474.692"/>
			<point x="433.333" y="434.441"/>
			<point x="433.333" y="379" type="curve" smooth="yes"/>
			<point x="433.333" y="330.895"/>
			<point x="409.942" y="293.624"/>
			<point x="371" y="279.333" type="curve"/>
			<point x="346.871" y="269.006"/>
			<point x="312.14" y="264.333"/>
			<point x="261" y="264.333" type="curve" smooth="yes"/>
		</contour>
	</outline>
	<anchor name="Anchor-0" x="285.333" y="805"/>
</glyph>
<glyph name="germandbls" format="2">
	<unicode hex="00DF"/>
	<advance width="595"/>
	<outline>
		<contour>
			<point x="55.667" y="0" type="line"/>
			<point x="161.667" y="0" type="line"/>
			<point x="161.667" y="89" type="line"/>
			<point x="198.589" y="20.814"/>
			<point x="258.157" y="-13"/>
			<point x="341.667" y="-13" type="curve" smooth="yes"/>
			<point x="472.304" y="-13"/>
			<point x="566" y="80.304"/>
			<point x="566" y="210.333" type="curve" smooth="yes"/>
			<point x="566" y="308.501"/>
			<point x="510.705" y="375.607"/>
			<point x="408.333" y="401.667" type="curve"/>
			<point x="462.41" y="432.521"/>
			<point x="486.667" y="477.009"/>
			<point x="486.667" y="545.333" type="curve" smooth="yes"/>
			<point x="486.667" y="663.105"/>
			<point x="393.891" y="752"/>
			<point x="271" y="752" type="curve" smooth="yes"/>
			<point x="134.073" y="752"/>
			<point x="55.667" y="655.03"/>
			<point x="55.667" y="485" type="curve" smooth="yes"/>
		</contour>
		<contour>
			<point x="169" y="193.667" type="line"/>
			<point x="169" y="495.667" type="line" smooth="yes"/>
			<point x="169" y="597.715"/>
			<point x="202.567" y="648"/>
			<point x="270.667" y="648" type="curve" smooth="yes"/>
			<point x="331.085" y="648"/>
			<point x="372.333" y="604.265"/>
			<point x="372.333" y="540" type="curve" smooth="yes"/>
			<point x="372.333" y="471.76"/>
			<point x="326.104" y="424.667"/>
			<point x="258.333" y="424.667" type="curve" smooth="yes"/>
			<point x="246.667" y="424.667" type="line"/>
			<point x="246.667" y="323.667" type="line"/>
			<point x="257.691" y="324.238"/>
			<point x="264.023" y="324.333"/>
			<point x="269" y="324.333" type="curve" smooth="yes"/>
			<point x="392.122" y="324.333"/>
			<point x="451.667" y="283.988"/>
			<point x="451.667" y="202.333" type="curve" smooth="yes"/>
			<point x="451.667" y="139.086"/>
			<point x="406.749" y="91"/>
			<point x="347.667" y="91" type="curve" smooth="yes"/>
			<point x="291.953" y="91"/>
			<point x="247.396" y="133.711"/>
			<point x="240.667" y="193.667" type="curve"/>
		</contour>
	</outline>
	<anchor name="Anchor-0" x="272.333" y="805"/>
</glyph>
<glyph name="agrave" format="2">
	<unicode hex="00E0"/>
	<advance width="672"/>
	<outline>
		<contour>
			<point x="509.333" y="0" type="line"/>
			<point x="615.333" y="0" type="line"/>
			<point x="615.333" y="551.667" type="line"/>
			<point x="509.333" y="551.667" type="line"/>
			<point x="509.333" y="470" type="line"/>
			<point x="460.62" y="535.945"/>
			<point x="402.169" y="564.667"/>
			<point x="316.667" y="564.667" type="curve" smooth="yes"/>
			<point x="152.929" y="564.667"/>
			<point x="32.667" y="441.605"/>
			<point x="32.667" y="274" type="curve" smooth="yes"/>
			<point x="32.667" y="107.954"/>
			<point x="152.376" y="-13"/>
			<point x="316.667" y="-13" type="curve" smooth="yes"/>
			<point x="399.895" y="-13"/>
			<point x="454.825" y="13.501"/>
			<point x="509.333" y="80" type="curve"/>
		</contour>
		<contour>
			<point x="219.667" y="199.667" type="curve" smooth="yes"/>
			<point x="179.186" y="266.519"/>
			<point x="191.838" y="347.482"/>
			<point x="253.667" y="388.333" type="curve"/>
			<point x="318.353" y="428.293"/>
			<point x="395.294" y="413.98"/>
			<point x="434.333" y="347.333" type="curve"/>
			<point x="475.667" y="281.34"/>
			<point x="463.339" y="205.667"/>
			<point x="399.333" y="164.333" type="curve" smooth="yes"/>
			<point x="334.468" y="122.987"/>
			<point x="259.321" y="135.197"/>
		</contour>
		<contour>
			<point x="179.667" y="730.667" type="line"/>
			<point x="396" y="612" type="line"/>
			<point x="442.333" y="683.333" type="line"/>
			<point x="228.333" y="808.667" type="line"/>
		</contour>
	</outline>
	<anchor name="Anchor-0" x="348.333" y="828.333"/>
</glyph>
<glyph name="aacute" format="2">
	<unicode hex="00E1"/>
	<advance width="672"/>
	<outline>
		<component base="a"/>
		<contour>
			<point x="297" y="612" type="line"/>
			<point x="512.667" y="730" type="line"/>
			<point x="465.333" y="810.667" type="line"/>
			<point x="251.667" y="682.667" type="line"/>
		</contour>
	</outline>
	<anchor name="Anchor-0" x="348.333" y="828.333"/>
</glyph>
<glyph name="acircumflex" format="2">
	<unicode hex="00E2"/>
	<advance width="672"/>
	<outline>
		<component base="a"/>
		<contour>
			<point x="154" y="627.667" type="line"/>
			<point x="282.333" y="627.667" type="line"/>
			<point x="347.667" y="695" type="line"/>
			<point x="411.667" y="627.667" type="line"/>
			<point x="538" y="627.667" type="line"/>
			<point x="393.667" y="761.667" type="line"/>
			<point x="300.333" y="761.667" type="line"/>
		</contour>
	</outline>
	<anchor name="Anchor-0" x="348.333" y="828.333"/>
</glyph>
<glyph name="atilde" format="2">
	<unicode hex="00E3"/>
	<advance width="672"/>
	<outline>
		<component base="a"/>
		<contour>
			<point x="234.333" y="635" type="line"/>
			<point x="265.638" y="657.557"/>
			<point x="275.934" y="662.333"/>
			<point x="301" y="662.333" type="curve" smooth="yes"/>
			<point x="315.539" y="662.333"/>
			<point x="326.296" y="659.81"/>
			<point x="350.333" y="651" type="curve" smooth="yes"/>
			<point x="380.676" y="639.168"/>
			<point x="397.236" y="635"/>
			<point x="411.667" y="635" type="curve" smooth="yes"/>
			<point x="445.766" y="635"/>
			<point x="477.835" y="653.108"/>
			<point x="504.667" y="688" type="curve"/>
			<point x="457.667" y="757.333" type="line"/>
			<point x="436.826" y="734.175"/>
			<point x="417.84" y="724.333"/>
			<point x="394" y="724.333" type="curve" smooth="yes"/>
			<point x="381.337" y="724.333"/>
			<point x="365.182" y="728.534"/>
			<point x="346.667" y="736.333" type="curve" smooth="yes"/>
			<point x="316.537" y="749.061"/>
			<point x="307.502" y="751.333"/>
			<point x="287" y="751.333" type="curve" smooth="yes"/>
			<point x="247.127" y="751.333"/>
			<point x="218.434" y="737.44"/>
			<point x="187.333" y="703.667" type="curve"/>
		</contour>
	</outline>
	<anchor name="Anchor-0" x="348.333" y="828.333"/>
</glyph>
<glyph name="adieresis" format="2">
	<unicode hex="00E4"/>
	<advance width="672"/>
	<outline>
		<component base="a"/>
		<contour>
			<point x="195" y="627.667" type="line"/>
			<point x="308.333" y="627.667" type="line"/>
			<point x="308.333" y="758.333" type="line"/>
			<point x="195" y="758.333" type="line"/>
		</contour>
		<contour>
			<point x="384" y="627.667" type="line"/>
			<point x="497.333" y="627.667" type="line"/>
			<point x="497.333" y="758.333" type="line"/>
			<point x="384" y="758.333" type="line"/>
		</contour>
	</outline>
	<anchor name="Anchor-0" x="347" y="828.333"/>
</glyph>
<glyph name="aring" format="2">
	<unicode hex="00E5"/>
	<advance width="672"/>
	<outline>
		<component base="a"/>
		<contour>
			<point x="315.667" y="640.333" type="curve" smooth="yes"/>
			<point x="353.667" y="623.592"/>
			<point x="398.075" y="640.667"/>
			<point x="415" y="678.667" type="curve" smooth="yes"/>
			<point x="432" y="716.183"/>
			<point x="414.819" y="761"/>
			<point x="377.667" y="778" type="curve" smooth="yes"/>
			<point x="339.149" y="794.758"/>
			<point x="294.576" y="778.147"/>
			<point x="278" y="740" type="curve" smooth="yes"/>
			<point x="260.667" y="702"/>
			<point x="277.667" y="657.667"/>
		</contour>
		<contour>
			<point x="305.333" y="709" type="curve" smooth="yes"/>
			<point x="305.333" y="731.694"/>
			<point x="323.371" y="750.333"/>
			<point x="345.333" y="750.333" type="curve" smooth="yes"/>
			<point x="368.852" y="750.333"/>
			<point x="387.333" y="732.144"/>
			<point x="387.333" y="709" type="curve" smooth="yes"/>
			<point x="387.333" y="686.592"/>
			<point x="368.923" y="668.333"/>
			<point x="346.333" y="668.333" type="curve" smooth="yes"/>
			<point x="323.573" y="668.333"/>
			<point x="305.333" y="686.425"/>
		</contour>
	</outline>
	<anchor name="Anchor-0" x="347" y="833.333"/>
</glyph>
<glyph name="ae" format="2">
	<unicode hex="00E6"/>
	<advance width="1104"/>
	<outline>
		<contour>
			<point x="504.667" y="0" type="line"/>
			<point x="609.667" y="0" type="line"/>
			<point x="609.667" y="70.667" type="line"/>
			<point x="659.025" y="13.304"/>
			<point x="717.366" y="-13"/>
			<point x="795.667" y="-13" type="curve" smooth="yes"/>
			<point x="911.654" y="-13"/>
			<point x="1020.23" y="63.022"/>
			<point x="1055" y="168.667" type="curve"/>
			<point x="932.667" y="168.667" type="line"/>
			<point x="901.217" y="117.949"/>
			<point x="853.362" y="91"/>
			<point x="791.667" y="91" type="curve" smooth="yes"/>
			<point x="703.923" y="91"/>
			<point x="634.337" y="145.743"/>
			<point x="615.667" y="228.333" type="curve"/>
			<point x="1065.33" y="228.333" type="line"/>
			<point x="1070.56" y="252.571"/>
			<point x="1072.26" y="267.818"/>
			<point x="1072.26" y="287.869" type="curve" smooth="yes"/>
			<point x="1072.17" y="444.481"/>
			<point x="950.822" y="564.667"/>
			<point x="792.667" y="564.667" type="curve" smooth="yes"/>
			<point x="715.82" y="564.667"/>
			<point x="660.769" y="540.122"/>
			<point x="609.667" y="483.333" type="curve"/>
			<point x="609.667" y="551.667" type="line"/>
			<point x="504.667" y="551.667" type="line"/>
			<point x="504.667" y="483.333" type="line"/>
			<point x="455.915" y="540.108"/>
			<point x="400.523" y="564.667"/>
			<point x="320.667" y="564.667" type="curve" smooth="yes"/>
			<point x="157.267" y="564.667"/>
			<point x="32.667" y="438.908"/>
			<point x="32.667" y="274" type="curve" smooth="yes"/>
			<point x="32.667" y="110.093"/>
			<point x="156.906" y="-13"/>
			<point x="322.333" y="-13" type="curve" smooth="yes"/>
			<point x="403.674" y="-13"/>
			<point x="454.198" y="10.237"/>
			<point x="504.667" y="70.667" type="curve"/>
		</contour>
		<contour>
			<point x="325.667" y="91" type="curve" smooth="yes"/>
			<point x="224.096" y="91"/>
			<point x="147.333" y="170.9"/>
			<point x="147.333" y="276.667" type="curve" smooth="yes"/>
			<point x="147.333" y="380.342"/>
			<point x="224.013" y="460.667"/>
			<point x="323" y="460.667" type="curve" smooth="yes"/>
			<point x="426.666" y="460.667"/>
			<point x="502.667" y="382.672"/>
			<point x="502.667" y="276.333" type="curve" smooth="yes"/>
			<point x="502.667" y="170.783"/>
			<point x="426.464" y="91"/>
		</contour>
		<contour>
			<point x="612" y="329.333" type="line"/>
			<point x="634.573" y="412.842"/>
			<point x="696.823" y="460.667"/>
			<point x="784.667" y="460.667" type="curve" smooth="yes"/>
			<point x="874.403" y="460.667"/>
			<point x="935.346" y="413.264"/>
			<point x="954.667" y="329.333" type="curve"/>
		</contour>
	</outline>
	<anchor name="Anchor-0" x="556.667" y="627.667"/>
</glyph>
<glyph name="ccedilla" format="2">
	<unicode hex="00E7"/>
	<advance width="632"/>
	<outline>
		<contour>
			<point x="234.333" y="-161" type="line"/>
			<point x="242.286" y="-209.751"/>
			<point x="280.086" y="-242"/>
			<point x="329.333" y="-242" type="curve" smooth="yes"/>
			<point x="385.422" y="-242"/>
			<point x="422.333" y="-203.24"/>
			<point x="422.333" y="-144.333" type="curve" smooth="yes"/>
			<point x="422.333" y="-90.429"/>
			<point x="386.753" y="-51"/>
			<point x="338" y="-51" type="curve" smooth="yes"/>
			<point x="325.738" y="-51"/>
			<point x="318.757" y="-52.56"/>
			<point x="306.667" y="-58" type="curve"/>
			<point x="325.667" y="-13" type="line"/>
			<point x="456.206" y="-13"/>
			<point x="554.996" y="54.244"/>
			<point x="602" y="175" type="curve"/>
			<point x="474" y="175" type="line"/>
			<point x="432.892" y="115.523"/>
			<point x="390.188" y="91"/>
			<point x="327.667" y="91" type="curve" smooth="yes"/>
			<point x="225.177" y="91"/>
			<point x="147" y="171.163"/>
			<point x="147" y="276.333" type="curve" smooth="yes"/>
			<point x="147" y="382.787"/>
			<point x="222.114" y="460.667"/>
			<point x="324.667" y="460.667" type="curve" smooth="yes"/>
			<point x="392.128" y="460.667"/>
			<point x="442.207" y="431.273"/>
			<point x="474" y="373" type="curve"/>
			<point x="601.667" y="373" type="line"/>
			<point x="557.668" y="493.014"/>
			<point x="454.177" y="564.667"/>
			<point x="325" y="564.667" type="curve" smooth="yes"/>
			<point x="161.048" y="564.667"/>
			<point x="32.667" y="438.046"/>
			<point x="32.667" y="276.333" type="curve" smooth="yes"/>
			<point x="32.667" y="131.384"/>
			<point x="137.282" y="12.34"/>
			<point x="284" y="-9.667" type="curve"/>
			<point x="244.333" y="-101.333" type="line"/>
			<point x="289" y="-124.667" type="line"/>
			<point x="301.847" y="-107.333"/>
			<point x="312.75" y="-100.667"/>
			<point x="328.333" y="-100.667" type="curve" smooth="yes"/>
			<point x="352.426" y="-100.667"/>
			<point x="369.333" y="-119.778"/>
			<point x="369.333" y="-147" type="curve" smooth="yes"/>
			<point x="369.333" y="-172.732"/>
			<point x="352.6" y="-191"/>
			<point x="329" y="-191" type="curve" smooth="yes"/>
			<point x="309.737" y="-191"/>
			<point x="296.396" y="-180.437"/>
			<point x="289" y="-159.333" type="curve"/>
		</contour>
	</outline>
	<anchor name="Anchor-0" x="325" y="627.667"/>
</glyph>
<glyph name="eacute" format="2">
	<unicode hex="00E9"/>
	<advance width="639"/>
	<outline>
		<component base="e"/>
		<contour>
			<point x="277.333" y="612" type="line"/>
			<point x="493" y="730" type="line"/>
			<point x="445.667" y="810.667" type="line"/>
			<point x="232" y="682.667" type="line"/>
		</contour>
	</outline>
	<anchor name="Anchor-0" x="325.667" y="828.333"/>
</glyph>
<glyph name="ecircumflex" format="2">
	<unicode hex="00EA"/>
	<advance width="639"/>
	<outline>
		<component base="e"/>
		<contour>
			<point x="133.667" y="627.667" type="line"/>
			<point x="262" y="627.667" type="line"/>
			<point x="327.333" y="695" type="line"/>
			<point x="391.333" y="627.667" type="line"/>
			<point x="517.667" y="627.667" type="line"/>
			<point x="373.333" y="761.667" type="line"/>
			<point x="280" y="761.667" type="line"/>
		</contour>
	</outline>
	<anchor name="Anchor-0" x="325.667" y="828.333"/>
</glyph>
<glyph name="igrave" format="2">
	<unicode hex="00EC"/>
	<advance width="227"/>
	<outline>
		<contour>
			<point x="57" y="0" type="line"/>
			<point x="170.333" y="0" type="line"/>
			<point x="170.333" y="551.667" type="line"/>
			<point x="57" y="551.667" type="line"/>
		</contour>
		<contour>
			<point x="-15.667" y="730.667" type="line"/>
			<point x="200.667" y="612" type="line"/>
			<point x="247" y="683.333" type="line"/>
			<point x="33" y="808.667" type="line"/>
		</contour>
	</outline>
	<anchor name="Anchor-0" x="113.333" y="828.333"/>
</glyph>
<glyph name="iacute" format="2">
	<unicode hex="00ED"/>
	<advance width="227"/>
	<outline>
		<contour>
			<point x="57" y="0" type="line"/>
			<point x="170.333" y="0" type="line"/>
			<point x="170.333" y="551.667" type="line"/>
			<point x="57" y="551.667" type="line"/>
		</contour>
		<contour>
			<point x="30.333" y="612" type="line"/>
			<point x="246" y="730" type="line"/>
			<point x="198.667" y="810.667" type="line"/>
			<point x="-15" y="682.667" type="line"/>
		</contour>
	</outline>
	<anchor name="Anchor-0" x="113.333" y="828.333"/>
</glyph>
<glyph name="icircumflex" format="2">
	<unicode hex="00EE"/>
	<advance width="227"/>
	<outline>
		<contour>
			<point x="57" y="0" type="line"/>
			<point x="170.333" y="0" type="line"/>
			<point x="170.333" y="551.667" type="line"/>
			<point x="57" y="551.667" type="line"/>
		</contour>
		<contour>
			<point x="-78.333" y="627.667" type="line"/>
			<point x="50" y="627.667" type="line"/>
			<point x="115.333" y="695" type="line"/>
			<point x="179.333" y="627.667" type="line"/>
			<point x="305.667" y="627.667" type="line"/>
			<point x="161.333" y="761.667" type="line"/>
			<point x="68" y="761.667" type="line"/>
		</contour>
	</outline>
	<anchor name="Anchor-0" x="113.333" y="828.333"/>
</glyph>
<glyph name="eth" format="2">
	<unicode hex="00F0"/>
	<advance width="648"/>
	<outline>
		<contour>
			<point x="32.667" y="276.667" type="curve" smooth="yes"/>
			<point x="32.667" y="114.716"/>
			<point x="162.288" y="-13"/>
			<point x="326.667" y="-13" type="curve" smooth="yes"/>
			<point x="491.661" y="-13"/>
			<point x="615.667" y="113.657"/>
			<point x="615.667" y="282.333" type="curve" smooth="yes"/>
			<point x="615.667" y="408.691"/>
			<point x="546.773" y="521.526"/>
			<point x="383" y="663.333" type="curve"/>
			<point x="464.667" y="699.667" type="line"/>
			<point x="424.333" y="747" type="line"/>
			<point x="334.667" y="706.333" type="line"/>
			<point x="315.339" y="723.225"/>
			<point x="297.99" y="736.143"/>
			<point x="268.667" y="756" type="curve"/>
			<point x="182.333" y="723" type="line"/>
			<point x="206.205" y="706.65"/>
			<point x="225.957" y="689.897"/>
			<point x="249" y="666.667" type="curve"/>
			<point x="170.667" y="630.333" type="line"/>
			<point x="209.333" y="584.333" type="line"/>
			<point x="296.333" y="624" type="line"/>
			<point x="326.105" y="600.108"/>
			<point x="343.166" y="583.707"/>
			<point x="379.333" y="544" type="curve"/>
			<point x="345.985" y="552.8"/>
			<point x="324.389" y="556"/>
			<point x="302" y="556" type="curve" smooth="yes"/>
			<point x="153.574" y="556"/>
			<point x="32.667" y="430.583"/>
		</contour>
		<contour>
			<point x="147" y="275.333" type="curve" smooth="yes"/>
			<point x="147" y="378.534"/>
			<point x="224.542" y="460.667"/>
			<point x="322" y="460.667" type="curve" smooth="yes"/>
			<point x="424.167" y="460.667"/>
			<point x="501.333" y="380.494"/>
			<point x="501.333" y="274.333" type="curve" smooth="yes"/>
			<point x="501.333" y="170.655"/>
			<point x="424.987" y="91"/>
			<point x="325.667" y="91" type="curve" smooth="yes"/>
			<point x="225.239" y="91"/>
			<point x="147" y="171.77"/>
		</contour>
	</outline>
	<anchor name="Anchor-0" x="324.667" y="805"/>
</glyph>
<glyph name="ntilde" format="2">
	<unicode hex="00F1"/>
	<advance width="602"/>
	<outline>
		<component base="n"/>
		<contour>
			<point x="181.333" y="635" type="line"/>
			<point x="213.008" y="657.982"/>
			<point x="222.508" y="662.333"/>
			<point x="248" y="662.333" type="curve" smooth="yes"/>
			<point x="262.539" y="662.333"/>
			<point x="273.296" y="659.81"/>
			<point x="297.333" y="651" type="curve" smooth="yes"/>
			<point x="327.676" y="639.168"/>
			<point x="344.236" y="635"/>
			<point x="358.667" y="635" type="curve" smooth="yes"/>
			<point x="392.766" y="635"/>
			<point x="424.835" y="653.108"/>
			<point x="451.667" y="688" type="curve"/>
			<point x="404.667" y="757.333" type="line"/>
			<point x="383.826" y="734.175"/>
			<point x="364.84" y="724.333"/>
			<point x="341" y="724.333" type="curve" smooth="yes"/>
			<point x="328.337" y="724.333"/>
			<point x="312.182" y="728.534"/>
			<point x="293.667" y="736.333" type="curve" smooth="yes"/>
			<point x="263.537" y="749.061"/>
			<point x="254.502" y="751.333"/>
			<point x="234" y="751.333" type="curve" smooth="yes"/>
			<point x="194.127" y="751.333"/>
			<point x="165.434" y="737.44"/>
			<point x="134.333" y="703.667" type="curve"/>
		</contour>
	</outline>
	<anchor name="Anchor-0" x="301.667" y="828.333"/>
</glyph>
<glyph name="ograve" format="2">
	<unicode hex="00F2"/>
	<advance width="648"/>
	<outline>
		<contour>
			<point x="32.667" y="275" type="curve" smooth="yes"/>
			<point x="32.667" y="114.177"/>
			<point x="162.493" y="-13"/>
			<point x="326.667" y="-13" type="curve" smooth="yes"/>
			<point x="488.175" y="-13"/>
			<point x="615.667" y="113.841"/>
			<point x="615.667" y="274.667" type="curve" smooth="yes"/>
			<point x="615.667" y="436.485"/>
			<point x="488.182" y="564.667"/>
			<point x="327.333" y="564.667" type="curve" smooth="yes"/>
			<point x="160.931" y="564.667"/>
			<point x="32.667" y="438.592"/>
		</contour>
		<contour>
			<point x="325.333" y="91" type="curve" smooth="yes"/>
			<point x="225.168" y="91"/>
			<point x="147" y="171.841"/>
			<point x="147" y="275.333" type="curve" smooth="yes"/>
			<point x="147" y="378.534"/>
			<point x="224.542" y="460.667"/>
			<point x="322" y="460.667" type="curve" smooth="yes"/>
			<point x="424.167" y="460.667"/>
			<point x="501.333" y="380.494"/>
			<point x="501.333" y="274.333" type="curve" smooth="yes"/>
			<point x="501.333" y="170.924"/>
			<point x="424.593" y="91"/>
		</contour>
		<contour>
			<point x="159.667" y="730.667" type="line"/>
			<point x="376" y="612" type="line"/>
			<point x="422.333" y="683.333" type="line"/>
			<point x="208.333" y="808.667" type="line"/>
		</contour>
	</outline>
	<anchor name="Anchor-0" x="323.667" y="828.333"/>
</glyph>
<glyph name="otilde" format="2">
	<unicode hex="00F5"/>
	<advance width="648"/>
	<outline>
		<component base="o"/>
		<contour>
			<point x="32.667" y="275" type="curve" smooth="yes"/>
			<point x="32.667" y="114.177"/>
			<point x="162.493" y="-13"/>
			<point x="326.667" y="-13" type="curve" smooth="yes"/>
			<point x="488.175" y="-13"/>
			<point x="615.667" y="113.841"/>
			<point x="615.667" y="274.667" type="curve" smooth="yes"/>
			<point x="615.667" y="436.485"/>
			<point x="488.182" y="564.667"/>
			<point x="327.333" y="564.667" type="curve" smooth="yes"/>
			<point x="160.931" y="564.667"/>
			<point x="32.667" y="438.592"/>
		</contour>
		<contour>
			<point x="325.333" y="91" type="curve" smooth="yes"/>
			<point x="225.168" y="91"/>
			<point x="147" y="171.841"/>
			<point x="147" y="275.333" type="curve" smooth="yes"/>
			<point x="147" y="378.534"/>
			<point x="224.542" y="460.667"/>
			<point x="322" y="460.667" type="curve" smooth="yes"/>
			<point x="424.167" y="460.667"/>
			<point x="501.333" y="380.494"/>
			<point x="501.333" y="274.333" type="curve" smooth="yes"/>
			<point x="501.333" y="170.924"/>
			<point x="424.593" y="91"/>
		</contour>
		<contour>
			<point x="216.667" y="635" type="line"/>
			<point x="247.456" y="657.673"/>
			<point x="257.534" y="662.333"/>
			<point x="283.333" y="662.333" type="curve" smooth="yes"/>
			<point x="297.873" y="662.333"/>
			<point x="308.63" y="659.81"/>
			<point x="332.667" y="651" type="curve" smooth="yes"/>
			<point x="363.009" y="639.168"/>
			<point x="379.569" y="635"/>
			<point x="394" y="635" type="curve" smooth="yes"/>
			<point x="428.099" y="635"/>
			<point x="460.168" y="653.108"/>
			<point x="487" y="688" type="curve"/>
			<point x="440" y="757.333" type="line"/>
			<point x="419.16" y="734.175"/>
			<point x="400.173" y="724.333"/>
			<point x="376.333" y="724.333" type="curve" smooth="yes"/>
			<point x="363.67" y="724.333"/>
			<point x="347.515" y="728.534"/>
			<point x="329" y="736.333" type="curve" smooth="yes"/>
			<point x="298.87" y="749.061"/>
			<point x="289.835" y="751.333"/>
			<point x="269.333" y="751.333" type="curve" smooth="yes"/>
			<point x="229.46" y="751.333"/>
			<point x="200.767" y="737.44"/>
			<point x="169.667" y="703.667" type="curve"/>
		</contour>
	</outline>
	<anchor name="Anchor-0" x="323.667" y="828.333"/>
</glyph>
<glyph name="odieresis" format="2">
	<unicode hex="00F6"/>
	<advance width="648"/>
	<outline>
		<contour>
			<point x="32.667" y="275" type="curve" smooth="yes"/>
			<point x="32.667" y="114.177"/>
			<point x="162.493" y="-13"/>
			<point x="326.667" y="-13" type="curve" smooth="yes"/>
			<point x="488.175" y="-13"/>
			<point x="615.667" y="113.841"/>
			<point x="615.667" y="274.667" type="curve" smooth="yes"/>
			<point x="615.667" y="436.485"/>
			<point x="488.182" y="564.667"/>
			<point x="327.333" y="564.667" type="curve" smooth="yes"/>
			<point x="160.931" y="564.667"/>
			<point x="32.667" y="438.592"/>
		</contour>
		<contour>
			<point x="325.333" y="91" type="curve" smooth="yes"/>
			<point x="225.168" y="91"/>
			<point x="147" y="171.841"/>
			<point x="147" y="275.333" type="curve" smooth="yes"/>
			<point x="147" y="378.534"/>
			<point x="224.542" y="460.667"/>
			<point x="322" y="460.667" type="curve" smooth="yes"/>
			<point x="424.167" y="460.667"/>
			<point x="501.333" y="380.494"/>
			<point x="501.333" y="274.333" type="curve" smooth="yes"/>
			<point x="501.333" y="170.924"/>
			<point x="424.593" y="91"/>
		</contour>
		<contour>
			<point x="173" y="627.667" type="line"/>
			<point x="286.333" y="627.667" type="line"/>
			<point x="286.333" y="758.333" type="line"/>
			<point x="173" y="758.333" type="line"/>
		</contour>
		<contour>
			<point x="362" y="627.667" type="line"/>
			<point x="475.333" y="627.667" type="line"/>
			<point x="475.333" y="758.333" type="line"/>
			<point x="362" y="758.333" type="line"/>
		</contour>
	</outline>
	<anchor name="Anchor-0" x="323.667" y="828.333"/>
</glyph>
<glyph name="divide" format="2">
	<unicode hex="00F7"/>
	<advance width="602"/>
	<outline>
		<contour>
			<point x="241" y="495" type="line"/>
			<point x="360" y="495" type="line"/>
			<point x="360" y="611.333" type="line"/>
			<point x="241" y="611.333" type="line"/>
		</contour>
		<contour>
			<point x="241" y="86" type="line"/>
			<point x="360" y="86" type="line"/>
			<point x="360" y="202.333" type="line"/>
			<point x="241" y="202.333" type="line"/>
		</contour>
		<contour>
			<point x="49" y="297" type="line"/>
			<point x="553" y="297" type="line"/>
			<point x="553" y="400.333" type="line"/>
			<point x="49" y="400.333" type="line"/>
		</contour>
	</outline>
</glyph>
<glyph name="oslash" format="2">
	<unicode hex="00F8"/>
	<advance width="648"/>
	<outline>
		<contour>
			<point x="62.333" y="-6.333" type="line"/>
			<point x="136.667" y="-57.667" type="line"/>
			<point x="191.333" y="19.333" type="line"/>
			<point x="237.439" y="-3.401"/>
			<point x="277.752" y="-13"/>
			<point x="325.667" y="-13" type="curve" smooth="yes"/>
			<point x="488.406" y="-13"/>
			<point x="615.667" y="114.738"/>
			<point x="615.667" y="278.333" type="curve" smooth="yes"/>
			<point x="615.667" y="360.771"/>
			<point x="584.829" y="430.516"/>
			<point x="523.333" y="487.333" type="curve"/>
			<point x="575.333" y="560.667" type="line"/>
			<point x="500.333" y="613.333" type="line"/>
			<point x="446.667" y="537" type="line"/>
			<point x="407" y="555.903"/>
			<point x="368.673" y="564.667"/>
			<point x="325.333" y="564.667" type="curve" smooth="yes"/>
			<point x="163.082" y="564.667"/>
			<point x="32.667" y="435.745"/>
			<point x="32.667" y="275.333" type="curve" smooth="yes"/>
			<point x="32.667" y="197.68"/>
			<point x="60.659" y="130.667"/>
			<point x="117.333" y="72" type="curve"/>
		</contour>
		<contour>
			<point x="181.333" y="163.667" type="line"/>
			<point x="157.324" y="200.868"/>
			<point x="147" y="234.238"/>
			<point x="147" y="274" type="curve" smooth="yes"/>
			<point x="147" y="378.093"/>
			<point x="225.757" y="460.667"/>
			<point x="325" y="460.667" type="curve" smooth="yes"/>
			<point x="347.467" y="460.667"/>
			<point x="365.121" y="457.212"/>
			<point x="385.333" y="449.333" type="curve"/>
		</contour>
		<contour>
			<point x="461" y="397.333" type="line"/>
			<point x="488.536" y="361.401"/>
			<point x="501.333" y="323.329"/>
			<point x="501.333" y="277.333" type="curve" smooth="yes"/>
			<point x="501.333" y="171.545"/>
			<point x="424.216" y="91"/>
			<point x="323" y="91" type="curve" smooth="yes"/>
			<point x="297.442" y="91"/>
			<point x="278.11" y="94.956"/>
			<point x="252" y="105.667" type="curve"/>
		</contour>
	</outline>
	<anchor name="Anchor-0" x="324.333" y="627.667"/>
</glyph>
<glyph name="ugrave" format="2">
	<unicode hex="00F9"/>
	<advance width="602"/>
	<outline>
		<component base="u"/>
		<contour>
			<point x="131.333" y="730.667" type="line"/>
			<point x="347.667" y="612" type="line"/>
			<point x="394" y="683.333" type="line"/>
			<point x="180" y="808.667" type="line"/>
		</contour>
	</outline>
	<anchor name="Anchor-0" x="300" y="828.333"/>
</glyph>
<glyph name="uacute" format="2">
	<unicode hex="00FA"/>
	<advance width="602"/>
	<outline>
		<component base="u"/>
		<contour>
			<point x="253.333" y="612" type="line"/>
			<point x="469" y="730" type="line"/>
			<point x="421.667" y="810.667" type="line"/>
			<point x="208" y="682.667" type="line"/>
		</contour>
	</outline>
	<anchor name="Anchor-0" x="300" y="828.333"/>
</glyph>
<glyph name="ucircumflex" format="2">
	<unicode hex="00FB"/>
	<advance width="602"/>
	<outline>
		<component base="u"/>
		<contour>
			<point x="108.333" y="627.667" type="line"/>
			<point x="236.667" y="627.667" type="line"/>
			<point x="302" y="695" type="line"/>
			<point x="366" y="627.667" type="line"/>
			<point x="492.333" y="627.667" type="line"/>
			<point x="348" y="761.667" type="line"/>
			<point x="254.667" y="761.667" type="line"/>
		</contour>
	</outline>
	<anchor name="Anchor-0" x="300" y="828.333"/>
</glyph>
<glyph name="udieresis" format="2">
	<unicode hex="00FC"/>
	<advance width="602"/>
	<outline>
		<component base="u"/>
		<contour>
			<point x="149.333" y="627.667" type="line"/>
			<point x="262.667" y="627.667" type="line"/>
			<point x="262.667" y="758.333" type="line"/>
			<point x="149.333" y="758.333" type="line"/>
		</contour>
		<contour>
			<point x="338.333" y="627.667" type="line"/>
			<point x="451.667" y="627.667" type="line"/>
			<point x="451.667" y="758.333" type="line"/>
			<point x="338.333" y="758.333" type="line"/>
		</contour>
	</outline>
	<anchor name="Anchor-0" x="300" y="828.333"/>
</glyph>
<glyph name="yacute" format="2">
	<unicode hex="00FD"/>
	<advance width="557"/>
	<outline>
		<contour>
			<point x="112" y="-187.333" type="line"/>
			<point x="233.667" y="-187.333" type="line"/>
			<point x="552.333" y="551.667" type="line"/>
			<point x="424" y="551.667" type="line"/>
			<point x="273" y="167" type="line"/>
			<point x="133.333" y="551.667" type="line"/>
			<point x="5" y="551.667" type="line"/>
			<point x="211" y="40.667" type="line"/>
		</contour>
		<contour>
			<point x="211" y="612" type="line"/>
			<point x="426.667" y="730" type="line"/>
			<point x="379.333" y="810.667" type="line"/>
			<point x="165.667" y="682.667" type="line"/>
		</contour>
	</outline>
	<anchor name="Anchor-0" x="277.667" y="828.333"/>
</glyph>
<glyph name="thorn" format="2">
	<unicode hex="00FE"/>
	<advance width="669"/>
	<outline>
		<contour>
			<point x="57" y="-187.333" type="line"/>
			<point x="170.333" y="-187.333" type="line"/>
			<point x="170.333" y="70.667" type="line"/>
			<point x="214.636" y="15.75"/>
			<point x="278.387" y="-13"/>
			<point x="356" y="-13" type="curve" smooth="yes"/>
			<point x="517.295" y="-13"/>
			<point x="636" y="109.301"/>
			<point x="636" y="275.667" type="curve" smooth="yes"/>
			<point x="636" y="442.481"/>
			<point x="517.848" y="564.667"/>
			<point x="356.667" y="564.667" type="curve" smooth="yes"/>
			<point x="278.002" y="564.667"/>
			<point x="213.947" y="535.881"/>
			<point x="170.333" y="481" type="curve"/>
			<point x="170.333" y="739" type="line"/>
			<point x="57" y="739" type="line"/>
		</contour>
		<contour>
			<point x="343.667" y="91" type="curve" smooth="yes"/>
			<point x="240.904" y="91"/>
			<point x="163.333" y="170.424"/>
			<point x="163.333" y="275.667" type="curve" smooth="yes"/>
			<point x="163.333" y="379.999"/>
			<point x="240.664" y="460.667"/>
			<point x="340.667" y="460.667" type="curve" smooth="yes"/>
			<point x="444.996" y="460.667"/>
			<point x="521.667" y="382.008"/>
			<point x="521.667" y="275" type="curve" smooth="yes"/>
			<point x="521.667" y="170.635"/>
			<point x="444.637" y="91"/>
		</contour>
	</outline>
	<anchor name="Anchor-0" x="341.667" y="744.333"/>
</glyph>
<glyph name="ydieresis" format="2">
	<unicode hex="00FF"/>
	<advance width="557"/>
	<outline>
		<contour>
			<point x="112" y="-187.333" type="line"/>
			<point x="233.667" y="-187.333" type="line"/>
			<point x="552.333" y="551.667" type="line"/>
			<point x="424" y="551.667" type="line"/>
			<point x="273" y="167" type="line"/>
			<point x="133.333" y="551.667" type="line"/>
			<point x="5" y="551.667" type="line"/>
			<point x="211" y="40.667" type="line"/>
		</contour>
		<contour>
			<point x="127" y="627.667" type="line"/>
			<point x="240.333" y="627.667" type="line"/>
			<point x="240.333" y="758.333" type="line"/>
			<point x="127" y="758.333" type="line"/>
		</contour>
		<contour>
			<point x="316" y="627.667" type="line"/>
			<point x="429.333" y="627.667" type="line"/>
			<point x="429.333" y="758.333" type="line"/>
			<point x="316" y="758.333" type="line"/>
		</contour>
	</outline>
	<anchor name="Anchor-0" x="277.667" y="828.333"/>
</glyph>
<glyph name="Ldot" format="2">
	<unicode hex="013F"/>
	<advance width="457"/>
	<outline>
		<contour>
			<point x="303" y="310.333" type="line"/>
			<point x="416.333" y="310.333" type="line"/>
			<point x="416.333" y="441" type="line"/>
			<point x="303" y="441" type="line"/>
		</contour>
		<contour>
			<point x="72.667" y="0" type="line"/>
			<point x="441.333" y="0" type="line"/>
			<point x="441.333" y="109.667" type="line"/>
			<point x="188.667" y="109.667" type="line"/>
			<point x="188.667" y="739" type="line"/>
			<point x="72.667" y="739" type="line"/>
		</contour>
	</outline>
</glyph>
<glyph name="ldot" format="2">
	<unicode hex="0140"/>
	<advance width="410"/>
	<outline>
		<contour>
			<point x="57" y="0" type="line"/>
			<point x="170.333" y="0" type="line"/>
			<point x="170.333" y="739" type="line"/>
			<point x="57" y="739" type="line"/>
		</contour>
		<contour>
			<point x="250.333" y="303" type="line"/>
			<point x="363.667" y="303" type="line"/>
			<point x="363.667" y="433.667" type="line"/>
			<point x="250.333" y="433.667" type="line"/>
		</contour>
	</outline>
</glyph>
<glyph name="Lslash" format="2">
	<unicode hex="0141"/>
	<advance width="495"/>
	<outline>
		<contour>
			<point x="116" y="0" type="line"/>
			<point x="484.667" y="0" type="line"/>
			<point x="484.667" y="107.667" type="line"/>
			<point x="232" y="107.667" type="line"/>
			<point x="232" y="351" type="line"/>
			<point x="380" y="469" type="line"/>
			<point x="380" y="579" type="line"/>
			<point x="232" y="461.333" type="line"/>
			<point x="232" y="739" type="line"/>
			<point x="116" y="739" type="line"/>
			<point x="116" y="393.667" type="line"/>
			<point x="20" y="314.333" type="line"/>
			<point x="20" y="204" type="line"/>
			<point x="116" y="283" type="line"/>
		</contour>
	</outline>
	<anchor name="Anchor-0" x="173.667" y="805"/>
</glyph>
<glyph name="lslash" format="2">
	<unicode hex="0142"/>
	<advance width="329"/>
	<outline>
		<contour>
			<point x="110.667" y="0" type="line"/>
			<point x="224" y="0" type="line"/>
			<point x="224" y="381.667" type="line"/>
			<point x="305.333" y="441.667" type="line"/>
			<point x="305.333" y="532" type="line"/>
			<point x="224" y="471.667" type="line"/>
			<point x="224" y="739" type="line"/>
			<point x="110.667" y="739" type="line"/>
			<point x="110.667" y="417.333" type="line"/>
			<point x="30.667" y="357.667" type="line"/>
			<point x="30.667" y="267.667" type="line"/>
			<point x="110.667" y="326.667" type="line"/>
		</contour>
	</outline>
	<anchor name="Anchor-0" x="166.667" y="805"/>
</glyph>
<glyph name="OE" format="2">
	<unicode hex="0152"/>
	<advance width="1103"/>
	<outline>
		<contour>
			<point x="425.667" y="-13" type="curve" smooth="yes"/>
			<point x="532.824" y="-13"/>
			<point x="621.432" y="28.096"/>
			<point x="678.333" y="104.333" type="curve"/>
			<point x="678.333" y="0" type="line"/>
			<point x="1047.33" y="0" type="line"/>
			<point x="1047.33" y="109.667" type="line"/>
			<point x="795.667" y="109.667" type="line"/>
			<point x="795.667" y="315.333" type="line"/>
			<point x="1036.33" y="315.333" type="line"/>
			<point x="1036.33" y="425" type="line"/>
			<point x="795.667" y="425" type="line"/>
			<point x="795.667" y="629.333" type="line"/>
			<point x="1047.33" y="629.333" type="line"/>
			<point x="1047.33" y="739" type="line"/>
			<point x="678.333" y="739" type="line"/>
			<point x="678.333" y="635.333" type="line"/>
			<point x="620.488" y="712.138"/>
			<point x="531.963" y="752"/>
			<point x="418" y="752" type="curve" smooth="yes"/>
			<point x="200.718" y="752"/>
			<point x="38.667" y="588.386"/>
			<point x="38.667" y="369" type="curve" smooth="yes"/>
			<point x="38.667" y="150.442"/>
			<point x="204.226" y="-13"/>
		</contour>
		<contour>
			<point x="422" y="97.667" type="curve" smooth="yes"/>
			<point x="270.715" y="97.667"/>
			<point x="155.667" y="214.295"/>
			<point x="155.667" y="367.667" type="curve" smooth="yes"/>
			<point x="155.667" y="522.578"/>
			<point x="267.584" y="641.333"/>
			<point x="413.667" y="641.333" type="curve" smooth="yes"/>
			<point x="571.493" y="641.333"/>
			<point x="682" y="529.176"/>
			<point x="682" y="369" type="curve" smooth="yes"/>
			<point x="682" y="211.881"/>
			<point x="572.555" y="97.667"/>
		</contour>
	</outline>
	<anchor name="Anchor-0" x="611" y="805"/>
</glyph>
<glyph name="oe" format="2">
	<unicode hex="0153"/>
	<advance width="1095"/>
	<outline>
		<contour>
			<point x="928" y="168.333" type="line"/>
			<point x="897.075" y="119.005"/>
			<point x="844.208" y="91"/>
			<point x="784.667" y="91" type="curve" smooth="yes"/>
			<point x="697.891" y="91"/>
			<point x="627.654" y="146.715"/>
			<point x="610.667" y="228" type="curve"/>
			<point x="1059.33" y="228" type="line"/>
			<point x="1062.19" y="250.69"/>
			<point x="1063.33" y="265.733"/>
			<point x="1063.33" y="284.667" type="curve" smooth="yes"/>
			<point x="1063.33" y="446.16"/>
			<point x="942.837" y="564.667"/>
			<point x="778.667" y="564.667" type="curve" smooth="yes"/>
			<point x="682.794" y="564.667"/>
			<point x="612.741" y="526.781"/>
			<point x="551" y="442" type="curve"/>
			<point x="487.362" y="527.75"/>
			<point x="418.142" y="564.667"/>
			<point x="320" y="564.667" type="curve" smooth="yes"/>
			<point x="158.878" y="564.667"/>
			<point x="32.667" y="437.876"/>
			<point x="32.667" y="276" type="curve" smooth="yes"/>
			<point x="32.667" y="111.284"/>
			<point x="158.382" y="-13"/>
			<point x="325" y="-13" type="curve" smooth="yes"/>
			<point x="424.225" y="-13"/>
			<point x="494.937" y="26.271"/>
			<point x="551" y="112.667" type="curve"/>
			<point x="600.224" y="32.519"/>
			<point x="685.434" y="-13"/>
			<point x="786.667" y="-13" type="curve" smooth="yes"/>
			<point x="906.882" y="-13"/>
			<point x="1010.8" y="59.368"/>
			<point x="1047.33" y="168.333" type="curve"/>
		</contour>
		<contour>
			<point x="328.333" y="91" type="curve" smooth="yes"/>
			<point x="225.467" y="91"/>
			<point x="147" y="171.197"/>
			<point x="147" y="276.333" type="curve" smooth="yes"/>
			<point x="147" y="379.901"/>
			<point x="223.241" y="460.667"/>
			<point x="321" y="460.667" type="curve" smooth="yes"/>
			<point x="424.993" y="460.667"/>
			<point x="501.333" y="382.35"/>
			<point x="501.333" y="275.667" type="curve" smooth="yes"/>
			<point x="501.333" y="170.684"/>
			<point x="426.683" y="91"/>
		</contour>
		<contour>
			<point x="606.667" y="328.333" type="line"/>
			<point x="632.363" y="413.772"/>
			<point x="692.435" y="460.667"/>
			<point x="777" y="460.667" type="curve" smooth="yes"/>
			<point x="865.842" y="460.667"/>
			<point x="927.625" y="412.481"/>
			<point x="947.667" y="328.333" type="curve"/>
		</contour>
	</outline>
	<anchor name="Anchor-0" x="548.333" y="627.667"/>
</glyph>
<glyph name="Scaron" format="2">
	<unicode hex="0160"/>
	<advance width="515"/>
	<outline>
		<component base="S"/>
		<contour>
			<point x="68.667" y="939" type="line"/>
			<point x="214.333" y="805" type="line"/>
			<point x="307.667" y="805" type="line"/>
			<point x="452.667" y="939" type="line"/>
			<point x="325.667" y="939" type="line"/>
			<point x="261" y="871.667" type="line"/>
			<point x="196.333" y="939" type="line"/>
		</contour>
	</outline>
	<anchor name="Anchor-0" x="260.333" y="1005.67"/>
</glyph>
<glyph name="scaron" format="2">
	<unicode hex="0161"/>
	<advance width="421"/>
	<outline>
		<component base="s"/>
		<contour>
			<point x="19" y="761.667" type="line"/>
			<point x="164.667" y="627.667" type="line"/>
			<point x="258" y="627.667" type="line"/>
			<point x="403" y="761.667" type="line"/>
			<point x="276" y="761.667" type="line"/>
			<point x="211.333" y="694.333" type="line"/>
			<point x="146.667" y="761.667" type="line"/>
		</contour>
	</outline>
	<anchor name="Anchor-0" x="211.333" y="828.333"/>
</glyph>
<glyph name="Ydieresis" format="2">
	<unicode hex="0178"/>
	<advance width="622"/>
	<outline>
		<contour>
			<point x="252.667" y="0" type="line"/>
			<point x="368.667" y="0" type="line"/>
			<point x="368.667" y="264.333" type="line"/>
			<point x="616.667" y="739" type="line"/>
			<point x="491" y="739" type="line"/>
			<point x="310.667" y="374.333" type="line"/>
			<point x="131.333" y="739" type="line"/>
			<point x="5.333" y="739" type="line"/>
			<point x="252.667" y="264.333" type="line"/>
		</contour>
		<contour>
			<point x="160" y="805" type="line"/>
			<point x="273.333" y="805" type="line"/>
			<point x="273.333" y="935.667" type="line"/>
			<point x="160" y="935.667" type="line"/>
		</contour>
		<contour>
			<point x="349" y="805" type="line"/>
			<point x="462.333" y="805" type="line"/>
			<point x="462.333" y="935.667" type="line"/>
			<point x="349" y="935.667" type="line"/>
		</contour>
	</outline>
	<anchor name="Anchor-0" x="310.667" y="1005.67"/>
</glyph>
<glyph name="Zcaron" format="2">
	<unicode hex="017D"/>
	<advance width="508"/>
	<outline>
		<contour>
			<point x="25.667" y="0" type="line"/>
			<point x="486" y="0" type="line"/>
			<point x="486" y="109.667" type="line"/>
			<point x="163.667" y="109.667" type="line"/>
			<point x="469.667" y="634.667" type="line"/>
			<point x="469.667" y="739" type="line"/>
			<point x="39.333" y="739" type="line"/>
			<point x="39.333" y="629.333" type="line"/>
			<point x="333.333" y="629.333" type="line"/>
			<point x="25.667" y="99.667" type="line"/>
		</contour>
		<contour>
			<point x="65.333" y="939" type="line"/>
			<point x="211" y="805" type="line"/>
			<point x="304.333" y="805" type="line"/>
			<point x="449.333" y="939" type="line"/>
			<point x="322.333" y="939" type="line"/>
			<point x="257.667" y="871.667" type="line"/>
			<point x="193" y="939" type="line"/>
		</contour>
	</outline>
	<anchor name="Anchor-0" x="255.667" y="1005.67"/>
</glyph>
<glyph name="zcaron" format="2">
	<unicode hex="017E"/>
	<advance width="463"/>
	<outline>
		<contour>
			<point x="23.333" y="0" type="line"/>
			<point x="439.667" y="0" type="line"/>
			<point x="439.667" y="101.667" type="line"/>
			<point x="158.333" y="101.667" type="line"/>
			<point x="420.667" y="451.333" type="line"/>
			<point x="420.667" y="551.667" type="line"/>
			<point x="45.333" y="551.667" type="line"/>
			<point x="45.333" y="450" type="line"/>
			<point x="286.667" y="450" type="line"/>
			<point x="23.333" y="101.667" type="line"/>
		</contour>
		<contour>
			<point x="43.667" y="761.667" type="line"/>
			<point x="189.333" y="627.667" type="line"/>
			<point x="282.667" y="627.667" type="line"/>
			<point x="427.667" y="761.667" type="line"/>
			<point x="300.667" y="761.667" type="line"/>
			<point x="236" y="694.333" type="line"/>
			<point x="171.333" y="761.667" type="line"/>
		</contour>
	</outline>
	<anchor name="Anchor-0" x="234.667" y="828.333"/>
</glyph>
<glyph name="florin" format="2">
	<unicode hex="0192"/>
	<advance width="558"/>
	<outline>
		<contour>
			<point x="8" y="-143.333" type="line"/>
			<point x="29.147" y="-148.614"/>
			<point x="43.548" y="-150.333"/>
			<point x="66.667" y="-150.333" type="curve" smooth="yes"/>
			<point x="205.657" y="-150.333"/>
			<point x="269.471" y="-82.444"/>
			<point x="301.333" y="99.333" type="curve" smooth="yes"/>
			<point x="369.333" y="485.667" type="line"/>
			<point x="468.667" y="485.667" type="line"/>
			<point x="485.333" y="584.667" type="line"/>
			<point x="386.667" y="584.667" type="line"/>
			<point x="389.814" y="601.815" type="line" smooth="yes"/>
			<point x="404.853" y="683.301"/>
			<point x="436.679" y="720.333"/>
			<point x="492" y="720.333" type="curve" smooth="yes"/>
			<point x="497.357" y="720.333"/>
			<point x="504.23" y="719.448"/>
			<point x="507.667" y="718.333" type="curve"/>
			<point x="524.667" y="818.333" type="line"/>
			<point x="511.053" y="820.627"/>
			<point x="505.111" y="821.333"/>
			<point x="495.667" y="821.333" type="curve" smooth="yes"/>
			<point x="381.533" y="821.333"/>
			<point x="309.318" y="748.962"/>
			<point x="283.333" y="609.667" type="curve" smooth="yes"/>
			<point x="278.667" y="584.667" type="line"/>
			<point x="179" y="584.667" type="line"/>
			<point x="162" y="485.667" type="line"/>
			<point x="262.333" y="485.667" type="line"/>
			<point x="195.667" y="116" type="line" smooth="yes"/>
			<point x="173.576" y="-6.51"/>
			<point x="139.92" y="-48.667"/>
			<point x="63.333" y="-48.667" type="curve" smooth="yes"/>
			<point x="51.25" y="-48.667"/>
			<point x="41.542" y="-47.657"/>
			<point x="25.333" y="-44.667" type="curve"/>
		</contour>
	</outline>
	<anchor name="Anchor-0" x="409.667" y="882.667"/>
</glyph>
<glyph name="dotlessj" format="2">
	<unicode hex="0237"/>
	<advance width="238"/>
	<outline>
		<contour>
			<point x="-6.333" y="-187.333" type="line"/>
			<point x="42.667" y="-186.659"/>
			<point x="83.378" y="-172.184"/>
			<point x="116.333" y="-144" type="curve" smooth="yes"/>
			<point x="162.771" y="-105.257"/>
			<point x="180.667" y="-54.465"/>
			<point x="180.667" y="37.333" type="curve" smooth="yes"/>
			<point x="180.667" y="551.667" type="line"/>
			<point x="67.333" y="551.667" type="line"/>
			<point x="67.333" y="39.333" type="line" smooth="yes"/>
			<point x="67.333" y="-50.74"/>
			<point x="54.622" y="-70.01"/>
			<point x="-6.333" y="-77.667" type="curve"/>
		</contour>
	</outline>
	<anchor name="Anchor-0" x="123.667" y="627.667"/>
</glyph>
<glyph name="circumflex" format="2">
	<unicode hex="02C6"/>
	<advance width="519"/>
	<outline>
		<contour>
			<point x="67.333" y="627.667" type="line"/>
			<point x="195.667" y="627.667" type="line"/>
			<point x="261" y="695" type="line"/>
			<point x="325" y="627.667" type="line"/>
			<point x="451.333" y="627.667" type="line"/>
			<point x="307" y="761.667" type="line"/>
			<point x="213.667" y="761.667" type="line"/>
		</contour>
	</outline>
</glyph>
<glyph name="caron" format="2">
	<unicode hex="02C7"/>
	<advance width="519"/>
	<outline>
		<contour>
			<point x="67.333" y="761.667" type="line"/>
			<point x="213" y="627.667" type="line"/>
			<point x="306.333" y="627.667" type="line"/>
			<point x="451.333" y="761.667" type="line"/>
			<point x="324.333" y="761.667" type="line"/>
			<point x="259.667" y="694.333" type="line"/>
			<point x="195" y="761.667" type="line"/>
		</contour>
	</outline>
</glyph>
<glyph name="breve" format="2">
	<unicode hex="02D8"/>
	<advance width="456"/>
	<outline>
		<contour>
			<point x="67.333" y="760.333" type="line"/>
			<point x="76.241" y="673.959"/>
			<point x="132.413" y="627.667"/>
			<point x="228.667" y="627.667" type="curve" smooth="yes"/>
			<point x="322.04" y="627.667"/>
			<point x="381.646" y="677.259"/>
			<point x="388.667" y="760.333" type="curve"/>
			<point x="299.333" y="760.333" type="line"/>
			<point x="293.817" y="728.014"/>
			<point x="269.442" y="711"/>
			<point x="228.667" y="711" type="curve" smooth="yes"/>
			<point x="188.729" y="711"/>
			<point x="164.217" y="727.209"/>
			<point x="154" y="760.333" type="curve"/>
		</contour>
	</outline>
</glyph>
<glyph name="dotaccent" format="2">
	<unicode hex="02D9"/>
	<advance width="248"/>
	<outline>
		<contour>
			<point x="67.333" y="627.667" type="line"/>
			<point x="180.667" y="627.667" type="line"/>
			<point x="180.667" y="758.333" type="line"/>
			<point x="67.333" y="758.333" type="line"/>
		</contour>
	</outline>
</glyph>
<glyph name="ring" format="2">
	<unicode hex="02DA"/>
	<advance width="333"/>
	<outline>
		<contour>
			<point x="136" y="640.333" type="curve" smooth="yes"/>
			<point x="174" y="623.592"/>
			<point x="218.408" y="640.667"/>
			<point x="235.333" y="678.667" type="curve" smooth="yes"/>
			<point x="252.333" y="716.183"/>
			<point x="235.152" y="761"/>
			<point x="198" y="778" type="curve" smooth="yes"/>
			<point x="159.482" y="794.758"/>
			<point x="114.909" y="778.147"/>
			<point x="98.333" y="740" type="curve" smooth="yes"/>
			<point x="81" y="702"/>
			<point x="98" y="657.667"/>
		</contour>
		<contour>
			<point x="125.667" y="709" type="curve" smooth="yes"/>
			<point x="125.667" y="731.694"/>
			<point x="143.704" y="750.333"/>
			<point x="165.667" y="750.333" type="curve" smooth="yes"/>
			<point x="189.185" y="750.333"/>
			<point x="207.667" y="732.144"/>
			<point x="207.667" y="709" type="curve" smooth="yes"/>
			<point x="207.667" y="686.592"/>
			<point x="189.257" y="668.333"/>
			<point x="166.667" y="668.333" type="curve" smooth="yes"/>
			<point x="143.907" y="668.333"/>
			<point x="125.667" y="686.425"/>
		</contour>
	</outline>
</glyph>
<glyph name="ogonek" format="2">
	<unicode hex="02DB"/>
	<advance width="307"/>
	<outline>
		<contour>
			<point x="240" y="-120.667" type="line"/>
			<point x="223.235" y="-127.95"/>
			<point x="211.683" y="-130.667"/>
			<point x="197.667" y="-130.667" type="curve" smooth="yes"/>
			<point x="167.073" y="-130.667"/>
			<point x="144.667" y="-112.064"/>
			<point x="144.667" y="-86.667" type="curve" smooth="yes"/>
			<point x="144.667" y="-59.137"/>
			<point x="164.026" y="-34.08"/>
			<point x="212.333" y="0" type="curve"/>
			<point x="148.667" y="0" type="line"/>
			<point x="93.847" y="-28.069"/>
			<point x="67.333" y="-61.779"/>
			<point x="67.333" y="-103.667" type="curve" smooth="yes"/>
			<point x="67.333" y="-160.427"/>
			<point x="113.108" y="-199.667"/>
			<point x="179.333" y="-199.667" type="curve" smooth="yes"/>
			<point x="199.603" y="-199.667"/>
			<point x="218.014" y="-195.904"/>
			<point x="240" y="-187.333" type="curve"/>
		</contour>
	</outline>
</glyph>
<glyph name="tilde" format="2">
	<unicode hex="02DC"/>
	<advance width="452"/>
	<outline>
		<contour>
			<point x="114.667" y="635" type="line"/>
			<point x="145.182" y="657.609"/>
			<point x="155.381" y="662.333"/>
			<point x="181.333" y="662.333" type="curve" smooth="yes"/>
			<point x="195.873" y="662.333"/>
			<point x="206.63" y="659.81"/>
			<point x="230.667" y="651" type="curve" smooth="yes"/>
			<point x="261.009" y="639.168"/>
			<point x="277.569" y="635"/>
			<point x="292" y="635" type="curve" smooth="yes"/>
			<point x="326.099" y="635"/>
			<point x="358.168" y="653.108"/>
			<point x="385" y="688" type="curve"/>
			<point x="338" y="757.333" type="line"/>
			<point x="317.16" y="734.175"/>
			<point x="298.173" y="724.333"/>
			<point x="274.333" y="724.333" type="curve" smooth="yes"/>
			<point x="261.67" y="724.333"/>
			<point x="245.515" y="728.534"/>
			<point x="227" y="736.333" type="curve" smooth="yes"/>
			<point x="196.87" y="749.061"/>
			<point x="187.835" y="751.333"/>
			<point x="167.333" y="751.333" type="curve" smooth="yes"/>
			<point x="127.46" y="751.333"/>
			<point x="98.767" y="737.44"/>
			<point x="67.667" y="703.667" type="curve"/>
		</contour>
	</outline>
</glyph>
<glyph name="hungarumlaut" format="2">
	<unicode hex="02DD"/>
	<advance width="639"/>
	<outline>
		<contour>
			<point x="112.333" y="612" type="line"/>
			<point x="318.333" y="740.333" type="line"/>
			<point x="264.333" y="810" type="line"/>
			<point x="67.333" y="673.667" type="line"/>
		</contour>
		<contour>
			<point x="367" y="612" type="line"/>
			<point x="572.333" y="740.333" type="line"/>
			<point x="519" y="810" type="line"/>
			<point x="321.333" y="673.667" type="line"/>
		</contour>
	</outline>
</glyph>
<glyph name="gravecomb" format="2">
	<unicode hex="0300"/>
	<outline>
		<contour>
			<point x="-488.667" y="730.667" type="line"/>
			<point x="-272.333" y="612" type="line"/>
			<point x="-226" y="683.333" type="line"/>
			<point x="-440" y="808.667" type="line"/>
		</contour>
	</outline>
	<anchor name="Anchor-1" x="-324.667" y="828.333"/>
	<anchor name="_Anchor-1" x="-324.667" y="627.667"/>
	<anchor name="_Anchor-0" x="-324.667" y="627.667"/>
</glyph>
<glyph name="acutecomb" format="2">
	<unicode hex="0301"/>
	<outline>
		<contour>
			<point x="-376" y="612" type="line"/>
			<point x="-160.333" y="730" type="line"/>
			<point x="-207.667" y="810.667" type="line"/>
			<point x="-421.333" y="682.667" type="line"/>
		</contour>
	</outline>
	<anchor name="Anchor-1" x="-324.667" y="828.333"/>
	<anchor name="_Anchor-1" x="-324.667" y="627.667"/>
	<anchor name="_Anchor-0" x="-324.667" y="627.667"/>
</glyph>
<glyph name="circumflexcomb" format="2">
	<unicode hex="0302"/>
	<outline>
		<contour>
			<point x="-516.333" y="627.667" type="line"/>
			<point x="-388" y="627.667" type="line"/>
			<point x="-322.667" y="695" type="line"/>
			<point x="-258.667" y="627.667" type="line"/>
			<point x="-132.333" y="627.667" type="line"/>
			<point x="-276.667" y="761.667" type="line"/>
			<point x="-370" y="761.667" type="line"/>
		</contour>
	</outline>
	<anchor name="Anchor-1" x="-324.667" y="828.333"/>
	<anchor name="_Anchor-1" x="-324.667" y="627.667"/>
	<anchor name="_Anchor-0" x="-324.667" y="627.667"/>
</glyph>
<glyph name="tildecomb" format="2">
	<unicode hex="0303"/>
	<outline>
		<contour>
			<point x="-431.667" y="635" type="line"/>
			<point x="-400.541" y="657.225"/>
			<point x="-389.621" y="662.333"/>
			<point x="-365" y="662.333" type="curve" smooth="yes"/>
			<point x="-351.127" y="662.333"/>
			<point x="-340.896" y="659.941"/>
			<point x="-315.667" y="651" type="curve" smooth="yes"/>
			<point x="-284.764" y="639.831"/>
			<point x="-264.726" y="635"/>
			<point x="-249.362" y="635" type="curve" smooth="yes"/>
			<point x="-217.908" y="635"/>
			<point x="-188.179" y="653.085"/>
			<point x="-161.333" y="688" type="curve"/>
			<point x="-208.333" y="757.333" type="line"/>
			<point x="-229.174" y="734.175"/>
			<point x="-248.16" y="724.333"/>
			<point x="-272" y="724.333" type="curve" smooth="yes"/>
			<point x="-284.663" y="724.333"/>
			<point x="-300.818" y="728.534"/>
			<point x="-319.333" y="736.333" type="curve" smooth="yes"/>
			<point x="-349.463" y="749.061"/>
			<point x="-358.498" y="751.333"/>
			<point x="-379" y="751.333" type="curve" smooth="yes"/>
			<point x="-418.873" y="751.333"/>
			<point x="-447.566" y="737.44"/>
			<point x="-478.667" y="703.667" type="curve"/>
		</contour>
	</outline>
	<anchor name="Anchor-1" x="-325.333" y="828.333"/>
	<anchor name="_Anchor-1" x="-325.333" y="627.667"/>
	<anchor name="_Anchor-0" x="-325.333" y="627.667"/>
</glyph>
<glyph name="macroncomb" format="2">
	<unicode hex="0304"/>
	<outline>
		<contour>
			<point x="-472.667" y="646.333" type="line"/>
			<point x="-175.667" y="646.333" type="line"/>
			<point x="-175.667" y="734.333" type="line"/>
			<point x="-472.667" y="734.333" type="line"/>
		</contour>
	</outline>
	<anchor name="Anchor-1" x="-324.333" y="828.333"/>
	<anchor name="_Anchor-1" x="-324.333" y="627.667"/>
	<anchor name="_Anchor-0" x="-324.333" y="627.667"/>
</glyph>
